<?xml version="1.0" encoding="utf-8"?>
<!-- Generator: Adobe Illustrator 22.0.1, SVG Export Plug-In . SVG Version: 6.00 Build 0)  -->
<svg version="1.1" xmlns="http://www.w3.org/2000/svg" xmlns:xlink="http://www.w3.org/1999/xlink" x="0px" y="0px"
	 viewBox="0 0 841.9 1844" style="enable-background:new 0 0 841.9 1844;" xml:space="preserve">
<style type="text/css">
	.st0{fill:#282828;stroke:#000000;stroke-miterlimit:10;}
	.st1{fill:url(#SVGID_1_);stroke:#000000;stroke-linejoin:round;stroke-miterlimit:10;}
	.st2{fill:url(#SVGID_2_);stroke:#000000;stroke-linejoin:bevel;stroke-miterlimit:10;}
	.st3{fill:#898989;stroke:#000000;stroke-linejoin:round;stroke-miterlimit:10;}
	.st4{fill:#9E7E64;stroke:#000000;stroke-miterlimit:10;}
	.st5{fill:none;stroke:#000000;stroke-miterlimit:10;}
	.st6{fill:#D1AD86;stroke:#000000;stroke-linejoin:round;stroke-miterlimit:10;}
	.st7{fill:#FFFFFF;stroke:#000000;stroke-width:0.5;stroke-miterlimit:10;}
	.st8{fill:#0C0C28;stroke:#000000;stroke-width:0.5;stroke-miterlimit:10;}
	.st9{fill:#161638;stroke:#000000;stroke-width:0.5;stroke-miterlimit:10;}
	.st10{stroke:#000000;stroke-width:0.5;stroke-miterlimit:10;}
	.st11{fill:none;stroke:#000000;stroke-width:0.5;stroke-miterlimit:10;}
	.st12{fill:#C9A277;stroke:#000000;stroke-linejoin:round;stroke-miterlimit:10;}
	.st13{fill:#EEC591;stroke:#000000;stroke-linejoin:round;stroke-miterlimit:10;}
	.st14{opacity:0.6;}
	.st15{fill:#C9A277;}
	.st16{fill:#FFFFFF;stroke:#000000;stroke-linejoin:round;stroke-miterlimit:10;}
	.st17{fill:#C17829;stroke:#000000;stroke-linejoin:round;stroke-miterlimit:10;}
	.st18{fill:none;stroke:#E22385;stroke-miterlimit:10;}
	.st19{fill:#F4F4F4;stroke:#000000;stroke-miterlimit:10;}
	.st20{opacity:0.4;fill:#FFFFFF;stroke:#000000;stroke-miterlimit:10;}
	.st21{opacity:0.93;fill:#F4F4F4;stroke:#000000;stroke-miterlimit:10;}
	.st22{fill:#303030;stroke:#000000;stroke-miterlimit:10;}
	.st23{fill:#FFFFFF;stroke:#000000;stroke-miterlimit:10;}
	.st24{enable-background:new    ;}
	.st25{fill:#333333;}
	.st26{fill:#272727;}
	.st27{fill:#414141;}
	.st28{fill:#262626;}
	.st29{fill:#292929;}
	.st30{fill:#2C2C2C;}
	.st31{fill:#2D2D2D;}
	.st32{fill:#252525;}
	.st33{fill:none;}
</style>
<g id="KAsten">
	<polyline class="st0" points="774.6,1615.6 421.4,1471.3 421.4,1389.1 773.9,1526.9 	"/>
	<linearGradient id="SVGID_1_" gradientUnits="userSpaceOnUse" x1="622.9373" y1="1692.9999" x2="586.6336" y2="1598.4257">
		<stop  offset="0" style="stop-color:#000000"/>
		<stop  offset="0.8746" style="stop-color:#0D0D0D"/>
		<stop  offset="0.878" style="stop-color:#131313"/>
		<stop  offset="0.8985" style="stop-color:#313131"/>
		<stop  offset="0.92" style="stop-color:#484848"/>
		<stop  offset="0.9429" style="stop-color:#595959"/>
		<stop  offset="0.9682" style="stop-color:#636363"/>
		<stop  offset="1" style="stop-color:#666666"/>
	</linearGradient>
	<path class="st1" d="M773.9,1526.9L431.4,1658l-10.4,4c0,0,0,17.1,0,27.2c0,9.9-0.4,81.5-0.4,81.5L791.1,1627c0,0,1-88,1-98
		C792.1,1525.8,773.9,1526.9,773.9,1526.9z"/>
	<polyline class="st0" points="67.2,1615.6 420.3,1471.3 420.3,1389.1 67.9,1526.9 	"/>
	
		<linearGradient id="SVGID_2_" gradientUnits="userSpaceOnUse" x1="6700.4907" y1="1693.1274" x2="6664.0889" y2="1598.2977" gradientTransform="matrix(-1 0 0 1 6919.0957 0)">
		<stop  offset="0" style="stop-color:#000000"/>
		<stop  offset="0.8692" style="stop-color:#0D0D0D"/>
		<stop  offset="0.8728" style="stop-color:#131313"/>
		<stop  offset="0.8941" style="stop-color:#313131"/>
		<stop  offset="0.9166" style="stop-color:#484848"/>
		<stop  offset="0.9405" style="stop-color:#595959"/>
		<stop  offset="0.9668" style="stop-color:#636363"/>
		<stop  offset="1" style="stop-color:#666666"/>
	</linearGradient>
	<path class="st2" d="M68.1,1526.9L410.6,1658l10.4,4c0,0,0,17.1,0,27.2c0,9.9-0.3,81.5-0.3,81.5L51.4,1625.7c0,0-1.5-86.7-1.5-96.7
		C49.9,1525.8,68.1,1526.9,68.1,1526.9z"/>
	<polygon class="st3" points="791.1,1527.9 774.6,1526.8 420.7,1389.1 423.7,1386.7 	"/>
	<polygon class="st3" points="51,1527.7 67.5,1526.6 421.4,1388.9 418.4,1386.5 	"/>
</g>
<g id="Standplatte">
	<g>
		<polyline class="st4" points="65.7,1342.8 65.7,1351.5 421.4,1488.1 777,1351.5 777,1342.8 		"/>
		<line class="st5" x1="421.4" y1="1488.1" x2="421.4" y2="1479"/>
		<polygon class="st6" points="423.9,1203.5 65.7,1342.8 421.4,1479 777,1342.8 		"/>
	</g>
</g>
<g id="LEDs">
	<g>
		<polygon class="st7" points="433,1324.4 718.4,1210.9 717.4,1210.2 432.5,1323.5 		"/>
		<polygon class="st7" points="432.2,1322.7 717.8,1208.9 716.8,1208.2 431.8,1321.7 		"/>
		<polygon class="st7" points="430.8,1321.2 716.1,1207.4 715.1,1206.8 430.3,1320.3 		"/>
	</g>
	<g>
		<line class="st7" x1="688.7" y1="1222.8" x2="689.2" y2="1223.7"/>
		<line class="st7" x1="722.4" y1="1209.6" x2="721.4" y2="1208.9"/>
		<line class="st7" x1="688" y1="1221" x2="688.5" y2="1221.9"/>
		<line class="st7" x1="721.7" y1="1207.8" x2="720.7" y2="1207.1"/>
		<line class="st7" x1="686.6" y1="1219.6" x2="687.1" y2="1220.5"/>
		<line class="st7" x1="720.3" y1="1206.4" x2="719.3" y2="1205.7"/>
	</g>
	<g>
		<path class="st8" d="M415.2,1324.1c0-2.7,4-4.9,8.9-4.9s8.9,2.2,8.9,4.9s-4,4.9-8.9,4.9S415.2,1326.8,415.2,1324.1z"/>
		<path class="st9" d="M415.2,1322.7c0-2.7,4-4.9,8.9-4.9s8.9,2.2,8.9,4.9s-4,4.9-8.9,4.9S415.2,1325.4,415.2,1322.7z"/>
		<polygon class="st10" points="419.9,1322.8 424.3,1320.9 428.3,1322.9 423.8,1324.7 		"/>
		<polygon class="st10" points="419.9,1322.3 424.3,1320.4 428.3,1322.4 423.8,1324.2 		"/>
		<polygon class="st10" points="419.8,1321.9 424.2,1320 428.2,1322 423.7,1323.8 		"/>
		<path class="st5" d="M415.2,1324.1"/>
		<path class="st5" d="M415.2,1321.4"/>
		<path class="st5" d="M432.9,1324.4"/>
		<path class="st5" d="M432.9,1321.2"/>
		<polygon class="st7" points="419.8,1321.6 424.2,1319.7 428.2,1321.8 423.7,1323.5 		"/>
		<line class="st11" x1="428.6" y1="1321.7" x2="428.6" y2="1322.9"/>
		<line class="st11" x1="419.5" y1="1321.7" x2="419.5" y2="1322.8"/>
	</g>
	<g>
		<path class="st8" d="M461.2,1306.1c0-2.7,4-4.9,8.9-4.9c4.9,0,8.9,2.2,8.9,4.9s-4,4.9-8.9,4.9
			C465.2,1311.1,461.2,1308.8,461.2,1306.1z"/>
		<path class="st9" d="M461.2,1304.7c0-2.7,4-4.9,8.9-4.9c4.9,0,8.9,2.2,8.9,4.9s-4,4.9-8.9,4.9
			C465.2,1309.6,461.2,1307.4,461.2,1304.7z"/>
		<polygon class="st10" points="465.9,1304.8 470.3,1302.9 474.3,1304.9 469.8,1306.7 		"/>
		<polygon class="st10" points="465.9,1304.3 470.3,1302.4 474.3,1304.4 469.8,1306.2 		"/>
		<polygon class="st10" points="465.8,1303.9 470.2,1302 474.2,1304 469.7,1305.8 		"/>
		<path class="st5" d="M461.2,1306.1"/>
		<path class="st5" d="M461.2,1303.4"/>
		<path class="st5" d="M478.9,1306.4"/>
		<path class="st5" d="M478.9,1303.2"/>
		<polygon class="st7" points="465.8,1303.6 470.2,1301.7 474.2,1303.8 469.7,1305.5 		"/>
		<line class="st11" x1="474.6" y1="1303.7" x2="474.6" y2="1304.9"/>
		<line class="st11" x1="465.5" y1="1303.7" x2="465.5" y2="1304.8"/>
	</g>
	<g>
		<path class="st8" d="M505.2,1288.1c0-2.7,4-4.9,8.9-4.9c4.9,0,8.9,2.2,8.9,4.9s-4,4.9-8.9,4.9
			C509.2,1293.1,505.2,1290.8,505.2,1288.1z"/>
		<path class="st9" d="M505.2,1286.7c0-2.7,4-4.9,8.9-4.9c4.9,0,8.9,2.2,8.9,4.9s-4,4.9-8.9,4.9
			C509.2,1291.6,505.2,1289.4,505.2,1286.7z"/>
		<polygon class="st10" points="509.9,1286.8 514.3,1284.9 518.3,1286.9 513.8,1288.7 		"/>
		<polygon class="st10" points="509.9,1286.3 514.3,1284.4 518.3,1286.4 513.8,1288.2 		"/>
		<polygon class="st10" points="509.8,1285.9 514.2,1284 518.2,1286 513.7,1287.8 		"/>
		<path class="st5" d="M505.2,1288.1"/>
		<path class="st5" d="M505.2,1285.4"/>
		<path class="st5" d="M522.9,1288.4"/>
		<path class="st5" d="M522.9,1285.2"/>
		<polygon class="st7" points="509.8,1285.6 514.2,1283.7 518.2,1285.8 513.7,1287.5 		"/>
		<line class="st11" x1="518.6" y1="1285.7" x2="518.6" y2="1286.9"/>
		<line class="st11" x1="509.5" y1="1285.7" x2="509.5" y2="1286.8"/>
	</g>
	<g>
		<path class="st8" d="M547.2,1272.1c0-2.7,4-4.9,8.9-4.9c4.9,0,8.9,2.2,8.9,4.9s-4,4.9-8.9,4.9
			C551.2,1277.1,547.2,1274.8,547.2,1272.1z"/>
		<path class="st9" d="M547.2,1270.7c0-2.7,4-4.9,8.9-4.9c4.9,0,8.9,2.2,8.9,4.9s-4,4.9-8.9,4.9
			C551.2,1275.6,547.2,1273.4,547.2,1270.7z"/>
		<polygon class="st10" points="551.9,1270.8 556.3,1268.9 560.3,1270.9 555.8,1272.7 		"/>
		<polygon class="st10" points="551.9,1270.3 556.3,1268.4 560.3,1270.4 555.8,1272.2 		"/>
		<polygon class="st10" points="551.8,1269.9 556.2,1268 560.2,1270 555.7,1271.8 		"/>
		<path class="st5" d="M547.2,1272.1"/>
		<path class="st5" d="M547.2,1269.4"/>
		<path class="st5" d="M564.9,1272.4"/>
		<path class="st5" d="M564.9,1269.2"/>
		<polygon class="st7" points="551.8,1269.6 556.2,1267.7 560.2,1269.8 555.7,1271.5 		"/>
		<line class="st11" x1="560.6" y1="1269.7" x2="560.6" y2="1270.9"/>
		<line class="st11" x1="551.5" y1="1269.7" x2="551.5" y2="1270.8"/>
	</g>
	<g>
		<path class="st8" d="M591.2,1255.1c0-2.7,4-4.9,8.9-4.9c4.9,0,8.9,2.2,8.9,4.9s-4,4.9-8.9,4.9
			C595.2,1260.1,591.2,1257.8,591.2,1255.1z"/>
		<path class="st9" d="M591.2,1253.7c0-2.7,4-4.9,8.9-4.9c4.9,0,8.9,2.2,8.9,4.9s-4,4.9-8.9,4.9
			C595.2,1258.6,591.2,1256.4,591.2,1253.7z"/>
		<polygon class="st10" points="595.9,1253.8 600.3,1251.9 604.3,1253.9 599.8,1255.7 		"/>
		<polygon class="st10" points="595.9,1253.3 600.3,1251.4 604.3,1253.4 599.8,1255.2 		"/>
		<polygon class="st10" points="595.8,1252.9 600.2,1251 604.2,1253 599.7,1254.8 		"/>
		<path class="st5" d="M591.2,1255.1"/>
		<path class="st5" d="M591.2,1252.4"/>
		<path class="st5" d="M608.9,1255.4"/>
		<path class="st5" d="M608.9,1252.2"/>
		<polygon class="st7" points="595.8,1252.6 600.2,1250.7 604.2,1252.8 599.7,1254.5 		"/>
		<line class="st11" x1="604.6" y1="1252.7" x2="604.6" y2="1253.9"/>
		<line class="st11" x1="595.5" y1="1252.7" x2="595.5" y2="1253.8"/>
	</g>
	<g>
		<path class="st8" d="M633.2,1239.1c0-2.7,4-4.9,8.9-4.9s8.9,2.2,8.9,4.9s-4,4.9-8.9,4.9S633.2,1241.8,633.2,1239.1z"/>
		<path class="st9" d="M633.2,1237.7c0-2.7,4-4.9,8.9-4.9s8.9,2.2,8.9,4.9s-4,4.9-8.9,4.9S633.2,1240.4,633.2,1237.7z"/>
		<polygon class="st10" points="637.9,1237.8 642.3,1235.9 646.3,1237.9 641.8,1239.7 		"/>
		<polygon class="st10" points="637.9,1237.3 642.3,1235.4 646.3,1237.4 641.8,1239.2 		"/>
		<polygon class="st10" points="637.8,1236.9 642.2,1235 646.2,1237 641.7,1238.8 		"/>
		<path class="st5" d="M633.2,1239.1"/>
		<path class="st5" d="M633.2,1236.4"/>
		<path class="st5" d="M650.9,1239.4"/>
		<path class="st5" d="M650.9,1236.2"/>
		<polygon class="st7" points="637.8,1236.6 642.2,1234.7 646.2,1236.8 641.7,1238.5 		"/>
		<line class="st11" x1="646.6" y1="1236.7" x2="646.6" y2="1237.9"/>
		<line class="st11" x1="637.5" y1="1236.7" x2="637.5" y2="1237.8"/>
	</g>
	<g>
		<path class="st8" d="M674.2,1222.1c0-2.7,4-4.9,8.9-4.9s8.9,2.2,8.9,4.9s-4,4.9-8.9,4.9S674.2,1224.8,674.2,1222.1z"/>
		<path class="st9" d="M674.2,1220.7c0-2.7,4-4.9,8.9-4.9s8.9,2.2,8.9,4.9s-4,4.9-8.9,4.9S674.2,1223.4,674.2,1220.7z"/>
		<polygon class="st10" points="678.9,1220.8 683.3,1218.9 687.3,1220.9 682.8,1222.7 		"/>
		<polygon class="st10" points="678.9,1220.3 683.3,1218.4 687.3,1220.4 682.8,1222.2 		"/>
		<polygon class="st10" points="678.8,1219.9 683.2,1218 687.2,1220 682.7,1221.8 		"/>
		<path class="st5" d="M674.2,1222.1"/>
		<path class="st5" d="M674.2,1219.4"/>
		<path class="st5" d="M691.9,1222.4"/>
		<path class="st5" d="M691.9,1219.2"/>
		<polygon class="st7" points="678.8,1219.6 683.2,1217.7 687.2,1219.8 682.7,1221.5 		"/>
		<line class="st11" x1="687.6" y1="1219.7" x2="687.6" y2="1220.9"/>
		<line class="st11" x1="678.5" y1="1219.7" x2="678.5" y2="1220.8"/>
	</g>
	<g>
		<path class="st8" d="M713.2,1207.1c0-2.7,4-4.9,8.9-4.9c4.9,0,8.9,2.2,8.9,4.9s-4,4.9-8.9,4.9
			C717.2,1212.1,713.2,1209.8,713.2,1207.1z"/>
		<path class="st9" d="M713.2,1205.7c0-2.7,4-4.9,8.9-4.9c4.9,0,8.9,2.2,8.9,4.9s-4,4.9-8.9,4.9
			C717.2,1210.6,713.2,1208.4,713.2,1205.7z"/>
		<polygon class="st10" points="717.9,1205.8 722.3,1203.9 726.3,1205.9 721.8,1207.7 		"/>
		<polygon class="st10" points="717.9,1205.3 722.3,1203.4 726.3,1205.4 721.8,1207.2 		"/>
		<polygon class="st10" points="717.8,1204.9 722.2,1203 726.2,1205 721.7,1206.8 		"/>
		<path class="st5" d="M713.2,1207.1"/>
		<path class="st5" d="M713.2,1204.4"/>
		<path class="st5" d="M730.9,1207.4"/>
		<path class="st5" d="M730.9,1204.2"/>
		<polygon class="st7" points="717.8,1204.6 722.2,1202.7 726.2,1204.8 721.7,1206.5 		"/>
		<line class="st11" x1="726.6" y1="1204.7" x2="726.6" y2="1205.9"/>
		<line class="st11" x1="717.5" y1="1204.7" x2="717.5" y2="1205.8"/>
	</g>
</g>
<g id="Abgrenzung">
	<g>
		<g>
			<path class="st12" d="M386.6,1114.2"/>
			<path class="st12" d="M352.7,1129.5"/>
			<g>
				<polygon class="st12" points="365.3,1135.2 396.1,1123.2 396.1,1069.1 365.7,1080.8 				"/>
				<polygon class="st12" points="357.3,1077.5 366,1080.8 396.4,1069.1 388.3,1065.6 				"/>
				<polygon class="st12" points="356.9,1131.9 365.3,1135.2 365.7,1080.8 356.9,1077.5 				"/>
			</g>
		</g>
		<g>
			<path class="st12" d="M432.3,1096.8"/>
			<path class="st12" d="M398.4,1112.1"/>
			<g>
				<polygon class="st12" points="410.9,1117.8 441.8,1105.8 441.8,1051.7 411.4,1063.4 				"/>
				<polygon class="st13" points="402.9,1060.1 411.7,1063.4 442.1,1051.7 434,1048.2 				"/>
				<polygon class="st12" points="402.6,1114.5 410.9,1117.8 411.4,1063.4 402.6,1060.1 				"/>
			</g>
		</g>
		<g>
			<path class="st12" d="M478,1079.4"/>
			<path class="st12" d="M444.1,1094.7"/>
			<g>
				<polygon class="st12" points="456.6,1100.4 487.5,1088.4 487.5,1034.3 457.1,1046 				"/>
				<polygon class="st13" points="448.6,1042.7 457.3,1046 487.8,1034.3 479.7,1030.8 				"/>
				<polygon class="st12" points="448.3,1097.1 456.6,1100.4 457.1,1046 448.3,1042.7 				"/>
			</g>
		</g>
		<g>
			<path class="st12" d="M522.6,1062"/>
			<path class="st12" d="M488.6,1077.3"/>
			<g>
				<polygon class="st12" points="501.2,1083 532.1,1071 532.1,1016.9 501.7,1028.6 				"/>
				<polygon class="st13" points="493.2,1025.3 501.9,1028.6 532.4,1016.9 524.3,1013.4 				"/>
				<polygon class="st12" points="492.9,1079.7 501.2,1083 501.7,1028.6 492.9,1025.3 				"/>
			</g>
		</g>
		<g>
			<path class="st12" d="M566.1,1045.7"/>
			<path class="st12" d="M532.2,1061"/>
			<g>
				<polygon class="st12" points="544.7,1066.7 575.6,1054.7 575.6,1000.6 545.2,1012.3 				"/>
				<polygon class="st13" points="536.7,1009 545.4,1012.3 575.9,1000.6 567.8,997.1 				"/>
				<polygon class="st12" points="536.4,1063.4 544.7,1066.7 545.2,1012.3 536.4,1009 				"/>
			</g>
		</g>
		<g>
			<path class="st12" d="M610.7,1028.3"/>
			<path class="st12" d="M576.8,1043.6"/>
			<g>
				<polygon class="st12" points="589.3,1049.3 620.2,1037.3 620.2,983.2 589.8,994.9 				"/>
				<polygon class="st13" points="581.3,991.6 590,994.9 620.5,983.2 612.4,979.7 				"/>
				<polygon class="st12" points="581,1046 589.3,1049.3 589.8,994.9 581,991.6 				"/>
			</g>
		</g>
		<g>
			<path class="st12" d="M654.2,1012"/>
			<path class="st12" d="M620.3,1027.3"/>
			<g>
				<polygon class="st12" points="632.8,1032.9 663.7,1021 663.7,966.9 633.3,978.5 				"/>
				<polygon class="st13" points="624.8,975.3 633.5,978.5 664,966.9 655.9,963.4 				"/>
				<polygon class="st12" points="624.5,1029.7 632.8,1032.9 633.3,978.5 624.5,975.3 				"/>
			</g>
		</g>
		<g>
			<path class="st12" d="M697.7,995.6"/>
			<path class="st12" d="M663.8,1010.9"/>
			<g>
				<polygon class="st12" points="676.3,1016.6 707.2,1004.7 707.2,950.6 676.8,962.2 				"/>
				<polygon class="st13" points="668.4,959 677.1,962.2 707.5,950.6 699.4,947.1 				"/>
				<polygon class="st12" points="668,1013.4 676.3,1016.6 676.8,962.2 668,959 				"/>
			</g>
		</g>
		<polygon class="st12" points="351.5,1091.3 365.8,1085.9 357.2,1082.3 348.8,1085.3 351.5,1086.6 		"/>
		<polygon class="st12" points="396.1,1074.4 411.3,1068.7 402.3,1064.9 393.4,1068.2 396.1,1069.4 		"/>
		<polygon class="st13" points="441.8,1057 456.9,1051.3 448.1,1047.5 439.2,1050.7 441.8,1052 		"/>
		<polygon class="st13" points="487.5,1039.1 501.8,1033.6 493.1,1030.1 484.8,1033.1 487.5,1034.3 		"/>
		<polygon class="st13" points="532.4,1022.3 545.4,1017.4 537.4,1014.1 530.9,1016.5 532.4,1017.2 		"/>
		<polygon class="st13" points="575.6,1005.3 589.9,999.9 581.3,996.3 572.9,999.4 575.6,1000.6 		"/>
		<polygon class="st13" points="620.5,988.1 633.7,983.2 625.4,980 618.7,982.4 620.5,983.4 		"/>
		<polygon class="st13" points="664.2,971.5 677.1,966.8 668.4,963.2 661.4,965.8 664.2,966.9 		"/>
		<g>
			<path class="st12" d="M342,1131.6"/>
			<path class="st12" d="M308.1,1146.9"/>
			<g>
				<polygon class="st12" points="320.7,1152.6 351.5,1140.6 351.5,1086.6 321.1,1098.2 				"/>
				<polygon class="st12" points="312.3,1149.3 320.7,1152.6 321.1,1098.2 312.3,1094.9 				"/>
				<polygon class="st12" points="312.7,1094.9 321.4,1098.2 351.8,1086.6 343.7,1083 				"/>
			</g>
		</g>
		<polyline class="st12" points="321.1,1103.4 320.8,1152.6 707.5,1004.7 707.3,955.5 		"/>
	</g>
	<g>
		<g>
			<path class="st12" d="M430.9,1130.7"/>
			<path class="st12" d="M397,1145.9"/>
			<g>
				<polygon class="st12" points="409.8,1151.6 440.7,1139.7 440.7,1085.9 410.3,1097.5 				"/>
				<polygon class="st12" points="401.6,1094.2 410.3,1097.5 440.7,1085.9 432.6,1082.4 				"/>
				<polygon class="st12" points="401.5,1148.3 409.7,1151.6 410.2,1097.5 401.5,1094.2 				"/>
			</g>
		</g>
		<g>
			<path class="st12" d="M476.5,1113.4"/>
			<path class="st12" d="M442.6,1128.6"/>
			<g>
				<polygon class="st12" points="455.4,1134.2 486.4,1122.3 486.4,1068.6 456,1080.2 				"/>
				<polygon class="st13" points="447.2,1076.9 455.9,1080.2 486.2,1068.6 478.2,1065.1 				"/>
				<polygon class="st12" points="447.2,1131 455.3,1134.2 455.9,1080.2 447.2,1076.9 				"/>
			</g>
		</g>
		<g>
			<path class="st12" d="M522.1,1096.1"/>
			<path class="st12" d="M488.2,1111.3"/>
			<g>
				<polygon class="st12" points="500.5,1116.9 531,1105 531,1051.3 500.8,1062.8 				"/>
				<polygon class="st13" points="492.8,1059.6 501.4,1062.8 531.8,1051.3 523.7,1047.8 				"/>
				<polygon class="st12" points="492.9,1113.7 501,1116.9 501.5,1062.8 492.9,1059.6 				"/>
			</g>
		</g>
		<g>
			<path class="st12" d="M566.6,1078.8"/>
			<path class="st12" d="M532.7,1094"/>
			<g>
				<polygon class="st12" points="545,1099.6 575.6,1087.7 575.6,1034 545.4,1045.5 				"/>
				<polygon class="st13" points="537.3,1042.3 545.9,1045.5 576.3,1034 568.2,1030.5 				"/>
				<polygon class="st12" points="536.4,1096.4 545,1099.6 545.3,1045.5 536.4,1042.3 				"/>
			</g>
		</g>
		<g>
			<path class="st12" d="M610,1062.5"/>
			<path class="st12" d="M576.1,1077.8"/>
			<g>
				<polygon class="st12" points="588.5,1083.4 619.1,1071.5 619.1,1017.7 588.9,1029.3 				"/>
				<polygon class="st13" points="580.7,1026.1 589.3,1029.3 619.7,1017.7 611.6,1014.2 				"/>
				<polygon class="st12" points="579.9,1080.2 588.4,1083.4 588.8,1029.3 579.9,1026.1 				"/>
			</g>
		</g>
		<g>
			<path class="st12" d="M654.5,1045.2"/>
			<path class="st12" d="M620.6,1060.5"/>
			<g>
				<polygon class="st12" points="633,1066.1 663.7,1054.2 663.7,1000.4 633.4,1012 				"/>
				<polygon class="st13" points="625.1,1008.8 633.8,1012 664.2,1000.4 656.1,996.9 				"/>
				<polygon class="st12" points="624.5,1062.8 633,1066.1 633.4,1012 624.5,1008.8 				"/>
			</g>
		</g>
		<g>
			<path class="st12" d="M697.9,1029"/>
			<path class="st12" d="M664,1044.2"/>
			<g>
				<polygon class="st12" points="676.5,1049.9 707.2,1038 707.2,984.2 676.9,995.8 				"/>
				<polygon class="st13" points="668.6,992.5 677.2,995.8 707.6,984.2 699.5,980.7 				"/>
				<polygon class="st12" points="668,1046.6 676.4,1049.9 676.8,995.8 668,992.5 				"/>
			</g>
		</g>
		<g>
			<path class="st12" d="M741.3,1012.8"/>
			<path class="st12" d="M707.4,1028"/>
			<g>
				<polygon class="st12" points="719.9,1033.6 750.7,1021.7 750.7,968 720.4,979.6 				"/>
				<polygon class="st13" points="712,976.3 720.6,979.6 751,968 742.9,964.5 				"/>
				<polygon class="st12" points="711.5,1030.4 719.9,1033.6 720.3,979.6 711.5,976.3 				"/>
			</g>
		</g>
		<polygon class="st12" points="396.1,1107.9 410.2,1102.5 401.6,1098.9 393.3,1102 396.1,1103.2 		"/>
		<polygon class="st12" points="440.7,1091.1 455.7,1085.4 446.6,1081.7 437.8,1084.9 440.7,1086.2 		"/>
		<polygon class="st13" points="486.4,1073.8 501.2,1068.1 492.3,1064.3 483.6,1067.5 486.4,1068.8 		"/>
		<polygon class="st13" points="531,1056 545.5,1050.6 537,1047 528.5,1050 531,1051.3 		"/>
		<polygon class="st13" points="576.3,1039.3 589.3,1034.4 581.3,1031.1 574.9,1033.5 576.3,1034.2 		"/>
		<polygon class="st13" points="619.1,1022.4 633.5,1017 625,1013.5 616.5,1016.5 619.1,1017.7 		"/>
		<polygon class="st13" points="664.2,1005.3 677.3,1000.5 669.1,997.3 662.4,999.6 664.2,1000.6 		"/>
		<polygon class="st13" points="707.8,988.7 720.6,984 712,980.5 705,983.1 707.9,984.2 		"/>
		<g>
			<path class="st12" d="M386.4,1148"/>
			<path class="st12" d="M352.6,1163.2"/>
			<g>
				<polygon class="st12" points="365.2,1168.9 396.1,1157 396.1,1103.2 365.7,1114.8 				"/>
				<polygon class="st12" points="356.9,1165.6 365.2,1168.9 365.7,1114.8 356.9,1111.5 				"/>
				<polygon class="st12" points="357.1,1111.5 365.8,1114.8 396.2,1103.2 388.1,1099.7 				"/>
			</g>
		</g>
		<polyline class="st12" points="365.6,1120 365.3,1168.9 751,1021.7 750.8,972.9 		"/>
	</g>
	<g>
		<path class="st12" d="M460.4,1113.1"/>
		<path class="st12" d="M494.3,1128.4"/>
		<g>
			<polygon class="st12" points="481.5,1134.1 450.5,1122.1 450.5,1068.1 481,1079.7 			"/>
			<polygon class="st13" points="489.7,1076.4 481,1079.7 450.6,1068.1 458.7,1064.5 			"/>
			<polygon class="st12" points="489.6,1130.8 481.5,1134.1 481,1079.7 489.6,1076.4 			"/>
		</g>
	</g>
	<g>
		<path class="st12" d="M414.7,1095.7"/>
		<path class="st12" d="M448.6,1111"/>
		<g>
			<polygon class="st12" points="435.8,1116.7 404.8,1104.7 404.8,1050.7 435.3,1062.3 			"/>
			<polygon class="st13" points="444.1,1059 435.3,1062.3 404.9,1050.7 413,1047.1 			"/>
			<polygon class="st12" points="443.9,1113.4 435.8,1116.7 435.3,1062.3 443.9,1059 			"/>
		</g>
	</g>
	<g>
		<path class="st12" d="M369,1078.3"/>
		<path class="st12" d="M402.9,1093.6"/>
		<g>
			<polygon class="st12" points="390.2,1099.3 359.1,1087.3 359.1,1033.3 389.6,1044.9 			"/>
			<polygon class="st13" points="398.4,1041.6 389.7,1044.9 359.2,1033.3 367.3,1029.7 			"/>
			<polygon class="st12" points="398.3,1096 390.2,1099.3 389.6,1044.9 398.3,1041.6 			"/>
		</g>
	</g>
	<g>
		<path class="st12" d="M324.4,1060.9"/>
		<path class="st12" d="M358.4,1076.2"/>
		<g>
			<polygon class="st12" points="345.6,1081.9 314.5,1069.9 314.5,1015.9 345,1027.5 			"/>
			<polygon class="st13" points="353.8,1024.2 345.1,1027.5 314.6,1015.9 322.7,1012.3 			"/>
			<polygon class="st12" points="353.7,1078.6 345.6,1081.9 345,1027.5 353.7,1024.2 			"/>
		</g>
	</g>
	<g>
		<path class="st12" d="M280.9,1044.6"/>
		<path class="st12" d="M314.8,1059.9"/>
		<g>
			<polygon class="st12" points="302.1,1065.6 271,1053.6 271,999.5 301.5,1011.2 			"/>
			<polygon class="st13" points="310.3,1007.9 301.6,1011.2 271.1,999.5 279.2,996 			"/>
			<polygon class="st12" points="310.2,1062.3 302.1,1065.6 301.5,1011.2 310.2,1007.9 			"/>
		</g>
	</g>
	<g>
		<path class="st12" d="M236.3,1027.2"/>
		<path class="st12" d="M270.2,1042.5"/>
		<g>
			<polygon class="st12" points="257.5,1048.2 226.4,1036.2 226.4,982.1 256.9,993.8 			"/>
			<polygon class="st13" points="265.7,990.5 257,993.8 226.5,982.1 234.6,978.6 			"/>
			<polygon class="st12" points="265.6,1044.9 257.5,1048.2 256.9,993.8 265.6,990.5 			"/>
		</g>
	</g>
	<g>
		<path class="st12" d="M192.8,1010.9"/>
		<path class="st12" d="M226.7,1026.2"/>
		<g>
			<polygon class="st12" points="213.9,1031.8 182.9,1019.9 182.9,965.8 213.4,977.5 			"/>
			<polygon class="st13" points="222.2,974.2 213.5,977.5 183,965.8 191.1,962.3 			"/>
			<polygon class="st12" points="222.1,1028.6 213.9,1031.8 213.4,977.5 222.1,974.2 			"/>
		</g>
	</g>
	<g>
		<path class="st12" d="M149.3,994.6"/>
		<path class="st12" d="M183.2,1009.9"/>
		<g>
			<polygon class="st12" points="170.4,1015.5 139.4,1003.6 139.4,949.5 169.9,961.1 			"/>
			<polygon class="st13" points="178.6,957.9 169.9,961.1 139.5,949.5 147.6,946 			"/>
			<polygon class="st12" points="178.5,1012.3 170.4,1015.5 169.9,961.1 178.5,957.9 			"/>
		</g>
	</g>
	<polygon class="st13" points="495.1,1090.2 481,1084.8 489.7,1081.2 497.9,1084.2 495.1,1085.5 	"/>
	<polygon class="st13" points="450.5,1073.3 435.5,1067.6 444.6,1063.9 453.4,1067.1 450.5,1068.4 	"/>
	<polygon class="st13" points="404.8,1055.9 389.9,1050.2 398.8,1046.4 407.6,1049.6 404.8,1050.9 	"/>
	<polygon class="st13" points="359.1,1038 345,1032.6 353.7,1029 362,1032 359.1,1033.3 	"/>
	<polygon class="st13" points="314.6,1021.2 301.6,1016.3 309.6,1013 316.1,1015.4 314.6,1016.1 	"/>
	<polygon class="st13" points="271,1004.3 256.9,998.8 265.6,995.3 273.9,998.3 271,999.5 	"/>
	<polygon class="st13" points="226.5,987 213.3,982.2 221.6,978.9 228.3,981.3 226.5,982.3 	"/>
	<polygon class="st13" points="182.8,970.4 169.9,965.7 178.6,962.1 185.6,964.7 182.8,965.8 	"/>
	<path class="st12" d="M505,1130.5"/>
	<path class="st12" d="M537,1144.3"/>
	<polyline class="st12" points="525.9,1102.4 526.2,1151.5 139.5,1003.6 139.7,954.4 	"/>
	<g>
		<g>
			<path class="st12" d="M433.4,1097.9"/>
			<path class="st12" d="M399.5,1113.2"/>
			<g>
				<polygon class="st12" points="412,1118.9 425.5,1113.4 425.5,1059.4 412.5,1064.5 				"/>
				<polygon class="st13" points="404,1061.2 412.7,1064.5 425.8,1059 417.7,1055.8 				"/>
				<polygon class="st12" points="403.7,1115.6 412,1118.9 412.5,1064.5 403.7,1061.2 				"/>
			</g>
		</g>
		<polygon class="st13" points="398.3,1075 412.6,1069.5 404,1066 395.6,1069 398.3,1070.2 		"/>
		<g>
			<path class="st12" d="M386.6,1116.4"/>
			<path class="st12" d="M354.9,1130.6"/>
			<g>
				<polygon class="st12" points="384.8,1129.7 398.3,1124.3 398.3,1070.2 385.3,1075.4 				"/>
				<polygon class="st12" points="376.5,1126.5 384.8,1129.7 385.3,1075.4 376.5,1072.1 				"/>
				<polygon class="st13" points="376.8,1072.1 385.5,1075.4 398.6,1070.2 390.5,1066.7 				"/>
			</g>
		</g>
		<polyline class="st12" points="385.3,1080.6 385,1129.7 425.8,1113.4 425.5,1064.3 		"/>
	</g>
	<g>
		<g>
			<path class="st12" d="M478,1114.2"/>
			<path class="st12" d="M444.1,1129.5"/>
			<g>
				<polygon class="st12" points="456.6,1135.2 470.1,1129.7 470.1,1075.7 457.1,1080.8 				"/>
				<polygon class="st13" points="448.6,1077.5 457.3,1080.8 470.4,1075.7 462,1072.4 				"/>
				<polygon class="st12" points="448.3,1131.9 456.6,1135.2 457.1,1080.8 448.3,1077.5 				"/>
			</g>
		</g>
		<polygon class="st13" points="442.9,1091.1 457.2,1085.6 448.6,1082.4 440.5,1085.4 442.9,1086.3 		"/>
		<g>
			<path class="st12" d="M431.2,1132.7"/>
			<path class="st12" d="M399.5,1146.9"/>
			<g>
				<polygon class="st12" points="429.4,1146.1 442.9,1140.6 442.9,1086.6 429.9,1091.7 				"/>
				<polygon class="st12" points="421.1,1142.8 429.4,1146.1 429.9,1091.7 421.1,1088.4 				"/>
				<polygon class="st13" points="420.6,1088.8 429.3,1092.1 443.2,1086.6 435.1,1083 				"/>
			</g>
		</g>
		<polyline class="st12" points="429.9,1096.9 429.6,1146.1 470.4,1129.7 470.1,1080.6 		"/>
	</g>
	<g>
		<path class="st12" d="M409.2,1132.7"/>
		<path class="st12" d="M443.2,1148"/>
		<g>
			<polygon class="st12" points="430.4,1153.7 399.4,1141.7 399.4,1087.6 429.8,1099.3 			"/>
			<polygon class="st13" points="438.6,1096 429.9,1099.3 399.5,1087.6 407.6,1084.1 			"/>
			<polygon class="st12" points="438.5,1150.4 430.4,1153.7 429.8,1099.3 438.5,1096 			"/>
		</g>
	</g>
	<g>
		<path class="st12" d="M363.5,1115.3"/>
		<path class="st12" d="M397.5,1130.6"/>
		<g>
			<polygon class="st12" points="384.7,1136.3 353.7,1124.3 353.7,1070.2 384.2,1081.9 			"/>
			<polygon class="st13" points="392.9,1078.6 384.2,1081.9 353.8,1070.2 361.9,1066.7 			"/>
			<polygon class="st12" points="392.8,1133 384.7,1136.3 384.2,1081.9 392.8,1078.6 			"/>
		</g>
	</g>
	<g>
		<path class="st12" d="M317.9,1097.9"/>
		<path class="st12" d="M351.8,1113.2"/>
		<g>
			<polygon class="st12" points="339,1118.9 308,1106.9 308,1052.8 338.5,1064.5 			"/>
			<polygon class="st13" points="347.2,1061.2 338.5,1064.5 308.1,1052.8 316.2,1049.3 			"/>
			<polygon class="st12" points="347.1,1115.6 339,1118.9 338.5,1064.5 347.1,1061.2 			"/>
		</g>
	</g>
	<g>
		<path class="st12" d="M273.3,1080.5"/>
		<path class="st12" d="M307.2,1095.8"/>
		<g>
			<polygon class="st12" points="294.4,1101.5 263.4,1089.5 263.4,1035.4 293.9,1047.1 			"/>
			<polygon class="st13" points="302.6,1043.8 293.9,1047.1 263.5,1035.4 271.6,1031.9 			"/>
			<polygon class="st12" points="302.5,1098.2 294.4,1101.5 293.9,1047.1 302.5,1043.8 			"/>
		</g>
	</g>
	<g>
		<path class="st12" d="M229.8,1064.2"/>
		<path class="st12" d="M263.7,1079.5"/>
		<g>
			<polygon class="st12" points="250.9,1085.1 219.9,1073.2 219.9,1019.1 250.4,1030.8 			"/>
			<polygon class="st13" points="259.1,1027.5 250.4,1030.8 220,1019.1 228.1,1015.6 			"/>
			<polygon class="st12" points="259,1081.9 250.9,1085.1 250.4,1030.8 259,1027.5 			"/>
		</g>
	</g>
	<g>
		<path class="st12" d="M185.2,1046.8"/>
		<path class="st12" d="M219.1,1062.1"/>
		<g>
			<polygon class="st12" points="206.3,1067.7 175.3,1055.8 175.3,1001.7 205.8,1013.4 			"/>
			<polygon class="st13" points="214.5,1010.1 205.8,1013.4 175.4,1001.7 183.5,998.2 			"/>
			<polygon class="st12" points="214.4,1064.5 206.3,1067.7 205.8,1013.4 214.4,1010.1 			"/>
		</g>
	</g>
	<g>
		<path class="st12" d="M141.7,1030.5"/>
		<path class="st12" d="M175.6,1045.8"/>
		<g>
			<polygon class="st12" points="162.8,1051.4 131.8,1039.5 131.8,985.4 162.3,997 			"/>
			<polygon class="st13" points="171,993.8 162.3,997 131.9,985.4 140,981.9 			"/>
			<polygon class="st12" points="170.9,1048.2 162.8,1051.4 162.3,997 170.9,993.8 			"/>
		</g>
	</g>
	<g>
		<path class="st12" d="M98.1,1014.1"/>
		<path class="st12" d="M132.1,1029.4"/>
		<g>
			<polygon class="st12" points="119.3,1035.1 88.3,1023.1 88.3,969.1 118.7,980.7 			"/>
			<polygon class="st13" points="127.5,977.5 118.8,980.7 88.4,969.1 96.5,965.6 			"/>
			<polygon class="st12" points="127.4,1031.8 119.3,1035.1 118.7,980.7 127.4,977.5 			"/>
		</g>
	</g>
	<polygon class="st13" points="443.9,1109.8 429.9,1104.4 438.6,1100.8 446.8,1103.8 443.9,1105 	"/>
	<polygon class="st13" points="399.4,1092.5 384.3,1086.8 393.5,1083.4 402.3,1086.6 399.4,1087.9 	"/>
	<polygon class="st13" points="353.7,1075.2 338.8,1069.5 347.7,1066 356.4,1069.2 353.7,1070.5 	"/>
	<polygon class="st13" points="308,1057.6 293.9,1052.1 302.6,1048.6 310.8,1051.6 308,1052.8 	"/>
	<polygon class="st13" points="263.5,1040.8 250.4,1035.9 258.5,1032.6 264.9,1035 263.5,1035.7 	"/>
	<polygon class="st13" points="219.9,1023.8 205.8,1018.4 214.5,1014.8 222.7,1017.9 219.9,1019.1 	"/>
	<polygon class="st13" points="175.4,1006.6 162.2,1001.7 170.5,998.5 177.2,1000.9 175.4,1001.9 	"/>
	<polygon class="st13" points="131.7,990 118.8,985.2 127.5,981.7 134.5,984.2 131.6,985.4 	"/>
	<path class="st12" d="M453.5,1148.5"/>
	<path class="st12" d="M486.8,1163.5"/>
	<polygon class="st12" points="534.2,1148.2 526.1,1151.5 525.6,1097.1 534.2,1093.8 	"/>
	<polygon class="st12" points="483.1,1167.8 475,1171.1 474.4,1116.7 483.1,1113.4 	"/>
	<polyline class="st12" points="474.8,1121.9 475.1,1171.1 88.4,1023.1 88.6,974 	"/>
	<g>
		<g>
			<path class="st12" d="M405.1,1106.6"/>
			<path class="st12" d="M351.6,1129.5"/>
			<g>
				<polygon class="st12" points="364.2,1135.2 373.2,1131.9 373.2,1077.9 364.6,1080.8 				"/>
				<polygon class="st13" points="356.2,1077.5 364.9,1080.8 373.6,1077.9 365,1074.6 				"/>
				<polygon class="st12" points="355.8,1131.9 364.2,1135.2 364.6,1080.8 355.8,1077.5 				"/>
			</g>
		</g>
		<polygon class="st13" points="350.4,1091.3 364.7,1085.9 356.1,1082.3 347.7,1085.3 350.4,1086.6 		"/>
		<g>
			<path class="st12" d="M341,1131.6"/>
			<path class="st12" d="M307,1146.9"/>
			<g>
				<polygon class="st12" points="319.6,1152.6 350.4,1140.6 350.4,1086.6 320,1098.2 				"/>
				<polygon class="st12" points="311.2,1149.3 319.6,1152.6 320,1098.2 311.2,1094.9 				"/>
				<polygon class="st13" points="311.6,1094.9 320.3,1098.2 349.6,1086.6 341.8,1083.2 				"/>
			</g>
		</g>
		<polyline class="st12" points="320,1103.4 319.7,1152.6 373.6,1131.9 373.3,1082.8 		"/>
	</g>
	<g>
		<g>
			<path class="st12" d="M450.8,1124"/>
			<path class="st12" d="M397.3,1146.9"/>
			<g>
				<polygon class="st12" points="409.9,1152.6 418.9,1149.3 418.9,1095.3 410.3,1098.2 				"/>
				<polygon class="st13" points="402,1094.8 410.6,1098.1 419.3,1095.3 411.3,1092.1 				"/>
				<polygon class="st12" points="401.6,1149.3 409.9,1152.6 410.3,1098.2 402,1095.1 				"/>
			</g>
		</g>
		<polygon class="st13" points="396.1,1108.7 410.4,1103.3 401.8,1099.7 393.4,1102.7 396.1,1104 		"/>
		<g>
			<path class="st12" d="M386.6,1149"/>
			<path class="st12" d="M352.7,1164.3"/>
			<g>
				<polygon class="st12" points="365.3,1170 396.1,1158 396.1,1104 365.7,1115.6 				"/>
				<polygon class="st12" points="357,1166.7 365.3,1170 365.8,1115.6 357.4,1112.9 				"/>
				<polygon class="st13" points="357.4,1112.7 366,1115.6 396.1,1104.2 388.1,1101 				"/>
			</g>
		</g>
		<polyline class="st12" points="365.7,1120.8 365.4,1170 419.3,1149.3 419,1100.2 		"/>
	</g>
	<g class="st14">
		<polygon class="st7" points="390.7,1125.1 375.9,1119.6 763.2,972.5 779.5,978.7 		"/>
		<polygon class="st7" points="390.7,1125.1 390.7,1128.9 375.9,1123.3 375.9,1119.6 		"/>
		<polygon class="st7" points="390.7,1128.9 779.5,982.3 779.5,978.7 390.7,1125.1 		"/>
	</g>
	<polygon class="st13" points="483.2,1113.4 474.5,1116.7 444.1,1105 452.2,1101.5 	"/>
	<polygon class="st12" points="475,1171.1 443.9,1159.1 443.9,1105 474.4,1116.7 	"/>
	<polyline class="st15" points="473.1,1128.1 473.4,1170 442.6,1158.1 443.2,1109.8 	"/>
	<polygon class="st12" points="526.1,1151.5 495.1,1139.5 495.1,1085.5 525.6,1097.1 	"/>
	<polygon class="st13" points="534.3,1093.8 525.6,1097.1 495.2,1085.5 503.3,1081.9 	"/>
	<polyline class="st15" points="524.6,1108.6 524.9,1150.6 494.1,1138.7 494.3,1090.2 	"/>
</g>
<g id="Sensor">
	<polygon class="st16" points="350.2,926.7 736.4,780.8 736.4,777.3 350.2,922.9 	"/>
	<polygon class="st16" points="393,942.9 779.2,797.1 779.2,793.5 393,939.1 	"/>
	<g>
		<polygon class="st16" points="449.3,940.2 449.3,944 463.7,938.4 463.7,934.9 		"/>
		<polygon class="st16" points="449.3,944 63,798.1 63,794.6 449.3,940.2 		"/>
		<polygon class="st17" points="449.3,940.2 463.7,934.9 78.8,788.6 63,794.6 		"/>
	</g>
	<g>
		<polygon class="st17" points="491.2,922.1 505.6,916.8 120.7,770.5 104.9,776.5 		"/>
		<polygon class="st16" points="491.2,922.1 491.2,925.9 505.6,920.3 505.6,916.8 		"/>
		<polygon class="st16" points="491.2,925.9 104.9,780 104.9,776.5 491.2,922.1 		"/>
	</g>
	<path class="st18" d="M435.3,912.3"/>
	<path class="st18" d="M434.5,1095"/>
	<path class="st18" d="M449,938.2"/>
	<path class="st18" d="M447.5,1100.3"/>
	<polygon class="st17" points="393,939.1 378.5,933.8 763.4,787.5 779.2,793.5 	"/>
	<polygon class="st16" points="393,939.1 393,942.9 378.5,937.4 378.5,933.8 	"/>
	<polygon class="st16" points="393,942.9 420.1,932.8 420.1,929.3 393,939.1 	"/>
	<polygon class="st16" points="350.2,926.7 377.3,916.6 377.3,913 350.2,922.9 	"/>
	<polygon class="st16" points="439.1,925.5 465.3,915.8 465.3,912.3 434.1,923.6 	"/>
	<polygon class="st16" points="396.5,909 421.9,899.6 421.9,896.1 391.5,907.1 	"/>
	<polygon class="st17" points="350.2,922.9 335.8,917.6 720.6,771.3 736.4,777.3 	"/>
	<polygon class="st16" points="350.2,922.9 350.2,926.7 335.8,921.1 335.8,917.6 	"/>
</g>
<g id="Vivak">
	<path class="st19" d="M533.2,321.7"/>
	<g>
		<polygon class="st20" points="422.3,481.7 61.2,622.1 422.3,760.3 783.3,622.1 		"/>
		<path d="M422.3,760.7l-0.1-0.1L60.2,622.1l0.9-0.3l361.2-140.4l0.1,0.1l361.9,140.7L422.3,760.7z M62.3,622.1l360,137.9l360-137.9
			l-360-140L62.3,622.1z"/>
	</g>
	<path class="st19" d="M102.6,1136.9"/>
</g>
<g id="Transparentpapier">
	<g>
		<polygon class="st21" points="421.8,275.8 60.7,416.2 356.3,529.4 421.8,554.5 489.2,528.6 782.8,416.2 		"/>
		<path class="st5" d="M352.3,527.9c23.7,3.4,49.5,4.6,69.6-11.8c0,0,25,20.9,68.5,12.1"/>
		<path class="st5" d="M352.3,527.9c44.1,8.8,69.6-5.5,69.6-5.5s25,14.6,68.5,5.8"/>
		<path class="st5" d="M352.3,527.9c44.1,8.8,69.6,0.8,69.6,0.8s25,8.3,68.5-0.5"/>
		<path class="st5" d="M352.3,527.9c44.1,8.8,69.6,7.1,69.6,7.1s25,2,68.5-6.8"/>
		<path class="st5" d="M352.3,527.9c44.1,8.8,69.6,13.4,69.6,13.4s25-4.3,68.5-13.1"/>
		<path class="st5" d="M352.3,527.9c44.1,11.3,69.6,21,69.6,21s25.6-9.3,68.5-20.7"/>
	</g>
</g>
<g id="Plexi">
	<g>
		<g>
			<g>
				<g>
					<g>
						<polyline class="st22" points="376.5,102.2 376.5,109.6 420.9,126.8 465.3,109.7 465.3,102.2 						"/>
						<line class="st5" x1="420.9" y1="126.8" x2="420.9" y2="119.1"/>
						<polygon class="st22" points="420.9,85.1 377,102.2 420.9,119 464.7,102.2 						"/>
					</g>
					<g>
						<polyline class="st23" points="420.7,119.4 420.7,126.8 465.1,144 509.5,127 509.5,119.4 						"/>
						<line class="st5" x1="465.1" y1="144" x2="465.1" y2="136.3"/>
						<polygon class="st23" points="465.1,102.4 421.2,119.4 465.1,136.2 508.9,119.4 						"/>
					</g>
					<g>
						<polyline class="st23" points="332,119.1 332,126.6 376.3,143.7 420.7,126.7 420.7,119.2 						"/>
						<line class="st5" x1="376.3" y1="143.7" x2="376.3" y2="136"/>
						<polygon class="st23" points="376.3,102.1 332.5,119.1 376.3,135.9 420.2,119.1 						"/>
					</g>
					<g>
						<polyline class="st22" points="376.5,136.3 376.5,143.7 420.9,160.9 465.3,143.9 465.3,136.3 						"/>
						<line class="st5" x1="420.9" y1="160.9" x2="420.9" y2="153.2"/>
						<polygon class="st22" points="420.9,119.2 377,136.3 420.9,153.1 464.7,136.3 						"/>
					</g>
				</g>
				<g>
					<g>
						<polyline class="st22" points="465.5,136.5 465.5,144 509.9,161.1 554.3,144.1 554.3,136.6 						"/>
						<line class="st5" x1="509.9" y1="161.1" x2="509.9" y2="153.4"/>
						<polygon class="st22" points="509.9,119.5 466,136.5 509.9,153.3 553.7,136.5 						"/>
					</g>
					<g>
						<polyline class="st23" points="509.7,153.8 509.7,161.2 554.1,178.4 598.5,161.3 598.5,153.8 						"/>
						<line class="st5" x1="554.1" y1="178.4" x2="554.1" y2="170.7"/>
						<polygon class="st23" points="554.1,136.7 510.2,153.8 554.1,170.6 597.9,153.8 						"/>
					</g>
					<g>
						<polyline class="st23" points="421,153.5 421,160.9 465.3,178.1 509.7,161 509.7,153.5 						"/>
						<line class="st5" x1="465.3" y1="178.1" x2="465.3" y2="170.4"/>
						<polygon class="st23" points="465.3,136.4 421.5,153.5 465.3,170.3 509.2,153.5 						"/>
					</g>
					<g>
						<polyline class="st22" points="465.5,170.6 465.5,178.1 509.9,195.2 554.3,178.2 554.3,170.7 						"/>
						<line class="st5" x1="509.9" y1="195.2" x2="509.9" y2="187.6"/>
						<polygon class="st22" points="509.9,153.6 466,170.6 509.9,187.4 553.7,170.6 						"/>
					</g>
				</g>
			</g>
			<g>
				<polyline class="st22" points="554.3,170.7 554.3,178.2 598.6,195.4 643,178.3 643,170.8 				"/>
				<line class="st5" x1="598.6" y1="195.4" x2="598.6" y2="187.7"/>
				<polygon class="st22" points="598.6,153.7 554.8,170.8 598.6,187.5 642.5,170.8 				"/>
			</g>
			<g>
				<polyline class="st23" points="598.5,188 598.5,195.4 642.8,212.6 687.2,195.5 687.2,188 				"/>
				<line class="st5" x1="642.8" y1="212.6" x2="642.8" y2="204.9"/>
				<polygon class="st23" points="642.8,170.9 599,188 642.8,204.8 686.7,188 				"/>
			</g>
			<g>
				<polyline class="st23" points="509.7,187.7 509.7,195.1 554.1,212.3 598.5,195.3 598.5,187.7 				"/>
				<line class="st5" x1="554.1" y1="212.3" x2="554.1" y2="204.6"/>
				<polygon class="st23" points="554.1,170.7 510.2,187.7 554.1,204.5 597.9,187.7 				"/>
			</g>
			<g>
				<polyline class="st22" points="554.3,204.9 554.3,212.3 598.6,229.5 643,212.4 643,204.9 				"/>
				<line class="st5" x1="598.6" y1="229.5" x2="598.6" y2="221.8"/>
				<polygon class="st22" points="598.6,187.8 554.8,204.9 598.6,221.7 642.5,204.9 				"/>
			</g>
			<g>
				<g>
					<polyline class="st22" points="643.3,205.1 643.3,212.5 687.6,229.7 732,212.7 732,205.1 					"/>
					<line class="st5" x1="687.6" y1="229.7" x2="687.6" y2="222"/>
					<polygon class="st22" points="687.6,188.1 643.8,205.1 687.6,221.9 731.5,205.1 					"/>
				</g>
				<g>
					<polyline class="st23" points="687.5,222.3 687.5,229.8 731.8,246.9 776.2,229.9 776.2,222.4 					"/>
					<line class="st5" x1="731.8" y1="246.9" x2="731.8" y2="239.2"/>
					<polygon class="st23" points="731.8,205.3 688,222.3 731.8,239.1 775.7,222.3 					"/>
				</g>
				<g>
					<polyline class="st23" points="598.7,222 598.7,229.5 643.1,246.7 687.5,229.6 687.5,222.1 					"/>
					<line class="st5" x1="643.1" y1="246.7" x2="643.1" y2="239"/>
					<polygon class="st23" points="643.1,205 599.3,222.1 643.1,238.9 686.9,222.1 					"/>
				</g>
				<g>
					<polyline class="st22" points="643.3,239.2 643.3,246.7 687.6,263.8 732,246.8 732,239.3 					"/>
					<line class="st5" x1="687.6" y1="263.8" x2="687.6" y2="256.1"/>
					<polygon class="st22" points="687.6,222.2 643.8,239.2 687.6,256 731.5,239.2 					"/>
				</g>
			</g>
		</g>
		<g>
			<g>
				<g>
					<g>
						<polyline class="st22" points="287.8,136.2 287.8,143.6 332.2,160.8 376.6,143.8 376.6,136.2 						"/>
						<line class="st5" x1="332.2" y1="160.8" x2="332.2" y2="153.1"/>
						<polygon class="st22" points="332.2,119.2 288.3,136.2 332.2,153 376,136.2 						"/>
					</g>
					<g>
						<polyline class="st23" points="332,153.4 332,160.9 376.4,178 420.8,161 420.8,153.5 						"/>
						<line class="st5" x1="376.4" y1="178" x2="376.4" y2="170.3"/>
						<polygon class="st23" points="376.4,136.4 332.5,153.4 376.4,170.2 420.2,153.4 						"/>
					</g>
					<g>
						<polyline class="st23" points="243.3,153.1 243.3,160.6 287.6,177.7 332,160.7 332,153.2 						"/>
						<line class="st5" x1="287.6" y1="177.7" x2="287.6" y2="170.1"/>
						<polygon class="st23" points="287.6,136.1 243.8,153.2 287.6,169.9 331.5,153.2 						"/>
					</g>
					<g>
						<polyline class="st22" points="287.8,170.3 287.8,177.8 332.2,194.9 376.6,177.9 376.6,170.4 						"/>
						<line class="st5" x1="332.2" y1="194.9" x2="332.2" y2="187.2"/>
						<polygon class="st22" points="332.2,153.3 288.3,170.3 332.2,187.1 376,170.3 						"/>
					</g>
				</g>
				<g>
					<g>
						<polyline class="st22" points="376.8,170.6 376.8,178 421.2,195.2 465.6,178.1 465.6,170.6 						"/>
						<line class="st5" x1="421.2" y1="195.2" x2="421.2" y2="187.5"/>
						<polygon class="st22" points="421.2,153.5 377.3,170.6 421.2,187.4 465,170.6 						"/>
					</g>
					<g>
						<polyline class="st23" points="421,187.8 421,195.2 465.4,212.4 509.8,195.4 509.8,187.8 						"/>
						<line class="st5" x1="465.4" y1="212.4" x2="465.4" y2="204.7"/>
						<polygon class="st23" points="465.4,170.7 421.5,187.8 465.4,204.6 509.2,187.8 						"/>
					</g>
					<g>
						<polyline class="st23" points="332.3,187.5 332.3,194.9 376.6,212.1 421,195.1 421,187.5 						"/>
						<line class="st5" x1="376.6" y1="212.1" x2="376.6" y2="204.4"/>
						<polygon class="st23" points="376.6,170.5 332.8,187.5 376.6,204.3 420.5,187.5 						"/>
					</g>
					<g>
						<polyline class="st22" points="376.8,204.7 376.8,212.1 421.2,229.3 465.6,212.2 465.6,204.7 						"/>
						<line class="st5" x1="421.2" y1="229.3" x2="421.2" y2="221.6"/>
						<polygon class="st22" points="421.2,187.6 377.3,204.7 421.2,221.5 465,204.7 						"/>
					</g>
				</g>
			</g>
			<g>
				<polyline class="st22" points="465.6,204.8 465.6,212.2 509.9,229.4 554.3,212.3 554.3,204.8 				"/>
				<line class="st5" x1="509.9" y1="229.4" x2="509.9" y2="221.7"/>
				<polygon class="st22" points="509.9,187.7 466.1,204.8 509.9,221.6 553.8,204.8 				"/>
			</g>
			<g>
				<polyline class="st23" points="509.7,222 509.7,229.4 554.1,246.6 598.5,229.6 598.5,222 				"/>
				<line class="st5" x1="554.1" y1="246.6" x2="554.1" y2="238.9"/>
				<polygon class="st23" points="554.1,205 510.3,222 554.1,238.8 598,222 				"/>
			</g>
			<g>
				<polyline class="st23" points="421,221.7 421,229.2 465.4,246.3 509.8,229.3 509.8,221.8 				"/>
				<line class="st5" x1="465.4" y1="246.3" x2="465.4" y2="238.6"/>
				<polygon class="st23" points="465.4,204.7 421.5,221.7 465.4,238.5 509.2,221.7 				"/>
			</g>
			<g>
				<polyline class="st22" points="465.6,238.9 465.6,246.3 509.9,263.5 554.3,246.5 554.3,238.9 				"/>
				<line class="st5" x1="509.9" y1="263.5" x2="509.9" y2="255.8"/>
				<polygon class="st22" points="509.9,221.8 466.1,238.9 509.9,255.7 553.8,238.9 				"/>
			</g>
			<g>
				<g>
					<polyline class="st22" points="554.6,239.1 554.6,246.6 598.9,263.7 643.3,246.7 643.3,239.2 					"/>
					<line class="st5" x1="598.9" y1="263.7" x2="598.9" y2="256.1"/>
					<polygon class="st22" points="598.9,222.1 555.1,239.1 598.9,255.9 642.8,239.1 					"/>
				</g>
				<g>
					<polyline class="st23" points="598.7,256.4 598.7,263.8 643.1,281 687.5,263.9 687.5,256.4 					"/>
					<line class="st5" x1="643.1" y1="281" x2="643.1" y2="273.3"/>
					<polygon class="st23" points="643.1,239.3 599.3,256.4 643.1,273.2 687,256.4 					"/>
				</g>
				<g>
					<polyline class="st23" points="510,256.1 510,263.5 554.4,280.7 598.8,263.7 598.8,256.1 					"/>
					<line class="st5" x1="554.4" y1="280.7" x2="554.4" y2="273"/>
					<polygon class="st23" points="554.4,239 510.5,256.1 554.4,272.9 598.2,256.1 					"/>
				</g>
				<g>
					<polyline class="st22" points="554.6,273.2 554.6,280.7 598.9,297.9 643.3,280.8 643.3,273.3 					"/>
					<line class="st5" x1="598.9" y1="297.9" x2="598.9" y2="290.2"/>
					<polygon class="st22" points="598.9,256.2 555.1,273.3 598.9,290 642.8,273.3 					"/>
				</g>
			</g>
		</g>
	</g>
	<g>
		<g>
			<g>
				<g>
					<g>
						<polyline class="st22" points="199.4,169.9 199.4,177.4 243.8,194.6 288.2,177.5 288.2,170 						"/>
						<line class="st5" x1="243.8" y1="194.6" x2="243.8" y2="186.9"/>
						<polygon class="st22" points="243.8,152.9 199.9,170 243.8,186.8 287.6,170 						"/>
					</g>
					<g>
						<polyline class="st23" points="243.6,187.2 243.6,194.6 288,211.8 332.4,194.8 332.4,187.2 						"/>
						<line class="st5" x1="288" y1="211.8" x2="288" y2="204.1"/>
						<polygon class="st23" points="288,170.1 244.1,187.2 288,204 331.8,187.2 						"/>
					</g>
					<g>
						<polyline class="st23" points="154.9,186.9 154.9,194.3 199.2,211.5 243.6,194.5 243.6,186.9 						"/>
						<line class="st5" x1="199.2" y1="211.5" x2="199.2" y2="203.8"/>
						<polygon class="st23" points="199.2,169.9 155.4,186.9 199.2,203.7 243.1,186.9 						"/>
					</g>
					<g>
						<polyline class="st22" points="199.4,204.1 199.4,211.5 243.8,228.7 288.2,211.6 288.2,204.1 						"/>
						<line class="st5" x1="243.8" y1="228.7" x2="243.8" y2="221"/>
						<polygon class="st22" points="243.8,187 199.9,204.1 243.8,220.9 287.6,204.1 						"/>
					</g>
				</g>
				<g>
					<g>
						<polyline class="st22" points="288.4,204.3 288.4,211.8 332.8,228.9 377.2,211.9 377.2,204.3 						"/>
						<line class="st5" x1="332.8" y1="228.9" x2="332.8" y2="221.2"/>
						<polygon class="st22" points="332.8,187.3 288.9,204.3 332.8,221.1 376.6,204.3 						"/>
					</g>
					<g>
						<polyline class="st23" points="332.6,221.5 332.6,229 377,246.1 421.4,229.1 421.4,221.6 						"/>
						<line class="st5" x1="377" y1="246.1" x2="377" y2="238.4"/>
						<polygon class="st23" points="377,204.5 333.1,221.5 377,238.3 420.8,221.5 						"/>
					</g>
					<g>
						<polyline class="st23" points="243.9,221.3 243.9,228.7 288.2,245.9 332.6,228.8 332.6,221.3 						"/>
						<line class="st5" x1="288.2" y1="245.9" x2="288.2" y2="238.2"/>
						<polygon class="st23" points="288.2,204.2 244.4,221.3 288.2,238.1 332.1,221.3 						"/>
					</g>
					<g>
						<polyline class="st22" points="288.4,238.4 288.4,245.9 332.8,263 377.2,246 377.2,238.5 						"/>
						<line class="st5" x1="332.8" y1="263" x2="332.8" y2="255.3"/>
						<polygon class="st22" points="332.8,221.4 288.9,238.4 332.8,255.2 376.6,238.4 						"/>
					</g>
				</g>
			</g>
			<g>
				<polyline class="st22" points="377.1,238.5 377.1,246 421.5,263.1 465.9,246.1 465.9,238.6 				"/>
				<line class="st5" x1="421.5" y1="263.1" x2="421.5" y2="255.4"/>
				<polygon class="st22" points="421.5,221.5 377.7,238.5 421.5,255.3 465.4,238.5 				"/>
			</g>
			<g>
				<polyline class="st23" points="421.3,255.8 421.3,263.2 465.7,280.4 510.1,263.3 510.1,255.8 				"/>
				<line class="st5" x1="465.7" y1="280.4" x2="465.7" y2="272.7"/>
				<polygon class="st23" points="465.7,238.7 421.9,255.8 465.7,272.6 509.6,255.8 				"/>
			</g>
			<g>
				<polyline class="st23" points="332.6,255.5 332.6,262.9 377,280.1 421.4,263 421.4,255.5 				"/>
				<line class="st5" x1="377" y1="280.1" x2="377" y2="272.4"/>
				<polygon class="st23" points="377,238.4 333.1,255.5 377,272.3 420.8,255.5 				"/>
			</g>
			<g>
				<polyline class="st22" points="377.1,272.6 377.1,280.1 421.5,297.2 465.9,280.2 465.9,272.7 				"/>
				<line class="st5" x1="421.5" y1="297.2" x2="421.5" y2="289.6"/>
				<polygon class="st22" points="421.5,255.6 377.7,272.6 421.5,289.4 465.4,272.6 				"/>
			</g>
			<g>
				<g>
					<polyline class="st22" points="466.1,272.9 466.1,280.3 510.5,297.5 554.9,280.5 554.9,272.9 					"/>
					<line class="st5" x1="510.5" y1="297.5" x2="510.5" y2="289.8"/>
					<polygon class="st22" points="510.5,255.8 466.7,272.9 510.5,289.7 554.4,272.9 					"/>
				</g>
				<g>
					<polyline class="st23" points="510.3,290.1 510.3,297.6 554.7,314.7 599.1,297.7 599.1,290.2 					"/>
					<line class="st5" x1="554.7" y1="314.7" x2="554.7" y2="307"/>
					<polygon class="st23" points="554.7,273.1 510.9,290.1 554.7,306.9 598.6,290.1 					"/>
				</g>
				<g>
					<polyline class="st23" points="421.6,289.8 421.6,297.3 466,314.4 510.4,297.4 510.4,289.9 					"/>
					<line class="st5" x1="466" y1="314.4" x2="466" y2="306.7"/>
					<polygon class="st23" points="466,272.8 422.1,289.8 466,306.6 509.8,289.8 					"/>
				</g>
				<g>
					<polyline class="st22" points="466.1,307 466.1,314.4 510.5,331.6 554.9,314.6 554.9,307 					"/>
					<line class="st5" x1="510.5" y1="331.6" x2="510.5" y2="323.9"/>
					<polygon class="st22" points="510.5,290 466.7,307 510.5,323.8 554.4,307 					"/>
				</g>
			</g>
		</g>
		<g>
			<g>
				<g>
					<g>
						<polyline class="st22" points="110.7,204 110.7,211.4 155.1,228.6 199.5,211.6 199.5,204 						"/>
						<line class="st5" x1="155.1" y1="228.6" x2="155.1" y2="220.9"/>
						<polygon class="st22" points="155.1,186.9 111.2,204 155.1,220.8 198.9,204 						"/>
					</g>
					<g>
						<polyline class="st23" points="154.9,221.2 154.9,228.7 199.3,245.8 243.7,228.8 243.7,221.2 						"/>
						<line class="st5" x1="199.3" y1="245.8" x2="199.3" y2="238.1"/>
						<polygon class="st23" points="199.3,204.2 155.4,221.2 199.3,238 243.1,221.2 						"/>
					</g>
					<g>
						<polyline class="st23" points="66.1,220.9 66.1,228.4 110.5,245.5 154.9,228.5 154.9,221 						"/>
						<line class="st5" x1="110.5" y1="245.5" x2="110.5" y2="237.8"/>
						<polygon class="st23" points="110.5,203.9 66.7,220.9 110.5,237.7 154.4,220.9 						"/>
					</g>
					<g>
						<polyline class="st22" points="110.7,238.1 110.7,245.5 155.1,262.7 199.5,245.7 199.5,238.1 						"/>
						<line class="st5" x1="155.1" y1="262.7" x2="155.1" y2="255"/>
						<polygon class="st22" points="155.1,221.1 111.2,238.1 155.1,254.9 198.9,238.1 						"/>
					</g>
				</g>
				<g>
					<g>
						<polyline class="st22" points="199.7,238.3 199.7,245.8 244.1,262.9 288.5,245.9 288.5,238.4 						"/>
						<line class="st5" x1="244.1" y1="262.9" x2="244.1" y2="255.3"/>
						<polygon class="st22" points="244.1,221.3 200.2,238.3 244.1,255.1 287.9,238.3 						"/>
					</g>
					<g>
						<polyline class="st23" points="243.9,255.6 243.9,263 288.3,280.2 332.7,263.1 332.7,255.6 						"/>
						<line class="st5" x1="288.3" y1="280.2" x2="288.3" y2="272.5"/>
						<polygon class="st23" points="288.3,238.5 244.4,255.6 288.3,272.4 332.1,255.6 						"/>
					</g>
					<g>
						<polyline class="st23" points="155.1,255.3 155.1,262.7 199.5,279.9 243.9,262.9 243.9,255.3 						"/>
						<line class="st5" x1="199.5" y1="279.9" x2="199.5" y2="272.2"/>
						<polygon class="st23" points="199.5,238.2 155.7,255.3 199.5,272.1 243.4,255.3 						"/>
					</g>
					<g>
						<polyline class="st22" points="199.7,272.4 199.7,279.9 244.1,297.1 288.5,280 288.5,272.5 						"/>
						<line class="st5" x1="244.1" y1="297.1" x2="244.1" y2="289.4"/>
						<polygon class="st22" points="244.1,255.4 200.2,272.5 244.1,289.3 287.9,272.5 						"/>
					</g>
				</g>
			</g>
			<g>
				<polyline class="st22" points="288.4,272.6 288.4,280 332.8,297.2 377.2,280.1 377.2,272.6 				"/>
				<line class="st5" x1="332.8" y1="297.2" x2="332.8" y2="289.5"/>
				<polygon class="st22" points="332.8,255.5 289,272.6 332.8,289.4 376.7,272.6 				"/>
			</g>
			<g>
				<polyline class="st23" points="332.6,289.8 332.6,297.2 377,314.4 421.4,297.4 421.4,289.8 				"/>
				<line class="st5" x1="377" y1="314.4" x2="377" y2="306.7"/>
				<polygon class="st23" points="377,272.7 333.2,289.8 377,306.6 420.9,289.8 				"/>
			</g>
			<g>
				<polyline class="st23" points="243.9,289.5 243.9,296.9 288.3,314.1 332.7,297.1 332.7,289.5 				"/>
				<line class="st5" x1="288.3" y1="314.1" x2="288.3" y2="306.4"/>
				<polygon class="st23" points="288.3,272.5 244.4,289.5 288.3,306.3 332.1,289.5 				"/>
			</g>
			<g>
				<polyline class="st22" points="288.4,306.7 288.4,314.1 332.8,331.3 377.2,314.2 377.2,306.7 				"/>
				<line class="st5" x1="332.8" y1="331.3" x2="332.8" y2="323.6"/>
				<polygon class="st22" points="332.8,289.6 289,306.7 332.8,323.5 376.7,306.7 				"/>
			</g>
			<g>
				<g>
					<polyline class="st22" points="377.4,306.9 377.4,314.4 421.8,331.5 466.2,314.5 466.2,307 					"/>
					<line class="st5" x1="421.8" y1="331.5" x2="421.8" y2="323.8"/>
					<polygon class="st22" points="421.8,289.9 378,306.9 421.8,323.7 465.7,306.9 					"/>
				</g>
				<g>
					<polyline class="st23" points="421.6,324.1 421.6,331.6 466,348.7 510.4,331.7 510.4,324.2 					"/>
					<line class="st5" x1="466" y1="348.7" x2="466" y2="341.1"/>
					<polygon class="st23" points="466,307.1 422.2,324.1 466,340.9 509.9,324.1 					"/>
				</g>
				<g>
					<polyline class="st23" points="332.9,323.9 332.9,331.3 377.3,348.5 421.7,331.4 421.7,323.9 					"/>
					<line class="st5" x1="377.3" y1="348.5" x2="377.3" y2="340.8"/>
					<polygon class="st23" points="377.3,306.8 333.4,323.9 377.3,340.7 421.1,323.9 					"/>
				</g>
				<g>
					<polyline class="st22" points="377.4,341 377.4,348.5 421.8,365.6 466.2,348.6 466.2,341.1 					"/>
					<line class="st5" x1="421.8" y1="365.6" x2="421.8" y2="357.9"/>
					<polygon class="st22" points="421.8,324 378,341 421.8,357.8 465.7,341 					"/>
				</g>
			</g>
		</g>
	</g>
</g>
<g id="Figur">
	<g>
		<g>
			<g class="st24">
				<g>
					<polygon class="st25" points="467.5,125.9 445,118.2 461.6,112.2 484.1,119.9 					"/>
				</g>
				<g>
					<polygon class="st26" points="467.6,127.5 445,119.8 445,118.2 467.5,125.9 					"/>
				</g>
				<g>
					<polygon class="st27" points="467.5,125.9 484.1,119.9 484.2,121.5 467.6,127.5 					"/>
				</g>
			</g>
		</g>
	</g>
	<g>
		<g>
			<g class="st24">
				<g>
					<polygon class="st26" points="481.8,118.1 462,111.3 461.9,107.9 481.7,114.7 					"/>
				</g>
				<g>
					<polygon class="st25" points="468.2,122.9 448.5,116.1 462,111.3 481.8,118.1 					"/>
				</g>
				<g>
					<polygon class="st26" points="467.1,124.8 447.4,118.1 447.2,111.6 466.9,118.3 					"/>
				</g>
				<g>
					<polygon class="st25" points="466.9,118.3 447.2,111.6 463,106 482.8,112.8 					"/>
				</g>
				<g>
					<path class="st27" d="M466.9,118.3l15.8-5.6l0.2,6.4l-15.3,5.4l-0.6,0.2L466.9,118.3z M481.8,118.1l-0.1-3.4l-13.5,4.8l0.1,3.4
						L481.8,118.1"/>
				</g>
			</g>
		</g>
	</g>
	<g>
		<g>
			<g class="st24">
				<g>
					<polygon class="st25" points="463.7,113.8 455.2,110.9 467.7,106.8 476.2,109.7 					"/>
				</g>
				<g>
					<polygon class="st26" points="463.7,115.3 455.3,112.4 455.2,110.9 463.7,113.8 					"/>
				</g>
				<g>
					<polygon class="st27" points="463.7,113.8 476.2,109.7 476.2,111.3 463.7,115.3 					"/>
				</g>
			</g>
		</g>
	</g>
	<g>
		<g>
			<g class="st24">
				<g>
					<polygon class="st28" points="474.1,107.8 465.7,104.9 463.7,91.2 472.1,94.1 					"/>
				</g>
				<g>
					<polygon class="st25" points="465.7,110.5 457.2,107.6 465.7,104.9 474.1,107.8 					"/>
				</g>
				<g>
					<polygon class="st29" points="464.3,112.5 455.9,109.6 457.8,91.5 466.3,94.4 					"/>
				</g>
				<g>
					<polygon class="st25" points="466.3,94.4 457.8,91.5 464.6,89.4 473.1,92.3 					"/>
				</g>
				<g>
					<path class="st27" d="M466.3,94.4l6.8-2.1l2.4,16.6l-10.5,3.4l-0.7,0.2L466.3,94.4z M474.1,107.8l-2-13.7l-4.9,1.5l-1.6,14.9
						L474.1,107.8"/>
				</g>
			</g>
		</g>
	</g>
	<g>
		<g>
			<g class="st24">
				<g>
					<polygon class="st25" points="465.1,91.6 456.6,88.7 465.4,85.8 473.8,88.7 					"/>
				</g>
				<g>
					<polygon class="st26" points="465.1,93.1 456.6,90.2 456.6,88.7 465.1,91.6 					"/>
				</g>
				<g>
					<polygon class="st27" points="465.1,91.6 473.8,88.7 473.9,90.2 465.1,93.1 					"/>
				</g>
			</g>
		</g>
	</g>
	<g>
		<g>
			<g class="st24">
				<g>
					<polygon class="st30" points="472,86.4 463.5,83.5 465.1,79 473.5,81.9 					"/>
				</g>
				<g>
					<polygon class="st31" points="469.9,81.9 461.4,79 462.6,75.9 471.1,78.8 					"/>
				</g>
				<g>
					<polygon class="st32" points="470.8,82.4 462.4,79.5 461.4,79 469.9,81.9 					"/>
				</g>
				<g>
					<polygon class="st25" points="467.1,88 458.7,85.1 463.5,83.5 472,86.4 					"/>
				</g>
				<g>
					<polygon class="st32" points="471.1,78.8 462.6,75.9 460.8,73 469.2,75.9 					"/>
				</g>
				<g>
					<polygon class="st32" points="466.5,89.7 458.1,86.8 455.7,82.5 464.2,85.4 					"/>
				</g>
				<g>
					<polygon class="st31" points="464.2,85.4 455.7,82.5 460.7,70.3 469.2,73.2 					"/>
				</g>
				<g>
					<polygon class="st27" points="469.2,73.2 472.5,78.4 470.8,82.4 469.9,81.9 471.1,78.8 469.2,75.9 465.5,85 467.1,88 472,86.4 
						473.5,81.9 474.6,82.4 472.7,87.7 466.5,89.7 464.2,85.4 					"/>
				</g>
			</g>
		</g>
	</g>
</g>
<g id="Text">
	<g>
		<rect x="667.6" y="287.1" class="st33" width="109" height="32"/>
		<path d="M704.8,297.6c-0.1-0.1-0.1-0.4-0.2-0.8c-0.6,0.6-1.3,0.9-2.1,0.9c-0.7,0-1.3-0.2-1.8-0.6c-0.5-0.4-0.7-0.9-0.7-1.6
			c0-0.8,0.3-1.4,0.9-1.8c0.6-0.4,1.4-0.6,2.5-0.6h1.2v-0.6c0-0.4-0.1-0.8-0.4-1.1s-0.7-0.4-1.2-0.4c-0.5,0-0.8,0.1-1.1,0.3
			c-0.3,0.2-0.5,0.5-0.5,0.8h-1.3c0-0.4,0.1-0.7,0.4-1.1c0.3-0.3,0.6-0.6,1.1-0.8c0.4-0.2,0.9-0.3,1.5-0.3c0.9,0,1.5,0.2,2,0.6
			s0.7,1,0.8,1.8v3.4c0,0.7,0.1,1.2,0.3,1.6v0.1H704.8z M702.7,296.6c0.4,0,0.8-0.1,1.1-0.3s0.6-0.5,0.8-0.8V294h-1
			c-1.5,0-2.3,0.5-2.3,1.4c0,0.4,0.1,0.7,0.4,0.9C701.9,296.5,702.3,296.6,702.7,296.6z"/>
		<path d="M710.8,296.7c0.5,0,0.8-0.1,1.2-0.4s0.5-0.6,0.6-1h1.2c0,0.4-0.2,0.8-0.4,1.2s-0.6,0.7-1.1,0.9c-0.4,0.2-0.9,0.3-1.4,0.3
			c-1,0-1.8-0.3-2.4-1c-0.6-0.7-0.9-1.6-0.9-2.8v-0.2c0-0.7,0.1-1.4,0.4-1.9s0.6-1,1.1-1.3c0.5-0.3,1.1-0.5,1.8-0.5
			c0.8,0,1.5,0.2,2.1,0.7c0.5,0.5,0.8,1.1,0.9,1.9h-1.2c0-0.5-0.2-0.9-0.5-1.2c-0.3-0.3-0.7-0.5-1.2-0.5c-0.6,0-1.1,0.2-1.5,0.7
			c-0.4,0.5-0.5,1.1-0.5,2v0.2c0,0.9,0.2,1.5,0.5,2C709.6,296.5,710.1,296.7,710.8,296.7z"/>
		<path d="M718.7,291.3c-0.2,0-0.4,0-0.6,0c-0.8,0-1.4,0.4-1.7,1.1v5.3h-1.3v-7.4h1.2l0,0.9c0.4-0.7,1-1,1.8-1c0.2,0,0.4,0,0.6,0.1
			V291.3z"/>
		<path d="M722.4,295.7l1.7-5.5h1.4l-3,8.5c-0.5,1.2-1.2,1.8-2.2,1.8l-0.2,0l-0.5-0.1v-1l0.3,0c0.4,0,0.8-0.1,1-0.3
			c0.2-0.2,0.4-0.5,0.6-1l0.3-0.8l-2.6-7.3h1.4L722.4,295.7z"/>
		<path d="M728,297.6h-1.3v-10.5h1.3V297.6z"/>
		<path d="M730,288.2c0-0.2,0.1-0.4,0.2-0.5c0.1-0.1,0.3-0.2,0.6-0.2s0.4,0.1,0.6,0.2c0.1,0.1,0.2,0.3,0.2,0.5s-0.1,0.4-0.2,0.5
			s-0.3,0.2-0.6,0.2s-0.4-0.1-0.6-0.2C730.1,288.6,730,288.4,730,288.2z M731.4,297.6h-1.3v-7.4h1.3V297.6z"/>
		<path d="M736.4,296.7c0.5,0,0.8-0.1,1.2-0.4s0.5-0.6,0.6-1h1.2c0,0.4-0.2,0.8-0.4,1.2s-0.6,0.7-1.1,0.9c-0.4,0.2-0.9,0.3-1.4,0.3
			c-1,0-1.8-0.3-2.4-1c-0.6-0.7-0.9-1.6-0.9-2.8v-0.2c0-0.7,0.1-1.4,0.4-1.9s0.6-1,1.1-1.3c0.5-0.3,1.1-0.5,1.8-0.5
			c0.8,0,1.5,0.2,2.1,0.7c0.5,0.5,0.8,1.1,0.9,1.9h-1.2c0-0.5-0.2-0.9-0.5-1.2c-0.3-0.3-0.7-0.5-1.2-0.5c-0.6,0-1.1,0.2-1.5,0.7
			c-0.4,0.5-0.5,1.1-0.5,2v0.2c0,0.9,0.2,1.5,0.5,2C735.2,296.5,735.7,296.7,736.4,296.7z"/>
		<path d="M743.9,293.8c0-1.2,0.3-2.1,0.8-2.8s1.2-1,2.1-1c0.9,0,1.6,0.3,2.1,1l0.1-0.8h1.2v7.2c0,1-0.3,1.7-0.9,2.3
			c-0.6,0.6-1.3,0.8-2.3,0.8c-0.5,0-1.1-0.1-1.6-0.3c-0.5-0.2-0.9-0.5-1.2-0.9l0.7-0.8c0.5,0.7,1.2,1,2,1c0.6,0,1.1-0.2,1.4-0.5
			c0.3-0.3,0.5-0.8,0.5-1.5v-0.6c-0.5,0.6-1.2,0.9-2.1,0.9c-0.9,0-1.6-0.3-2.1-1C744.2,296,743.9,295,743.9,293.8z M745.2,294
			c0,0.8,0.2,1.5,0.5,2s0.8,0.7,1.4,0.7c0.8,0,1.4-0.4,1.8-1.1v-3.4c-0.4-0.7-1-1.1-1.7-1.1c-0.6,0-1.1,0.2-1.4,0.7
			S745.2,293,745.2,294z"/>
		<path d="M753.4,297.6h-1.3v-10.5h1.3V297.6z"/>
		<path d="M760,297.6c-0.1-0.1-0.1-0.4-0.2-0.8c-0.6,0.6-1.3,0.9-2.1,0.9c-0.7,0-1.3-0.2-1.8-0.6c-0.5-0.4-0.7-0.9-0.7-1.6
			c0-0.8,0.3-1.4,0.9-1.8c0.6-0.4,1.4-0.6,2.5-0.6h1.2v-0.6c0-0.4-0.1-0.8-0.4-1.1s-0.7-0.4-1.2-0.4c-0.5,0-0.8,0.1-1.1,0.3
			c-0.3,0.2-0.5,0.5-0.5,0.8h-1.3c0-0.4,0.1-0.7,0.4-1.1c0.3-0.3,0.6-0.6,1.1-0.8c0.4-0.2,0.9-0.3,1.5-0.3c0.9,0,1.5,0.2,2,0.6
			s0.7,1,0.8,1.8v3.4c0,0.7,0.1,1.2,0.3,1.6v0.1H760z M757.9,296.6c0.4,0,0.8-0.1,1.1-0.3s0.6-0.5,0.8-0.8V294h-1
			c-1.5,0-2.3,0.5-2.3,1.4c0,0.4,0.1,0.7,0.4,0.9C757.2,296.5,757.5,296.6,757.9,296.6z"/>
		<path d="M767.4,295.6c0-0.3-0.1-0.6-0.4-0.8c-0.3-0.2-0.7-0.4-1.3-0.5c-0.6-0.1-1.1-0.3-1.5-0.5c-0.4-0.2-0.7-0.4-0.8-0.7
			c-0.2-0.3-0.3-0.6-0.3-0.9c0-0.6,0.3-1.1,0.8-1.5c0.5-0.4,1.2-0.6,2-0.6c0.8,0,1.5,0.2,2,0.7c0.5,0.4,0.8,1,0.8,1.7h-1.3
			c0-0.3-0.1-0.6-0.4-0.9c-0.3-0.3-0.7-0.4-1.1-0.4c-0.5,0-0.8,0.1-1.1,0.3c-0.3,0.2-0.4,0.5-0.4,0.8c0,0.3,0.1,0.5,0.4,0.7
			c0.2,0.2,0.7,0.3,1.3,0.4c0.6,0.1,1.1,0.3,1.5,0.5c0.4,0.2,0.7,0.4,0.9,0.7c0.2,0.3,0.3,0.6,0.3,1c0,0.7-0.3,1.2-0.8,1.6
			s-1.2,0.6-2.1,0.6c-0.6,0-1.1-0.1-1.6-0.3c-0.5-0.2-0.8-0.5-1.1-0.9c-0.3-0.4-0.4-0.8-0.4-1.2h1.3c0,0.4,0.2,0.8,0.5,1
			c0.3,0.2,0.7,0.4,1.3,0.4c0.5,0,0.9-0.1,1.2-0.3C767.2,296.2,767.4,296,767.4,295.6z"/>
		<path d="M774.6,295.6c0-0.3-0.1-0.6-0.4-0.8c-0.3-0.2-0.7-0.4-1.3-0.5c-0.6-0.1-1.1-0.3-1.5-0.5c-0.4-0.2-0.7-0.4-0.8-0.7
			c-0.2-0.3-0.3-0.6-0.3-0.9c0-0.6,0.3-1.1,0.8-1.5c0.5-0.4,1.2-0.6,2-0.6c0.8,0,1.5,0.2,2,0.7c0.5,0.4,0.8,1,0.8,1.7h-1.3
			c0-0.3-0.1-0.6-0.4-0.9c-0.3-0.3-0.7-0.4-1.1-0.4c-0.5,0-0.8,0.1-1.1,0.3c-0.3,0.2-0.4,0.5-0.4,0.8c0,0.3,0.1,0.5,0.4,0.7
			c0.2,0.2,0.7,0.3,1.3,0.4c0.6,0.1,1.1,0.3,1.5,0.5c0.4,0.2,0.7,0.4,0.9,0.7c0.2,0.3,0.3,0.6,0.3,1c0,0.7-0.3,1.2-0.8,1.6
			s-1.2,0.6-2.1,0.6c-0.6,0-1.1-0.1-1.6-0.3c-0.5-0.2-0.8-0.5-1.1-0.9c-0.3-0.4-0.4-0.8-0.4-1.2h1.3c0,0.4,0.2,0.8,0.5,1
			c0.3,0.2,0.7,0.4,1.3,0.4c0.5,0,0.9-0.1,1.2-0.3C774.5,296.2,774.6,296,774.6,295.6z"/>
	</g>
	<g>
		<rect x="651.4" y="470.4" class="st33" width="130.8" height="32"/>
		<path d="M676.2,471.7v1.8h1.4v1h-1.4v4.6c0,0.3,0.1,0.5,0.2,0.7s0.3,0.2,0.6,0.2c0.1,0,0.3,0,0.6-0.1v1c-0.3,0.1-0.7,0.1-1,0.1
			c-0.6,0-1-0.2-1.3-0.5s-0.4-0.8-0.4-1.5v-4.6h-1.3v-1h1.3v-1.8H676.2z"/>
		<path d="M682.6,474.6c-0.2,0-0.4,0-0.6,0c-0.8,0-1.4,0.4-1.7,1.1v5.3h-1.3v-7.4h1.2l0,0.9c0.4-0.7,1-1,1.8-1c0.2,0,0.4,0,0.6,0.1
			V474.6z"/>
		<path d="M688.1,480.9c-0.1-0.1-0.1-0.4-0.2-0.8c-0.6,0.6-1.3,0.9-2.1,0.9c-0.7,0-1.3-0.2-1.8-0.6c-0.5-0.4-0.7-0.9-0.7-1.6
			c0-0.8,0.3-1.4,0.9-1.8c0.6-0.4,1.4-0.6,2.5-0.6h1.2v-0.6c0-0.4-0.1-0.8-0.4-1.1s-0.7-0.4-1.2-0.4c-0.5,0-0.8,0.1-1.1,0.3
			c-0.3,0.2-0.5,0.5-0.5,0.8h-1.3c0-0.4,0.1-0.7,0.4-1.1c0.3-0.3,0.6-0.6,1.1-0.8c0.4-0.2,0.9-0.3,1.5-0.3c0.9,0,1.5,0.2,2,0.6
			s0.7,1,0.8,1.8v3.4c0,0.7,0.1,1.2,0.3,1.6v0.1H688.1z M686,479.9c0.4,0,0.8-0.1,1.1-0.3s0.6-0.5,0.8-0.8v-1.5h-1
			c-1.5,0-2.3,0.5-2.3,1.4c0,0.4,0.1,0.7,0.4,0.9C685.2,479.8,685.6,479.9,686,479.9z"/>
		<path d="M692.3,473.5l0,0.9c0.6-0.7,1.3-1.1,2.2-1.1c1.6,0,2.4,0.9,2.4,2.6v4.9h-1.3V476c0-0.5-0.1-0.9-0.4-1.2
			c-0.2-0.3-0.6-0.4-1.1-0.4c-0.4,0-0.8,0.1-1.1,0.3s-0.6,0.5-0.7,0.9v5.3h-1.3v-7.4H692.3z"/>
		<path d="M703.2,478.9c0-0.3-0.1-0.6-0.4-0.8c-0.3-0.2-0.7-0.4-1.3-0.5c-0.6-0.1-1.1-0.3-1.5-0.5c-0.4-0.2-0.7-0.4-0.8-0.7
			c-0.2-0.3-0.3-0.6-0.3-0.9c0-0.6,0.3-1.1,0.8-1.5c0.5-0.4,1.2-0.6,2-0.6c0.8,0,1.5,0.2,2,0.7c0.5,0.4,0.8,1,0.8,1.7h-1.3
			c0-0.3-0.1-0.6-0.4-0.9c-0.3-0.3-0.7-0.4-1.1-0.4c-0.5,0-0.8,0.1-1.1,0.3c-0.3,0.2-0.4,0.5-0.4,0.8c0,0.3,0.1,0.5,0.4,0.7
			c0.2,0.2,0.7,0.3,1.3,0.4c0.6,0.1,1.1,0.3,1.5,0.5c0.4,0.2,0.7,0.4,0.9,0.7c0.2,0.3,0.3,0.6,0.3,1c0,0.7-0.3,1.2-0.8,1.6
			s-1.2,0.6-2.1,0.6c-0.6,0-1.1-0.1-1.6-0.3c-0.5-0.2-0.8-0.5-1.1-0.9c-0.3-0.4-0.4-0.8-0.4-1.2h1.3c0,0.4,0.2,0.8,0.5,1
			c0.3,0.2,0.7,0.4,1.3,0.4c0.5,0,0.9-0.1,1.2-0.3C703,479.5,703.2,479.2,703.2,478.9z"/>
		<path d="M707.4,480.9h-1.3v-10.5h1.3V480.9z"/>
		<path d="M714,480.1c-0.5,0.6-1.2,0.9-2.2,0.9c-0.8,0-1.4-0.2-1.8-0.7c-0.4-0.5-0.6-1.1-0.6-2v-4.8h1.3v4.8c0,1.1,0.5,1.7,1.4,1.7
			c1,0,1.6-0.4,1.9-1.1v-5.4h1.3v7.4h-1.2L714,480.1z"/>
		<path d="M720.2,480c0.5,0,0.8-0.1,1.2-0.4s0.5-0.6,0.6-1h1.2c0,0.4-0.2,0.8-0.4,1.2s-0.6,0.7-1.1,0.9c-0.4,0.2-0.9,0.3-1.4,0.3
			c-1,0-1.8-0.3-2.4-1c-0.6-0.7-0.9-1.6-0.9-2.8V477c0-0.7,0.1-1.4,0.4-1.9s0.6-1,1.1-1.3c0.5-0.3,1.1-0.5,1.8-0.5
			c0.8,0,1.5,0.2,2.1,0.7c0.5,0.5,0.8,1.1,0.9,1.9h-1.2c0-0.5-0.2-0.9-0.5-1.2c-0.3-0.3-0.7-0.5-1.2-0.5c-0.6,0-1.1,0.2-1.5,0.7
			c-0.4,0.5-0.5,1.1-0.5,2v0.2c0,0.9,0.2,1.5,0.5,2C719,479.7,719.5,480,720.2,480z"/>
		<path d="M727.6,481c-1,0-1.8-0.3-2.4-1s-0.9-1.5-0.9-2.6v-0.2c0-0.7,0.1-1.4,0.4-2c0.3-0.6,0.7-1,1.2-1.4c0.5-0.3,1-0.5,1.6-0.5
			c1,0,1.7,0.3,2.2,1c0.5,0.6,0.8,1.5,0.8,2.7v0.5h-5c0,0.7,0.2,1.3,0.6,1.8c0.4,0.4,0.9,0.7,1.6,0.7c0.4,0,0.8-0.1,1.1-0.3
			c0.3-0.2,0.6-0.4,0.8-0.7l0.8,0.6C729.8,480.5,728.8,481,727.6,481z M727.4,474.4c-0.5,0-0.9,0.2-1.3,0.6s-0.6,0.9-0.6,1.6h3.7
			v-0.1c0-0.6-0.2-1.1-0.5-1.5S728,474.4,727.4,474.4z"/>
		<path d="M733.1,473.5l0,0.9c0.6-0.7,1.3-1.1,2.2-1.1c1.6,0,2.4,0.9,2.4,2.6v4.9h-1.3V476c0-0.5-0.1-0.9-0.4-1.2
			c-0.2-0.3-0.6-0.4-1.1-0.4c-0.4,0-0.8,0.1-1.1,0.3s-0.6,0.5-0.7,0.9v5.3h-1.3v-7.4H733.1z"/>
		<path d="M741.4,471.7v1.8h1.4v1h-1.4v4.6c0,0.3,0.1,0.5,0.2,0.7s0.3,0.2,0.6,0.2c0.1,0,0.3,0,0.6-0.1v1c-0.3,0.1-0.7,0.1-1,0.1
			c-0.6,0-1-0.2-1.3-0.5s-0.4-0.8-0.4-1.5v-4.6h-1.3v-1h1.3v-1.8H741.4z"/>
		<path d="M753.9,477.2c0,1.1-0.3,2-0.8,2.7c-0.5,0.7-1.2,1-2.1,1c-0.9,0-1.6-0.3-2.1-0.9v3.6h-1.3v-10.2h1.2l0.1,0.8
			c0.5-0.6,1.2-1,2.1-1c0.9,0,1.6,0.3,2.1,1c0.5,0.7,0.8,1.6,0.8,2.8V477.2z M752.7,477.1c0-0.8-0.2-1.5-0.5-2
			c-0.4-0.5-0.8-0.7-1.5-0.7c-0.8,0-1.3,0.3-1.7,1v3.5c0.4,0.7,1,1,1.7,1c0.6,0,1.1-0.2,1.4-0.7C752.5,478.8,752.7,478,752.7,477.1z
			"/>
		<path d="M760.1,480.9c-0.1-0.1-0.1-0.4-0.2-0.8c-0.6,0.6-1.3,0.9-2.1,0.9c-0.7,0-1.3-0.2-1.8-0.6c-0.5-0.4-0.7-0.9-0.7-1.6
			c0-0.8,0.3-1.4,0.9-1.8c0.6-0.4,1.4-0.6,2.5-0.6h1.2v-0.6c0-0.4-0.1-0.8-0.4-1.1s-0.7-0.4-1.2-0.4c-0.5,0-0.8,0.1-1.1,0.3
			c-0.3,0.2-0.5,0.5-0.5,0.8h-1.3c0-0.4,0.1-0.7,0.4-1.1c0.3-0.3,0.6-0.6,1.1-0.8c0.4-0.2,0.9-0.3,1.5-0.3c0.9,0,1.5,0.2,2,0.6
			s0.7,1,0.8,1.8v3.4c0,0.7,0.1,1.2,0.3,1.6v0.1H760.1z M758,479.9c0.4,0,0.8-0.1,1.1-0.3s0.6-0.5,0.8-0.8v-1.5h-1
			c-1.5,0-2.3,0.5-2.3,1.4c0,0.4,0.1,0.7,0.4,0.9C757.3,479.8,757.6,479.9,758,479.9z"/>
		<path d="M769.4,477.2c0,1.1-0.3,2-0.8,2.7c-0.5,0.7-1.2,1-2.1,1c-0.9,0-1.6-0.3-2.1-0.9v3.6h-1.3v-10.2h1.2l0.1,0.8
			c0.5-0.6,1.2-1,2.1-1c0.9,0,1.6,0.3,2.1,1c0.5,0.7,0.8,1.6,0.8,2.8V477.2z M768.2,477.1c0-0.8-0.2-1.5-0.5-2
			c-0.4-0.5-0.8-0.7-1.5-0.7c-0.8,0-1.3,0.3-1.7,1v3.5c0.4,0.7,1,1,1.7,1c0.6,0,1.1-0.2,1.4-0.7C768,478.8,768.2,478,768.2,477.1z"
			/>
		<path d="M774.1,481c-1,0-1.8-0.3-2.4-1s-0.9-1.5-0.9-2.6v-0.2c0-0.7,0.1-1.4,0.4-2c0.3-0.6,0.7-1,1.2-1.4c0.5-0.3,1-0.5,1.6-0.5
			c1,0,1.7,0.3,2.2,1c0.5,0.6,0.8,1.5,0.8,2.7v0.5h-5c0,0.7,0.2,1.3,0.6,1.8c0.4,0.4,0.9,0.7,1.6,0.7c0.4,0,0.8-0.1,1.1-0.3
			c0.3-0.2,0.6-0.4,0.8-0.7l0.8,0.6C776.3,480.5,775.3,481,774.1,481z M773.9,474.4c-0.5,0-0.9,0.2-1.3,0.6s-0.6,0.9-0.6,1.6h3.7
			v-0.1c0-0.6-0.2-1.1-0.5-1.5S774.5,474.4,773.9,474.4z"/>
		<path d="M782,474.6c-0.2,0-0.4,0-0.6,0c-0.8,0-1.4,0.4-1.7,1.1v5.3h-1.3v-7.4h1.2l0,0.9c0.4-0.7,1-1,1.8-1c0.2,0,0.4,0,0.6,0.1
			V474.6z"/>
	</g>
	<g>
		<rect x="651.4" y="656.7" class="st33" width="130.8" height="32"/>
		<path d="M753,665.4l2.8-8.2h1.4l-3.7,10h-1.2l-3.7-10h1.4L753,665.4z"/>
		<path d="M758.4,657.8c0-0.2,0.1-0.4,0.2-0.5c0.1-0.1,0.3-0.2,0.6-0.2s0.4,0.1,0.6,0.2s0.2,0.3,0.2,0.5s-0.1,0.4-0.2,0.5
			s-0.3,0.2-0.6,0.2s-0.4-0.1-0.6-0.2C758.5,658.2,758.4,658,758.4,657.8z M759.8,667.2h-1.3v-7.4h1.3V667.2z"/>
		<path d="M764.2,665.5l1.8-5.7h1.3l-2.7,7.4h-1l-2.7-7.4h1.3L764.2,665.5z"/>
		<path d="M773,667.2c-0.1-0.1-0.1-0.4-0.2-0.8c-0.6,0.6-1.3,0.9-2.1,0.9c-0.7,0-1.3-0.2-1.8-0.6c-0.5-0.4-0.7-0.9-0.7-1.6
			c0-0.8,0.3-1.4,0.9-1.8c0.6-0.4,1.4-0.6,2.5-0.6h1.2v-0.6c0-0.4-0.1-0.8-0.4-1.1c-0.3-0.3-0.7-0.4-1.2-0.4c-0.5,0-0.8,0.1-1.1,0.3
			s-0.5,0.5-0.5,0.8h-1.3c0-0.4,0.1-0.7,0.4-1.1c0.3-0.3,0.6-0.6,1.1-0.8c0.4-0.2,0.9-0.3,1.5-0.3c0.9,0,1.5,0.2,2,0.6
			c0.5,0.4,0.7,1,0.8,1.8v3.4c0,0.7,0.1,1.2,0.3,1.6v0.1H773z M770.9,666.2c0.4,0,0.8-0.1,1.1-0.3s0.6-0.5,0.8-0.8v-1.5h-1
			c-1.5,0-2.3,0.5-2.3,1.4c0,0.4,0.1,0.7,0.4,0.9S770.5,666.2,770.9,666.2z"/>
		<path d="M778.1,663.8l-0.8,0.8v2.6h-1.3v-10.5h1.3v6.4l0.7-0.8l2.3-2.4h1.5l-2.9,3.1l3.2,4.3h-1.5L778.1,663.8z"/>
	</g>
	<g>
		<rect x="651.4" y="854.4" class="st33" width="130.8" height="61.5"/>
		<path d="M719.9,864c0.5,0,0.8-0.1,1.2-0.4s0.5-0.6,0.6-1h1.2c0,0.4-0.2,0.8-0.4,1.2s-0.6,0.7-1.1,0.9c-0.4,0.2-0.9,0.3-1.4,0.3
			c-1,0-1.8-0.3-2.4-1c-0.6-0.7-0.9-1.6-0.9-2.8V861c0-0.7,0.1-1.4,0.4-1.9s0.6-1,1.1-1.3c0.5-0.3,1.1-0.5,1.8-0.5
			c0.8,0,1.5,0.2,2.1,0.7c0.5,0.5,0.8,1.1,0.9,1.9h-1.2c0-0.5-0.2-0.9-0.5-1.2c-0.3-0.3-0.7-0.5-1.2-0.5c-0.6,0-1.1,0.2-1.5,0.7
			c-0.4,0.5-0.5,1.1-0.5,2v0.2c0,0.9,0.2,1.5,0.5,2S719.2,864,719.9,864z"/>
		<path d="M723.9,861.1c0-0.7,0.1-1.4,0.4-2c0.3-0.6,0.7-1,1.2-1.3c0.5-0.3,1.1-0.5,1.7-0.5c1,0,1.8,0.3,2.4,1
			c0.6,0.7,0.9,1.6,0.9,2.8v0.1c0,0.7-0.1,1.4-0.4,1.9c-0.3,0.6-0.7,1-1.2,1.3c-0.5,0.3-1.1,0.5-1.8,0.5c-1,0-1.8-0.3-2.4-1
			C724.2,863.3,723.9,862.3,723.9,861.1L723.9,861.1z M725.2,861.2c0,0.8,0.2,1.5,0.6,2c0.4,0.5,0.9,0.7,1.5,0.7
			c0.6,0,1.2-0.3,1.5-0.8c0.4-0.5,0.6-1.2,0.6-2.1c0-0.8-0.2-1.5-0.6-2c-0.4-0.5-0.9-0.8-1.5-0.8c-0.6,0-1.1,0.2-1.5,0.7
			S725.2,860.3,725.2,861.2z"/>
		<path d="M738.5,861.2c0,1.1-0.3,2-0.8,2.7s-1.2,1-2.1,1c-0.9,0-1.6-0.3-2.1-0.9v3.6h-1.3v-10.2h1.2l0.1,0.8c0.5-0.6,1.2-1,2.1-1
			c0.9,0,1.6,0.3,2.1,1c0.5,0.7,0.8,1.6,0.8,2.8V861.2z M737.2,861.1c0-0.8-0.2-1.5-0.5-2s-0.8-0.7-1.5-0.7c-0.8,0-1.3,0.3-1.7,1
			v3.5c0.4,0.7,1,1,1.7,1c0.6,0,1.1-0.2,1.4-0.7C737,862.8,737.2,862,737.2,861.1z"/>
		<path d="M746.3,861.2c0,1.1-0.3,2-0.8,2.7s-1.2,1-2.1,1c-0.9,0-1.6-0.3-2.1-0.9v3.6h-1.3v-10.2h1.2l0.1,0.8c0.5-0.6,1.2-1,2.1-1
			c0.9,0,1.6,0.3,2.1,1c0.5,0.7,0.8,1.6,0.8,2.8V861.2z M745,861.1c0-0.8-0.2-1.5-0.5-2s-0.8-0.7-1.5-0.7c-0.8,0-1.3,0.3-1.7,1v3.5
			c0.4,0.7,1,1,1.7,1c0.6,0,1.1-0.2,1.4-0.7C744.9,862.8,745,862,745,861.1z"/>
		<path d="M751,865c-1,0-1.8-0.3-2.4-1c-0.6-0.7-0.9-1.5-0.9-2.6v-0.2c0-0.7,0.1-1.4,0.4-2c0.3-0.6,0.7-1,1.2-1.4
			c0.5-0.3,1-0.5,1.6-0.5c1,0,1.7,0.3,2.2,1s0.8,1.5,0.8,2.7v0.5h-5c0,0.7,0.2,1.3,0.6,1.8c0.4,0.4,0.9,0.7,1.6,0.7
			c0.4,0,0.8-0.1,1.1-0.3s0.6-0.4,0.8-0.7l0.8,0.6C753.2,864.5,752.2,865,751,865z M750.8,858.4c-0.5,0-0.9,0.2-1.3,0.6
			c-0.3,0.4-0.6,0.9-0.6,1.6h3.7v-0.1c0-0.6-0.2-1.1-0.5-1.5C751.8,858.5,751.4,858.4,750.8,858.4z"/>
		<path d="M758.9,858.6c-0.2,0-0.4,0-0.6,0c-0.8,0-1.4,0.4-1.7,1.1v5.3h-1.3v-7.4h1.2l0,0.9c0.4-0.7,1-1,1.8-1c0.2,0,0.4,0,0.6,0.1
			V858.6z"/>
		<path d="M764.2,864.9v-6.4H763v-1h1.2v-0.8c0-0.8,0.2-1.4,0.6-1.8s1-0.6,1.8-0.6c0.3,0,0.6,0,0.9,0.1l-0.1,1
			c-0.2,0-0.4-0.1-0.7-0.1c-0.4,0-0.7,0.1-1,0.4c-0.2,0.2-0.3,0.6-0.3,1v0.8h1.6v1h-1.6v6.4H764.2z"/>
		<path d="M768.1,861.1c0-0.7,0.1-1.4,0.4-2c0.3-0.6,0.7-1,1.2-1.3c0.5-0.3,1.1-0.5,1.7-0.5c1,0,1.8,0.3,2.4,1
			c0.6,0.7,0.9,1.6,0.9,2.8v0.1c0,0.7-0.1,1.4-0.4,1.9c-0.3,0.6-0.7,1-1.2,1.3c-0.5,0.3-1.1,0.5-1.8,0.5c-1,0-1.8-0.3-2.4-1
			C768.4,863.3,768.1,862.3,768.1,861.1L768.1,861.1z M769.3,861.2c0,0.8,0.2,1.5,0.6,2c0.4,0.5,0.9,0.7,1.5,0.7
			c0.6,0,1.2-0.3,1.5-0.8c0.4-0.5,0.6-1.2,0.6-2.1c0-0.8-0.2-1.5-0.6-2c-0.4-0.5-0.9-0.8-1.5-0.8c-0.6,0-1.1,0.2-1.5,0.7
			S769.3,860.3,769.3,861.2z"/>
		<path d="M776.4,855.5c0-0.2,0.1-0.4,0.2-0.5c0.1-0.1,0.3-0.2,0.6-0.2s0.4,0.1,0.6,0.2s0.2,0.3,0.2,0.5s-0.1,0.4-0.2,0.5
			s-0.3,0.2-0.6,0.2s-0.4-0.1-0.6-0.2C776.5,855.9,776.4,855.7,776.4,855.5z M777.8,864.9h-1.3v-7.4h1.3V864.9z"/>
		<path d="M781.2,864.9h-1.3v-10.5h1.3V864.9z"/>
		<path d="M715.1,881.7v-6.4h-1.2v-1h1.2v-0.8c0-0.8,0.2-1.4,0.6-1.8s1-0.6,1.8-0.6c0.3,0,0.6,0,0.9,0.1l-0.1,1
			c-0.2,0-0.4-0.1-0.7-0.1c-0.4,0-0.7,0.1-1,0.4s-0.3,0.6-0.3,1v0.8h1.6v1h-1.6v6.4H715.1z"/>
		<path d="M719,877.9c0-0.7,0.1-1.4,0.4-2c0.3-0.6,0.7-1,1.2-1.3c0.5-0.3,1.1-0.5,1.7-0.5c1,0,1.8,0.3,2.4,1
			c0.6,0.7,0.9,1.6,0.9,2.8v0.1c0,0.7-0.1,1.4-0.4,1.9c-0.3,0.6-0.7,1-1.2,1.3c-0.5,0.3-1.1,0.5-1.8,0.5c-1,0-1.8-0.3-2.4-1
			C719.3,880.1,719,879.1,719,877.9L719,877.9z M720.3,878c0,0.8,0.2,1.5,0.6,2c0.4,0.5,0.9,0.7,1.5,0.7c0.6,0,1.2-0.3,1.5-0.8
			c0.4-0.5,0.6-1.2,0.6-2.1c0-0.8-0.2-1.5-0.6-2c-0.4-0.5-0.9-0.8-1.5-0.8c-0.6,0-1.1,0.2-1.5,0.7S720.3,877.1,720.3,878z"/>
		<path d="M731.9,881.7c-0.1-0.1-0.1-0.4-0.2-0.8c-0.6,0.6-1.3,0.9-2.1,0.9c-0.7,0-1.3-0.2-1.8-0.6c-0.5-0.4-0.7-0.9-0.7-1.6
			c0-0.8,0.3-1.4,0.9-1.8c0.6-0.4,1.4-0.6,2.5-0.6h1.2v-0.6c0-0.4-0.1-0.8-0.4-1.1c-0.3-0.3-0.7-0.4-1.2-0.4c-0.5,0-0.8,0.1-1.1,0.3
			s-0.5,0.5-0.5,0.8h-1.3c0-0.4,0.1-0.7,0.4-1.1c0.3-0.3,0.6-0.6,1.1-0.8c0.4-0.2,0.9-0.3,1.5-0.3c0.9,0,1.5,0.2,2,0.6
			c0.5,0.4,0.7,1,0.8,1.8v3.4c0,0.7,0.1,1.2,0.3,1.6v0.1H731.9z M729.8,880.7c0.4,0,0.8-0.1,1.1-0.3s0.6-0.5,0.8-0.8v-1.5h-1
			c-1.5,0-2.3,0.5-2.3,1.4c0,0.4,0.1,0.7,0.4,0.9S729.4,880.7,729.8,880.7z"/>
		<path d="M736.1,874.3l0,0.8c0.5-0.6,1.3-1,2.2-1c1,0,1.7,0.4,2.1,1.2c0.2-0.4,0.6-0.6,1-0.9c0.4-0.2,0.9-0.3,1.4-0.3
			c1.6,0,2.4,0.9,2.5,2.6v5H744v-4.9c0-0.5-0.1-0.9-0.4-1.2c-0.2-0.3-0.6-0.4-1.2-0.4c-0.5,0-0.9,0.1-1.2,0.4
			c-0.3,0.3-0.5,0.7-0.5,1.1v4.9h-1.3v-4.8c0-1.1-0.5-1.6-1.6-1.6c-0.8,0-1.4,0.4-1.7,1.1v5.4h-1.3v-7.4H736.1z"/>
		<path d="M753.5,878c0,1.1-0.3,2-0.8,2.7c-0.5,0.7-1.2,1-2.1,1c-0.9,0-1.7-0.3-2.2-1l-0.1,0.9h-1.2v-10.5h1.3v3.9
			c0.5-0.6,1.2-1,2.1-1s1.6,0.3,2.1,1c0.5,0.7,0.8,1.6,0.8,2.8V878z M752.2,877.9c0-0.9-0.2-1.5-0.5-2s-0.8-0.7-1.4-0.7
			c-0.8,0-1.4,0.4-1.8,1.2v3.2c0.4,0.8,1,1.2,1.8,1.2c0.6,0,1.1-0.2,1.4-0.7S752.2,878.8,752.2,877.9z"/>
		<path d="M754.7,877.9c0-0.7,0.1-1.4,0.4-2c0.3-0.6,0.7-1,1.2-1.3c0.5-0.3,1.1-0.5,1.7-0.5c1,0,1.8,0.3,2.4,1
			c0.6,0.7,0.9,1.6,0.9,2.8v0.1c0,0.7-0.1,1.4-0.4,1.9c-0.3,0.6-0.7,1-1.2,1.3c-0.5,0.3-1.1,0.5-1.8,0.5c-1,0-1.8-0.3-2.4-1
			C755,880.1,754.7,879.1,754.7,877.9L754.7,877.9z M756,878c0,0.8,0.2,1.5,0.6,2c0.4,0.5,0.9,0.7,1.5,0.7c0.6,0,1.2-0.3,1.5-0.8
			c0.4-0.5,0.6-1.2,0.6-2.1c0-0.8-0.2-1.5-0.6-2c-0.4-0.5-0.9-0.8-1.5-0.8c-0.6,0-1.1,0.2-1.5,0.7S756,877.1,756,878z"/>
		<path d="M767.6,881.7c-0.1-0.1-0.1-0.4-0.2-0.8c-0.6,0.6-1.3,0.9-2.1,0.9c-0.7,0-1.3-0.2-1.8-0.6c-0.5-0.4-0.7-0.9-0.7-1.6
			c0-0.8,0.3-1.4,0.9-1.8c0.6-0.4,1.4-0.6,2.5-0.6h1.2v-0.6c0-0.4-0.1-0.8-0.4-1.1c-0.3-0.3-0.7-0.4-1.2-0.4c-0.5,0-0.8,0.1-1.1,0.3
			s-0.5,0.5-0.5,0.8H763c0-0.4,0.1-0.7,0.4-1.1c0.3-0.3,0.6-0.6,1.1-0.8c0.4-0.2,0.9-0.3,1.5-0.3c0.9,0,1.5,0.2,2,0.6
			c0.5,0.4,0.7,1,0.8,1.8v3.4c0,0.7,0.1,1.2,0.3,1.6v0.1H767.6z M765.5,880.7c0.4,0,0.8-0.1,1.1-0.3s0.6-0.5,0.8-0.8v-1.5h-1
			c-1.5,0-2.3,0.5-2.3,1.4c0,0.4,0.1,0.7,0.4,0.9S765.1,880.7,765.5,880.7z"/>
		<path d="M774.2,875.4c-0.2,0-0.4,0-0.6,0c-0.8,0-1.4,0.4-1.7,1.1v5.3h-1.3v-7.4h1.2l0,0.9c0.4-0.7,1-1,1.8-1c0.2,0,0.4,0,0.6,0.1
			V875.4z"/>
		<path d="M775,877.9c0-1.1,0.3-2,0.8-2.7c0.5-0.7,1.2-1,2.1-1c0.9,0,1.6,0.3,2.1,0.9v-3.9h1.3v10.5h-1.2l-0.1-0.8
			c-0.5,0.6-1.2,0.9-2.1,0.9c-0.9,0-1.6-0.4-2.1-1.1C775.2,880,775,879.1,775,877.9L775,877.9z M776.2,878c0,0.8,0.2,1.5,0.5,2
			s0.8,0.7,1.4,0.7c0.8,0,1.4-0.4,1.8-1.1v-3.4c-0.4-0.7-1-1-1.7-1c-0.6,0-1.1,0.2-1.4,0.7S776.2,877.1,776.2,878z"/>
	</g>
	<g>
		<rect x="651.4" y="1061" class="st33" width="130.8" height="32"/>
		<path d="M734.1,1067.8c0-1.1,0.3-2,0.8-2.7s1.2-1,2.1-1c0.9,0,1.6,0.3,2.1,0.9v-3.9h1.3v10.5h-1.2l-0.1-0.8
			c-0.5,0.6-1.2,0.9-2.1,0.9c-0.9,0-1.6-0.4-2.1-1.1C734.4,1069.9,734.1,1069,734.1,1067.8L734.1,1067.8z M735.4,1067.9
			c0,0.8,0.2,1.5,0.5,2c0.3,0.5,0.8,0.7,1.4,0.7c0.8,0,1.4-0.4,1.8-1.1v-3.4c-0.4-0.7-1-1-1.7-1c-0.6,0-1.1,0.2-1.4,0.7
			S735.4,1067,735.4,1067.9z"/>
		<path d="M742.3,1062.2c0-0.2,0.1-0.4,0.2-0.5c0.1-0.1,0.3-0.2,0.6-0.2s0.4,0.1,0.6,0.2c0.1,0.1,0.2,0.3,0.2,0.5s-0.1,0.4-0.2,0.5
			s-0.3,0.2-0.6,0.2s-0.4-0.1-0.6-0.2C742.4,1062.5,742.3,1062.4,742.3,1062.2z M743.7,1071.5h-1.3v-7.4h1.3V1071.5z"/>
		<path d="M748.2,1069.8l1.8-5.7h1.3l-2.7,7.4h-1l-2.7-7.4h1.3L748.2,1069.8z"/>
		<path d="M752.5,1062.2c0-0.2,0.1-0.4,0.2-0.5c0.1-0.1,0.3-0.2,0.6-0.2s0.4,0.1,0.6,0.2c0.1,0.1,0.2,0.3,0.2,0.5s-0.1,0.4-0.2,0.5
			s-0.3,0.2-0.6,0.2s-0.4-0.1-0.6-0.2C752.6,1062.5,752.5,1062.4,752.5,1062.2z M753.9,1071.5h-1.3v-7.4h1.3V1071.5z"/>
		<path d="M755.6,1067.8c0-1.1,0.3-2,0.8-2.7s1.2-1,2.1-1c0.9,0,1.6,0.3,2.1,0.9v-3.9h1.3v10.5h-1.2l-0.1-0.8
			c-0.5,0.6-1.2,0.9-2.1,0.9c-0.9,0-1.6-0.4-2.1-1.1C755.9,1069.9,755.6,1069,755.6,1067.8L755.6,1067.8z M756.9,1067.9
			c0,0.8,0.2,1.5,0.5,2c0.3,0.5,0.8,0.7,1.4,0.7c0.8,0,1.4-0.4,1.8-1.1v-3.4c-0.4-0.7-1-1-1.7-1c-0.6,0-1.1,0.2-1.4,0.7
			S756.9,1067,756.9,1067.9z"/>
		<path d="M766.9,1071.7c-1,0-1.8-0.3-2.4-1s-0.9-1.5-0.9-2.6v-0.2c0-0.7,0.1-1.4,0.4-2c0.3-0.6,0.7-1,1.2-1.4
			c0.5-0.3,1-0.5,1.6-0.5c1,0,1.7,0.3,2.2,0.9c0.5,0.6,0.8,1.5,0.8,2.7v0.5h-5c0,0.7,0.2,1.3,0.6,1.8c0.4,0.4,0.9,0.7,1.6,0.7
			c0.4,0,0.8-0.1,1.1-0.3c0.3-0.2,0.6-0.4,0.8-0.7l0.8,0.6C769,1071.2,768.1,1071.7,766.9,1071.7z M766.7,1065
			c-0.5,0-0.9,0.2-1.3,0.6s-0.6,0.9-0.6,1.6h3.7v-0.1c0-0.6-0.2-1.1-0.5-1.5S767.2,1065,766.7,1065z"/>
		<path d="M774.8,1065.3c-0.2,0-0.4,0-0.6,0c-0.8,0-1.4,0.4-1.7,1.1v5.3h-1.3v-7.4h1.2l0,0.9c0.4-0.7,1-1,1.8-1c0.2,0,0.4,0,0.6,0.1
			V1065.3z"/>
		<path d="M780.3,1069.6c0-0.3-0.1-0.6-0.4-0.8c-0.3-0.2-0.7-0.4-1.3-0.5c-0.6-0.1-1.1-0.3-1.5-0.5c-0.4-0.2-0.7-0.4-0.8-0.7
			c-0.2-0.3-0.3-0.6-0.3-0.9c0-0.6,0.3-1.1,0.8-1.5c0.5-0.4,1.2-0.6,2-0.6c0.8,0,1.5,0.2,2,0.6c0.5,0.4,0.8,1,0.8,1.7h-1.3
			c0-0.3-0.1-0.6-0.4-0.9c-0.3-0.3-0.7-0.4-1.1-0.4c-0.5,0-0.8,0.1-1.1,0.3c-0.3,0.2-0.4,0.5-0.4,0.8c0,0.3,0.1,0.5,0.4,0.7
			c0.2,0.2,0.7,0.3,1.3,0.4c0.6,0.1,1.1,0.3,1.5,0.5c0.4,0.2,0.7,0.4,0.9,0.7c0.2,0.3,0.3,0.6,0.3,1c0,0.7-0.3,1.2-0.8,1.6
			s-1.2,0.6-2.1,0.6c-0.6,0-1.1-0.1-1.6-0.3c-0.5-0.2-0.8-0.5-1.1-0.9c-0.3-0.4-0.4-0.8-0.4-1.2h1.3c0,0.4,0.2,0.8,0.5,1
			c0.3,0.2,0.7,0.4,1.3,0.4c0.5,0,0.9-0.1,1.2-0.3C780.1,1070.1,780.3,1069.9,780.3,1069.6z"/>
	</g>
	<g>
		<rect x="644.4" y="1226.6" class="st33" width="130.8" height="32"/>
		<path d="M745.8,1236h4.7v1.1h-6v-10h1.3V1236z"/>
		<path d="M757.6,1232.5h-4.3v3.5h5v1.1H752v-10h6.3v1.1h-4.9v3.2h4.3V1232.5z"/>
		<path d="M760,1237.1v-10h2.8c0.9,0,1.6,0.2,2.3,0.6s1.2,0.9,1.5,1.6c0.4,0.7,0.5,1.5,0.6,2.4v0.6c0,0.9-0.2,1.8-0.5,2.5
			c-0.4,0.7-0.9,1.2-1.6,1.6c-0.7,0.4-1.5,0.6-2.3,0.6H760z M761.3,1228.2v7.8h1.4c1,0,1.8-0.3,2.4-0.9c0.6-0.6,0.8-1.5,0.8-2.7
			v-0.6c0-1.1-0.3-2-0.8-2.6c-0.5-0.6-1.3-0.9-2.3-1H761.3z"/>
		<path d="M773.3,1235.1c0-0.3-0.1-0.6-0.4-0.8c-0.3-0.2-0.7-0.4-1.3-0.5c-0.6-0.1-1.1-0.3-1.5-0.5c-0.4-0.2-0.7-0.4-0.8-0.7
			c-0.2-0.3-0.3-0.6-0.3-0.9c0-0.6,0.3-1.1,0.8-1.5c0.5-0.4,1.2-0.6,2-0.6c0.8,0,1.5,0.2,2,0.6c0.5,0.4,0.8,1,0.8,1.7h-1.3
			c0-0.3-0.1-0.6-0.4-0.9c-0.3-0.3-0.7-0.4-1.1-0.4c-0.5,0-0.8,0.1-1.1,0.3c-0.3,0.2-0.4,0.5-0.4,0.8c0,0.3,0.1,0.5,0.4,0.7
			c0.2,0.2,0.7,0.3,1.3,0.4c0.6,0.1,1.1,0.3,1.5,0.5c0.4,0.2,0.7,0.4,0.9,0.7c0.2,0.3,0.3,0.6,0.3,1c0,0.7-0.3,1.2-0.8,1.6
			s-1.2,0.6-2.1,0.6c-0.6,0-1.1-0.1-1.6-0.3c-0.5-0.2-0.8-0.5-1.1-0.9c-0.3-0.4-0.4-0.8-0.4-1.2h1.3c0,0.4,0.2,0.8,0.5,1
			c0.3,0.2,0.7,0.4,1.3,0.4c0.5,0,0.9-0.1,1.2-0.3C773.1,1235.7,773.3,1235.4,773.3,1235.1z"/>
	</g>
	<g>
		<rect x="649.4" y="1395.9" class="st33" width="130.8" height="32"/>
		<path d="M702.8,1402.6c0-1.2,0.3-2.1,0.8-2.8s1.2-1,2.1-1c0.9,0,1.6,0.3,2.1,1l0.1-0.8h1.2v7.2c0,1-0.3,1.7-0.9,2.3
			c-0.6,0.6-1.3,0.8-2.3,0.8c-0.5,0-1.1-0.1-1.6-0.3c-0.5-0.2-0.9-0.5-1.2-0.9l0.7-0.8c0.5,0.7,1.2,1,2,1c0.6,0,1.1-0.2,1.4-0.5
			c0.3-0.3,0.5-0.8,0.5-1.5v-0.6c-0.5,0.6-1.2,0.9-2.1,0.9c-0.9,0-1.6-0.3-2.1-1C703,1404.8,702.8,1403.8,702.8,1402.6z M704,1402.8
			c0,0.8,0.2,1.5,0.5,2s0.8,0.7,1.4,0.7c0.8,0,1.4-0.4,1.8-1.1v-3.4c-0.4-0.7-1-1.1-1.7-1.1c-0.6,0-1.1,0.2-1.4,0.7
			S704,1401.8,704,1402.8z"/>
		<path d="M714.5,1400.1c-0.2,0-0.4,0-0.6,0c-0.8,0-1.4,0.4-1.7,1.1v5.3h-1.3v-7.4h1.2l0,0.9c0.4-0.7,1-1,1.8-1c0.2,0,0.4,0,0.6,0.1
			V1400.1z"/>
		<path d="M715.2,1402.6c0-0.7,0.1-1.4,0.4-2c0.3-0.6,0.7-1,1.2-1.3c0.5-0.3,1.1-0.5,1.7-0.5c1,0,1.8,0.3,2.4,1
			c0.6,0.7,0.9,1.6,0.9,2.8v0.1c0,0.7-0.1,1.4-0.4,1.9c-0.3,0.6-0.7,1-1.2,1.3c-0.5,0.3-1.1,0.5-1.8,0.5c-1,0-1.8-0.3-2.4-1
			C715.5,1404.8,715.2,1403.9,715.2,1402.6L715.2,1402.6z M716.5,1402.8c0,0.8,0.2,1.5,0.6,2c0.4,0.5,0.9,0.7,1.5,0.7
			c0.6,0,1.2-0.3,1.5-0.8s0.6-1.2,0.6-2.1c0-0.8-0.2-1.5-0.6-2c-0.4-0.5-0.9-0.8-1.5-0.8c-0.6,0-1.1,0.2-1.5,0.7
			C716.7,1401.1,716.5,1401.9,716.5,1402.8z"/>
		<path d="M728.1,1405.7c-0.5,0.6-1.2,0.9-2.2,0.9c-0.8,0-1.4-0.2-1.8-0.7c-0.4-0.5-0.6-1.1-0.6-2v-4.8h1.3v4.8
			c0,1.1,0.5,1.7,1.4,1.7c1,0,1.6-0.4,1.9-1.1v-5.4h1.3v7.4h-1.2L728.1,1405.7z"/>
		<path d="M732.4,1399l0,0.9c0.6-0.7,1.3-1.1,2.2-1.1c1.6,0,2.4,0.9,2.4,2.6v4.9h-1.3v-4.9c0-0.5-0.1-0.9-0.4-1.2
			c-0.2-0.3-0.6-0.4-1.1-0.4c-0.4,0-0.8,0.1-1.1,0.3s-0.6,0.5-0.7,0.9v5.3h-1.3v-7.4H732.4z"/>
		<path d="M738.6,1402.6c0-1.1,0.3-2,0.8-2.7s1.2-1,2.1-1c0.9,0,1.6,0.3,2.1,0.9v-3.9h1.3v10.5h-1.2l-0.1-0.8
			c-0.5,0.6-1.2,0.9-2.1,0.9c-0.9,0-1.6-0.4-2.1-1.1C738.9,1404.8,738.6,1403.9,738.6,1402.6L738.6,1402.6z M739.9,1402.8
			c0,0.8,0.2,1.5,0.5,2c0.3,0.5,0.8,0.7,1.4,0.7c0.8,0,1.4-0.4,1.8-1.1v-3.4c-0.4-0.7-1-1-1.7-1c-0.6,0-1.1,0.2-1.4,0.7
			S739.9,1401.8,739.9,1402.8z"/>
		<path d="M756.6,1402.8c0,1.1-0.3,2-0.8,2.7c-0.5,0.7-1.2,1-2.1,1c-0.9,0-1.6-0.3-2.1-0.9v3.6h-1.3V1399h1.2l0.1,0.8
			c0.5-0.6,1.2-1,2.1-1c0.9,0,1.6,0.3,2.1,1c0.5,0.7,0.8,1.6,0.8,2.8V1402.8z M755.3,1402.6c0-0.8-0.2-1.5-0.5-2
			c-0.4-0.5-0.8-0.7-1.5-0.7c-0.8,0-1.3,0.3-1.7,1v3.5c0.4,0.7,1,1,1.7,1c0.6,0,1.1-0.2,1.4-0.7
			C755.1,1404.3,755.3,1403.6,755.3,1402.6z"/>
		<path d="M759.5,1406.4h-1.3v-10.5h1.3V1406.4z"/>
		<path d="M766.1,1406.4c-0.1-0.1-0.1-0.4-0.2-0.8c-0.6,0.6-1.3,0.9-2.1,0.9c-0.7,0-1.3-0.2-1.8-0.6c-0.5-0.4-0.7-0.9-0.7-1.6
			c0-0.8,0.3-1.4,0.9-1.8c0.6-0.4,1.4-0.6,2.5-0.6h1.2v-0.6c0-0.4-0.1-0.8-0.4-1.1s-0.7-0.4-1.2-0.4c-0.5,0-0.8,0.1-1.1,0.3
			c-0.3,0.2-0.5,0.5-0.5,0.8h-1.3c0-0.4,0.1-0.7,0.4-1.1c0.3-0.3,0.6-0.6,1.1-0.8c0.4-0.2,0.9-0.3,1.5-0.3c0.9,0,1.5,0.2,2,0.6
			s0.7,1,0.8,1.8v3.4c0,0.7,0.1,1.2,0.3,1.6v0.1H766.1z M764,1405.4c0.4,0,0.8-0.1,1.1-0.3s0.6-0.5,0.8-0.8v-1.5h-1
			c-1.5,0-2.3,0.5-2.3,1.4c0,0.4,0.1,0.7,0.4,0.9C763.3,1405.3,763.6,1405.4,764,1405.4z"/>
		<path d="M770.9,1397.2v1.8h1.4v1h-1.4v4.6c0,0.3,0.1,0.5,0.2,0.7c0.1,0.1,0.3,0.2,0.6,0.2c0.1,0,0.3,0,0.6-0.1v1
			c-0.3,0.1-0.7,0.1-1,0.1c-0.6,0-1-0.2-1.3-0.5s-0.4-0.8-0.4-1.5v-4.6h-1.3v-1h1.3v-1.8H770.9z"/>
		<path d="M776.8,1406.5c-1,0-1.8-0.3-2.4-1s-0.9-1.5-0.9-2.6v-0.2c0-0.7,0.1-1.4,0.4-2c0.3-0.6,0.7-1,1.2-1.4
			c0.5-0.3,1-0.5,1.6-0.5c1,0,1.7,0.3,2.2,0.9c0.5,0.6,0.8,1.5,0.8,2.7v0.5h-5c0,0.7,0.2,1.3,0.6,1.8c0.4,0.4,0.9,0.7,1.6,0.7
			c0.4,0,0.8-0.1,1.1-0.3c0.3-0.2,0.6-0.4,0.8-0.7l0.8,0.6C779,1406.1,778.1,1406.5,776.8,1406.5z M776.7,1399.9
			c-0.5,0-0.9,0.2-1.3,0.6s-0.6,0.9-0.6,1.6h3.7v-0.1c0-0.6-0.2-1.1-0.5-1.5S777.2,1399.9,776.7,1399.9z"/>
	</g>
	<g>
		<rect x="651.4" y="1675.9" class="st33" width="130.8" height="25"/>
		<path d="M747.2,1686.4v-6.4H746v-1h1.2v-0.8c0-0.8,0.2-1.4,0.6-1.8c0.4-0.4,1-0.6,1.8-0.6c0.3,0,0.6,0,0.9,0.1l-0.1,1
			c-0.2,0-0.4-0.1-0.7-0.1c-0.4,0-0.7,0.1-1,0.4c-0.2,0.2-0.3,0.6-0.3,1v0.8h1.6v1h-1.6v6.4H747.2z"/>
		<path d="M755,1680.1c-0.2,0-0.4,0-0.6,0c-0.8,0-1.4,0.4-1.7,1.1v5.3h-1.3v-7.4h1.2l0,0.9c0.4-0.7,1-1,1.8-1c0.2,0,0.4,0,0.6,0.1
			V1680.1z"/>
		<path d="M760.4,1686.4c-0.1-0.1-0.1-0.4-0.2-0.8c-0.6,0.6-1.3,0.9-2.1,0.9c-0.7,0-1.3-0.2-1.8-0.6c-0.5-0.4-0.7-0.9-0.7-1.6
			c0-0.8,0.3-1.4,0.9-1.8c0.6-0.4,1.4-0.6,2.5-0.6h1.2v-0.6c0-0.4-0.1-0.8-0.4-1.1s-0.7-0.4-1.2-0.4c-0.5,0-0.8,0.1-1.1,0.3
			c-0.3,0.2-0.5,0.5-0.5,0.8h-1.3c0-0.4,0.1-0.7,0.4-1.1c0.3-0.3,0.6-0.6,1.1-0.8c0.4-0.2,0.9-0.3,1.5-0.3c0.9,0,1.5,0.2,2,0.6
			s0.7,1,0.8,1.8v3.4c0,0.7,0.1,1.2,0.3,1.6v0.1H760.4z M758.3,1685.4c0.4,0,0.8-0.1,1.1-0.3s0.6-0.5,0.8-0.8v-1.5h-1
			c-1.5,0-2.3,0.5-2.3,1.4c0,0.4,0.1,0.7,0.4,0.9C757.6,1685.3,757.9,1685.4,758.3,1685.4z"/>
		<path d="M764.7,1679l0,0.8c0.5-0.6,1.3-1,2.2-1c1,0,1.7,0.4,2.1,1.2c0.2-0.4,0.6-0.6,1-0.9c0.4-0.2,0.9-0.3,1.4-0.3
			c1.6,0,2.4,0.9,2.5,2.6v5h-1.3v-4.9c0-0.5-0.1-0.9-0.4-1.2s-0.6-0.4-1.2-0.4c-0.5,0-0.9,0.1-1.2,0.4s-0.5,0.7-0.5,1.1v4.9H768
			v-4.8c0-1.1-0.5-1.6-1.6-1.6c-0.8,0-1.4,0.4-1.7,1.1v5.4h-1.3v-7.4H764.7z"/>
		<path d="M778.8,1686.5c-1,0-1.8-0.3-2.4-1s-0.9-1.5-0.9-2.6v-0.2c0-0.7,0.1-1.4,0.4-2c0.3-0.6,0.7-1,1.2-1.4
			c0.5-0.3,1-0.5,1.6-0.5c1,0,1.7,0.3,2.2,1c0.5,0.6,0.8,1.5,0.8,2.7v0.5h-5c0,0.7,0.2,1.3,0.6,1.8c0.4,0.4,0.9,0.7,1.6,0.7
			c0.4,0,0.8-0.1,1.1-0.3c0.3-0.2,0.6-0.4,0.8-0.7l0.8,0.6C781,1686.1,780.1,1686.5,778.8,1686.5z M778.7,1679.9
			c-0.5,0-0.9,0.2-1.3,0.6s-0.6,0.9-0.6,1.6h3.7v-0.1c0-0.6-0.2-1.1-0.5-1.5S779.2,1679.9,778.7,1679.9z"/>
	</g>
	<g>
	</g>
	<g>
	</g>
	<g>
	</g>
	<g>
	</g>
	<g>
	</g>
	<g>
	</g>
	<g>
	</g>
	<g>
	</g>
	<g>
	</g>
	<g>
	</g>
	<g>
	</g>
	<g>
	</g>
	<g>
	</g>
	<g>
	</g>
	<g>
	</g>
</g>
</svg>
