<?xml version="1.0" encoding="utf-8"?>
<!-- Generator: Adobe Illustrator 22.0.1, SVG Export Plug-In . SVG Version: 6.00 Build 0)  -->
<svg version="1.1" id="Ebene_1" xmlns="http://www.w3.org/2000/svg" xmlns:xlink="http://www.w3.org/1999/xlink" x="0px" y="0px"
	 viewBox="0 0 460.8 460.8" style="enable-background:new 0 0 460.8 460.8;" xml:space="preserve">
<style type="text/css">
	.st0{fill-rule:evenodd;clip-rule:evenodd;fill:#010202;}
</style>
<path class="st0" d="M281.3,0C341.1,0,401,0,460.8,0c0,153.6,0,307.2,0,460.8c-59.8,0-119.7,0-179.5,0c0-44,0-88,0-132
	c-13.4,0-29.6,6.9-42.6,10c-17,4-33.9,8-50.9,12c-31.1,7.3-62.2,14.7-93.3,22c-17,4-33.9,8-50.9,12c0,0-16.3,4.8-17.4,3.8
	c-1.9-1.9-1.6-22.1-1.8-24.9c-2.3-31.9-5.5-63.9-6.5-95.9c-1.1-32.9-2.1-65.7-3.2-98.6c-0.5-17.1-1-34.2-1.5-51.3
	C13,109,9.1,92.2,11.9,83.7C16.5,69.3,44,74.7,57.6,74c33.7-1.7,67.4-3,101-4.4c1.2-4.9,1.3-6,4.8-8.6c-16.4-14.1,17.6-14.2,4.8,0.2
	c4.1,8.8,5.4,8.1,14.9,7.4c0-3,0.3-7,1.4-8.9c-2.9-2.9-3-2.9,1-3.8c0-2.4-8.3-10.6-5.3-13.7c1.8,0.9,2.9,1.8,5.5,1.9
	c-0.8-8.3,8.5-7.3,10.6-1.7c2.3-0.5,3.2,0.2,5,1.2c-1.4,4.5-2.7,9-4.1,13.4c4.9,3.9,1.6,1.2-1,3.4c2.7,1.6,3.9,4.1,3.4,7.4
	c11.2,0,2.9-8.1,10.3-8.9c-2.6-3.9-5.9-7.6-1-10.3c11-6.2,8.3,14.7,10.1,18.3c8.3-0.3,7.9-0.8,13-6.2c-3.1-4.7-0.2-22.3,3.4-26.2
	c-0.8-1.2-1.6-1.1-1.9-2.9c2-0.3,1.6-1.1,1.9-2.9c-0.5-0.1-0.8,0.3-1,1c-0.1-5.8-5.7-12.4,2.4-13.4c0.8-2.3,0-3.5-2.4-3.8
	c0-2,3.8-2.7,5.3-4.8c1.9,0.6,0.6,3.2,3.1,4.1c-2,5.4,2.5,4.4,2.6,6.5c0.3,5.3-1.8,10.9-1.8,15.9c0.1,8.9,3.3,19,1.5,28.2
	c11.5,3.5,23.5,2,36,1.4C281.3,42.6,281.3,21.3,281.3,0z"/>
</svg>
