<?xml version="1.0" encoding="utf-8"?>
<!-- Generator: Adobe Illustrator 16.0.0, SVG Export Plug-In . SVG Version: 6.00 Build 0)  -->
<!DOCTYPE svg PUBLIC "-//W3C//DTD SVG 1.1//EN" "http://www.w3.org/Graphics/SVG/1.1/DTD/svg11.dtd">
<svg version="1.1" id="Ebene_1" xmlns="http://www.w3.org/2000/svg" xmlns:xlink="http://www.w3.org/1999/xlink" x="0px" y="0px"
	 width="1920px" height="1080px" viewBox="0 0 1920 1080" enable-background="new 0 0 1920 1080" xml:space="preserve">
<g>
	<defs>
		<rect id="SVGID_1_" x="2.334" y="43.84" width="1945.978" height="931.333"/>
	</defs>
	<clipPath id="SVGID_2_">
		<use xlink:href="#SVGID_1_"  overflow="visible"/>
	</clipPath>
	
		<line clip-path="url(#SVGID_2_)" fill="none" stroke="#565650" stroke-width="4" stroke-linecap="round" stroke-linejoin="round" x1="314.672" y1="466.989" x2="637.361" y2="192.805"/>
</g>
<g>
	<defs>
		<rect id="SVGID_3_" x="2.334" y="43.84" width="1945.978" height="931.333"/>
	</defs>
	<clipPath id="SVGID_4_">
		<use xlink:href="#SVGID_3_"  overflow="visible"/>
	</clipPath>
	
		<line clip-path="url(#SVGID_4_)" fill="none" stroke="#565650" stroke-width="4" stroke-linecap="round" stroke-linejoin="round" x1="960.051" y1="466.583" x2="637.361" y2="192.399"/>
</g>
<g>
	<defs>
		<rect id="SVGID_5_" x="2.334" y="43.84" width="1945.978" height="931.333"/>
	</defs>
	<clipPath id="SVGID_6_">
		<use xlink:href="#SVGID_5_"  overflow="visible"/>
	</clipPath>
	
		<line clip-path="url(#SVGID_6_)" fill="none" stroke="#565650" stroke-width="4" stroke-linecap="round" stroke-linejoin="round" x1="958.731" y1="466.989" x2="1281.421" y2="192.805"/>
</g>
<g>
	<defs>
		<rect id="SVGID_7_" x="2.334" y="43.84" width="1945.978" height="931.333"/>
	</defs>
	<clipPath id="SVGID_8_">
		<use xlink:href="#SVGID_7_"  overflow="visible"/>
	</clipPath>
	
		<line clip-path="url(#SVGID_8_)" fill="none" stroke="#565650" stroke-width="4" stroke-linecap="round" stroke-linejoin="round" x1="1604.109" y1="466.583" x2="1281.421" y2="192.399"/>
</g>
<g>
	<defs>
		<rect id="SVGID_9_" x="2.334" y="43.84" width="1945.978" height="931.333"/>
	</defs>
	<clipPath id="SVGID_10_">
		<use xlink:href="#SVGID_9_"  overflow="visible"/>
	</clipPath>
	
		<line clip-path="url(#SVGID_10_)" fill="none" stroke="#565650" stroke-width="4" stroke-linecap="round" stroke-linejoin="round" x1="314.875" y1="465.365" x2="637.564" y2="739.549"/>
</g>
<g>
	<defs>
		<rect id="SVGID_11_" x="2.334" y="43.84" width="1945.978" height="931.333"/>
	</defs>
	<clipPath id="SVGID_12_">
		<use xlink:href="#SVGID_11_"  overflow="visible"/>
	</clipPath>
	
		<line clip-path="url(#SVGID_12_)" fill="none" stroke="#565650" stroke-width="4" stroke-linecap="round" stroke-linejoin="round" x1="960.254" y1="465.771" x2="637.564" y2="739.955"/>
</g>
<g>
	<defs>
		<rect id="SVGID_13_" x="2.334" y="43.84" width="1945.978" height="931.333"/>
	</defs>
	<clipPath id="SVGID_14_">
		<use xlink:href="#SVGID_13_"  overflow="visible"/>
	</clipPath>
	
		<line clip-path="url(#SVGID_14_)" fill="none" stroke="#565650" stroke-width="4" stroke-linecap="round" stroke-linejoin="round" x1="958.833" y1="466.177" x2="1281.623" y2="740.362"/>
</g>
<g>
	<defs>
		<rect id="SVGID_15_" x="2.334" y="43.84" width="1945.978" height="931.333"/>
	</defs>
	<clipPath id="SVGID_16_">
		<use xlink:href="#SVGID_15_"  overflow="visible"/>
	</clipPath>
	
		<line clip-path="url(#SVGID_16_)" fill="none" stroke="#565650" stroke-width="4" stroke-linecap="round" stroke-linejoin="round" x1="1604.313" y1="466.685" x2="1281.623" y2="740.767"/>
</g>
<g>
	<defs>
		<rect id="SVGID_17_" x="2.334" y="43.84" width="1945.978" height="931.333"/>
	</defs>
	<clipPath id="SVGID_18_">
		<use xlink:href="#SVGID_17_"  overflow="visible"/>
	</clipPath>
	
		<line clip-path="url(#SVGID_18_)" fill="none" stroke="#565650" stroke-width="3" stroke-linecap="round" stroke-linejoin="round" stroke-dasharray="0,8.988" x1="637.158" y1="196.66" x2="637.158" y2="736.81"/>
</g>
<g>
	<defs>
		<rect id="SVGID_19_" x="2.334" y="43.84" width="1945.978" height="931.333"/>
	</defs>
	<clipPath id="SVGID_20_">
		<use xlink:href="#SVGID_19_"  overflow="visible"/>
	</clipPath>
	
		<path clip-path="url(#SVGID_20_)" fill="none" stroke="#565650" stroke-width="3" stroke-linecap="round" stroke-linejoin="round" d="
		M637.158,739.448L637.158,739.448 M637.158,191.384L637.158,191.384"/>
</g>
<g>
	<defs>
		<rect id="SVGID_21_" x="2.334" y="43.84" width="1945.978" height="931.333"/>
	</defs>
	<clipPath id="SVGID_22_">
		<use xlink:href="#SVGID_21_"  overflow="visible"/>
	</clipPath>
	
		<line clip-path="url(#SVGID_22_)" fill="none" stroke="#565650" stroke-width="3" stroke-linecap="round" stroke-linejoin="round" stroke-dasharray="0,8.988" x1="1279.188" y1="197.473" x2="1279.188" y2="737.52"/>
</g>
<g>
	<defs>
		<rect id="SVGID_23_" x="2.334" y="43.84" width="1945.978" height="931.333"/>
	</defs>
	<clipPath id="SVGID_24_">
		<use xlink:href="#SVGID_23_"  overflow="visible"/>
	</clipPath>
	
		<path clip-path="url(#SVGID_24_)" fill="none" stroke="#565650" stroke-width="3" stroke-linecap="round" stroke-linejoin="round" d="
		M1279.188,740.158L1279.188,740.158 M1279.188,192.196L1279.188,192.196"/>
</g>
<g>
	<defs>
		<rect id="SVGID_25_" x="2.334" y="43.84" width="1945.978" height="931.333"/>
	</defs>
	<clipPath id="SVGID_26_">
		<use xlink:href="#SVGID_25_"  overflow="visible"/>
	</clipPath>
</g>
<g>
	<defs>
		<rect id="SVGID_27_" x="2.334" y="43.84" width="1945.978" height="931.333"/>
	</defs>
	<clipPath id="SVGID_28_">
		<use xlink:href="#SVGID_27_"  overflow="visible"/>
	</clipPath>
</g>
<g>
	<defs>
		<rect id="SVGID_29_" x="2.334" y="43.84" width="1945.978" height="931.333"/>
	</defs>
	<clipPath id="SVGID_30_">
		<use xlink:href="#SVGID_29_"  overflow="visible"/>
	</clipPath>
</g>
<g>
	<defs>
		<rect id="SVGID_31_" x="2.334" y="43.84" width="1945.978" height="931.333"/>
	</defs>
	<clipPath id="SVGID_32_">
		<use xlink:href="#SVGID_31_"  overflow="visible"/>
	</clipPath>
</g>
<g>
	<defs>
		<rect id="SVGID_33_" x="2.334" y="43.84" width="1945.978" height="931.333"/>
	</defs>
	<clipPath id="SVGID_34_">
		<use xlink:href="#SVGID_33_"  overflow="visible"/>
	</clipPath>
</g>
<g>
	<defs>
		<rect id="SVGID_35_" x="2.334" y="43.84" width="1945.978" height="931.333"/>
	</defs>
	<clipPath id="SVGID_36_">
		<use xlink:href="#SVGID_35_"  overflow="visible"/>
	</clipPath>
</g>
<g>
	<defs>
		<rect id="SVGID_37_" x="2.334" y="43.84" width="1945.978" height="931.333"/>
	</defs>
	<clipPath id="SVGID_38_">
		<use xlink:href="#SVGID_37_"  overflow="visible"/>
	</clipPath>
</g>
<g>
	<defs>
		<rect id="SVGID_39_" x="2.334" y="43.84" width="1945.978" height="931.333"/>
	</defs>
	<clipPath id="SVGID_40_">
		<use xlink:href="#SVGID_39_"  overflow="visible"/>
	</clipPath>
</g>
<g>
	<defs>
		<rect id="SVGID_41_" x="2.334" y="43.84" width="1945.978" height="931.333"/>
	</defs>
	<clipPath id="SVGID_42_">
		<use xlink:href="#SVGID_41_"  overflow="visible"/>
	</clipPath>
</g>
<g>
	<defs>
		<rect id="SVGID_43_" x="2.334" y="43.84" width="1945.978" height="931.333"/>
	</defs>
	<clipPath id="SVGID_44_">
		<use xlink:href="#SVGID_43_"  overflow="visible"/>
	</clipPath>
</g>
<g>
	<defs>
		<rect id="SVGID_45_" x="2.334" y="43.84" width="1945.978" height="931.333"/>
	</defs>
	<clipPath id="SVGID_46_">
		<use xlink:href="#SVGID_45_"  overflow="visible"/>
	</clipPath>
</g>
<g>
	<defs>
		<rect id="SVGID_47_" x="2.334" y="43.84" width="1945.978" height="931.333"/>
	</defs>
	<clipPath id="SVGID_48_">
		<use xlink:href="#SVGID_47_"  overflow="visible"/>
	</clipPath>
</g>
<g>
	<defs>
		<rect id="SVGID_49_" x="2.334" y="43.84" width="1945.978" height="931.333"/>
	</defs>
	<clipPath id="SVGID_50_">
		<use xlink:href="#SVGID_49_"  overflow="visible"/>
	</clipPath>
</g>
<g>
	<defs>
		<rect id="SVGID_51_" x="2.334" y="43.84" width="1945.978" height="931.333"/>
	</defs>
	<clipPath id="SVGID_52_">
		<use xlink:href="#SVGID_51_"  overflow="visible"/>
	</clipPath>
</g>
<g>
	<defs>
		<rect id="SVGID_53_" x="2.334" y="43.84" width="1945.978" height="931.333"/>
	</defs>
	<clipPath id="SVGID_54_">
		<use xlink:href="#SVGID_53_"  overflow="visible"/>
	</clipPath>
	<g clip-path="url(#SVGID_54_)">
		<g>
			<defs>
				<rect id="SVGID_55_" x="-25.978" y="85.838" width="1945.978" height="931.333"/>
			</defs>
			<clipPath id="SVGID_56_">
				<use xlink:href="#SVGID_55_"  overflow="visible"/>
			</clipPath>
		</g>
		<g>
			<defs>
				<rect id="SVGID_57_" x="2.334" y="43.84" width="1945.978" height="931.333"/>
			</defs>
			<clipPath id="SVGID_58_">
				<use xlink:href="#SVGID_57_"  overflow="visible"/>
			</clipPath>
			
				<line clip-path="url(#SVGID_58_)" fill="none" stroke="#231F20" stroke-width="3" x1="7.61" y1="810.176" x2="1907.012" y2="810.176"/>
		</g>
		<g>
			<defs>
				<rect id="SVGID_59_" x="2.334" y="43.84" width="1945.978" height="931.333"/>
			</defs>
			<clipPath id="SVGID_60_">
				<use xlink:href="#SVGID_59_"  overflow="visible"/>
			</clipPath>
			
				<line clip-path="url(#SVGID_60_)" fill="none" stroke="#565650" stroke-width="4" x1="1018.805" y1="195.95" x2="1018.805" y2="330.405"/>
		</g>
		<g>
			<defs>
				<rect id="SVGID_61_" x="2.334" y="43.84" width="1945.978" height="931.333"/>
			</defs>
			<clipPath id="SVGID_62_">
				<use xlink:href="#SVGID_61_"  overflow="visible"/>
			</clipPath>
			<polyline clip-path="url(#SVGID_62_)" fill="none" stroke="#231F20" stroke-width="4" points="1022.153,321.17 1018.805,330.405 
				1015.456,321.17 			"/>
		</g>
		<g>
			<defs>
				<rect id="SVGID_63_" x="2.334" y="43.84" width="1945.978" height="931.333"/>
			</defs>
			<clipPath id="SVGID_64_">
				<use xlink:href="#SVGID_63_"  overflow="visible"/>
			</clipPath>
		</g>
	</g>
</g>
<g>
	<path fill="#444444" d="M321.802,866.573l-3.473-4.945c-0.43,0.031-0.767,0.046-1.012,0.046h-3.979v4.899h-2.3v-16.1h6.279
		c2.085,0,3.726,0.498,4.922,1.494c1.196,0.997,1.794,2.369,1.794,4.117c0,1.242-0.307,2.3-0.92,3.174
		c-0.614,0.874-1.488,1.511-2.622,1.909l3.818,5.405H321.802z M320.583,858.777c0.767-0.629,1.15-1.525,1.15-2.691
		c0-1.165-0.383-2.059-1.15-2.68c-0.767-0.62-1.878-0.931-3.335-0.931h-3.91v7.245h3.91
		C318.705,859.72,319.816,859.406,320.583,858.777z"/>
	<path fill="#444444" d="M338.408,861.214h-9.89c0.138,1.074,0.61,1.937,1.415,2.588c0.805,0.652,1.806,0.978,3.001,0.978
		c1.457,0,2.63-0.49,3.519-1.472l1.219,1.426c-0.552,0.644-1.239,1.135-2.059,1.472c-0.82,0.338-1.736,0.506-2.749,0.506
		c-1.288,0-2.431-0.265-3.427-0.793c-0.997-0.529-1.768-1.269-2.312-2.22c-0.544-0.95-0.817-2.024-0.817-3.22
		c0-1.181,0.265-2.246,0.793-3.197c0.529-0.95,1.257-1.69,2.185-2.22c0.928-0.528,1.974-0.793,3.14-0.793
		c1.165,0,2.204,0.265,3.117,0.793c0.912,0.529,1.625,1.27,2.139,2.22c0.514,0.951,0.771,2.039,0.771,3.266
		C338.454,860.716,338.438,860.939,338.408,861.214z M329.771,857.098c-0.713,0.644-1.131,1.487-1.254,2.529h7.82
		c-0.123-1.026-0.541-1.866-1.253-2.519c-0.713-0.651-1.599-0.978-2.657-0.978S330.484,856.453,329.771,857.098z"/>
	<path fill="#444444" d="M342.134,866.309c-0.92-0.268-1.641-0.609-2.162-1.023l0.92-1.748c0.537,0.384,1.188,0.69,1.955,0.92
		c0.767,0.23,1.541,0.345,2.323,0.345c1.932,0,2.898-0.552,2.898-1.655c0-0.368-0.13-0.659-0.391-0.874s-0.586-0.372-0.978-0.472
		c-0.391-0.1-0.947-0.211-1.667-0.334c-0.981-0.152-1.782-0.329-2.403-0.528s-1.154-0.537-1.599-1.013
		c-0.445-0.475-0.667-1.142-0.667-2.001c0-1.104,0.46-1.989,1.38-2.656c0.92-0.667,2.154-1,3.703-1c0.813,0,1.625,0.1,2.438,0.299
		c0.813,0.199,1.479,0.468,2.001,0.805l-0.943,1.748c-0.997-0.644-2.17-0.966-3.519-0.966c-0.936,0-1.648,0.153-2.139,0.46
		s-0.736,0.713-0.736,1.219c0,0.399,0.138,0.713,0.414,0.943c0.276,0.229,0.617,0.398,1.023,0.506s0.978,0.23,1.713,0.368
		c0.981,0.169,1.775,0.349,2.381,0.54c0.605,0.192,1.123,0.518,1.552,0.978s0.644,1.104,0.644,1.933
		c0,1.104-0.472,1.981-1.415,2.633c-0.943,0.652-2.228,0.978-3.853,0.978C344.012,866.711,343.054,866.577,342.134,866.309z"/>
	<path fill="#444444" d="M364.006,861.214h-9.89c0.138,1.074,0.61,1.937,1.415,2.588c0.805,0.652,1.806,0.978,3.001,0.978
		c1.457,0,2.63-0.49,3.519-1.472l1.219,1.426c-0.552,0.644-1.239,1.135-2.059,1.472c-0.82,0.338-1.736,0.506-2.749,0.506
		c-1.288,0-2.431-0.265-3.427-0.793c-0.997-0.529-1.768-1.269-2.312-2.22c-0.544-0.95-0.817-2.024-0.817-3.22
		c0-1.181,0.265-2.246,0.793-3.197c0.529-0.95,1.257-1.69,2.185-2.22c0.928-0.528,1.974-0.793,3.14-0.793
		c1.165,0,2.204,0.265,3.117,0.793c0.912,0.529,1.625,1.27,2.139,2.22c0.514,0.951,0.771,2.039,0.771,3.266
		C364.052,860.716,364.037,860.939,364.006,861.214z M355.37,857.098c-0.713,0.644-1.131,1.487-1.254,2.529h7.82
		c-0.123-1.026-0.541-1.866-1.253-2.519c-0.713-0.651-1.599-0.978-2.657-0.978S356.083,856.453,355.37,857.098z"/>
	<path fill="#444444" d="M375.082,855.51c0.897,0.828,1.345,2.063,1.345,3.703v7.36h-2.093v-1.61
		c-0.368,0.567-0.894,1.001-1.576,1.3c-0.683,0.299-1.491,0.448-2.426,0.448c-1.365,0-2.458-0.329-3.278-0.988s-1.23-1.526-1.23-2.6
		s0.391-1.936,1.173-2.587c0.782-0.652,2.024-0.978,3.726-0.978h3.496v-0.438c0-0.95-0.276-1.679-0.828-2.185
		c-0.552-0.506-1.365-0.76-2.438-0.76c-0.721,0-1.426,0.119-2.116,0.357c-0.69,0.237-1.273,0.556-1.748,0.954l-0.92-1.656
		c0.628-0.506,1.38-0.893,2.254-1.161s1.802-0.402,2.783-0.402C372.893,854.269,374.185,854.683,375.082,855.51z M372.885,864.446
		c0.613-0.375,1.058-0.908,1.334-1.598v-1.702h-3.404c-1.871,0-2.806,0.629-2.806,1.886c0,0.613,0.238,1.097,0.713,1.449
		s1.135,0.528,1.978,0.528S372.271,864.822,372.885,864.446z"/>
	<path fill="#444444" d="M384.338,854.821c0.751-0.368,1.664-0.552,2.737-0.552v2.139c-0.123-0.015-0.292-0.023-0.506-0.023
		c-1.196,0-2.135,0.357-2.817,1.07c-0.683,0.713-1.024,1.729-1.024,3.047v6.072h-2.208v-12.19h2.116v2.048
		C383.02,855.726,383.587,855.189,384.338,854.821z"/>
	<path fill="#444444" d="M391.664,865.906c-0.974-0.536-1.736-1.276-2.289-2.22c-0.552-0.942-0.828-2.013-0.828-3.208
		c0-1.196,0.276-2.266,0.828-3.209c0.552-0.942,1.314-1.679,2.289-2.208c0.974-0.528,2.082-0.793,3.323-0.793
		c1.104,0,2.089,0.222,2.956,0.667c0.866,0.444,1.537,1.089,2.013,1.932l-1.679,1.081c-0.383-0.583-0.859-1.02-1.426-1.311
		c-0.567-0.292-1.196-0.438-1.886-0.438c-0.797,0-1.514,0.177-2.15,0.529s-1.135,0.854-1.495,1.506
		c-0.36,0.652-0.541,1.399-0.541,2.243c0,0.858,0.18,1.613,0.541,2.266c0.36,0.651,0.859,1.153,1.495,1.506
		c0.636,0.354,1.353,0.529,2.15,0.529c0.69,0,1.319-0.146,1.886-0.438c0.567-0.291,1.042-0.728,1.426-1.311l1.679,1.058
		c-0.476,0.844-1.146,1.492-2.013,1.944s-1.852,0.678-2.956,0.678C393.746,866.711,392.638,866.444,391.664,865.906z"/>
	<path fill="#444444" d="M412.847,855.614c0.912,0.897,1.369,2.213,1.369,3.945v7.015h-2.208v-6.762c0-1.181-0.284-2.07-0.851-2.668
		c-0.567-0.599-1.38-0.897-2.438-0.897c-1.196,0-2.139,0.349-2.829,1.047c-0.69,0.697-1.035,1.698-1.035,3.001v6.279h-2.208v-17.066
		h2.208v6.602c0.46-0.583,1.062-1.035,1.806-1.357c0.744-0.321,1.576-0.482,2.496-0.482
		C410.704,854.269,411.935,854.717,412.847,855.614z"/>
</g>
<g>
	<path fill="#444444" d="M456.688,864.917c-1.196-1.227-1.794-2.99-1.794-5.29v-9.153h2.3v9.062c0,3.45,1.51,5.175,4.531,5.175
		c1.472,0,2.599-0.425,3.381-1.276c0.782-0.851,1.173-2.15,1.173-3.898v-9.062h2.231v9.153c0,2.315-0.598,4.083-1.794,5.302
		c-1.196,1.219-2.868,1.828-5.014,1.828C459.555,866.757,457.884,866.145,456.688,864.917z"/>
	<path fill="#444444" d="M473.524,866.309c-0.92-0.268-1.641-0.609-2.162-1.023l0.92-1.748c0.537,0.384,1.188,0.69,1.955,0.92
		c0.767,0.23,1.541,0.345,2.323,0.345c1.932,0,2.898-0.552,2.898-1.655c0-0.368-0.13-0.659-0.391-0.874s-0.586-0.372-0.978-0.472
		c-0.391-0.1-0.947-0.211-1.667-0.334c-0.981-0.152-1.782-0.329-2.403-0.528s-1.154-0.537-1.599-1.013
		c-0.445-0.475-0.667-1.142-0.667-2.001c0-1.104,0.46-1.989,1.38-2.656c0.92-0.667,2.154-1,3.703-1c0.813,0,1.625,0.1,2.438,0.299
		c0.813,0.199,1.479,0.468,2.001,0.805l-0.943,1.748c-0.997-0.644-2.17-0.966-3.519-0.966c-0.936,0-1.648,0.153-2.139,0.46
		s-0.736,0.713-0.736,1.219c0,0.399,0.138,0.713,0.414,0.943c0.276,0.229,0.617,0.398,1.023,0.506s0.978,0.23,1.713,0.368
		c0.981,0.169,1.775,0.349,2.381,0.54c0.605,0.192,1.123,0.518,1.552,0.978s0.644,1.104,0.644,1.933
		c0,1.104-0.472,1.981-1.415,2.633c-0.943,0.652-2.228,0.978-3.853,0.978C475.402,866.711,474.444,866.577,473.524,866.309z"/>
	<path fill="#444444" d="M495.396,861.214h-9.89c0.138,1.074,0.61,1.937,1.415,2.588c0.805,0.652,1.806,0.978,3.001,0.978
		c1.457,0,2.63-0.49,3.519-1.472l1.219,1.426c-0.552,0.644-1.239,1.135-2.059,1.472c-0.82,0.338-1.736,0.506-2.749,0.506
		c-1.288,0-2.431-0.265-3.427-0.793c-0.997-0.529-1.768-1.269-2.312-2.22c-0.544-0.95-0.817-2.024-0.817-3.22
		c0-1.181,0.265-2.246,0.793-3.197c0.529-0.95,1.257-1.69,2.185-2.22c0.928-0.528,1.974-0.793,3.14-0.793
		c1.165,0,2.204,0.265,3.117,0.793c0.912,0.529,1.625,1.27,2.139,2.22c0.514,0.951,0.771,2.039,0.771,3.266
		C495.442,860.716,495.427,860.939,495.396,861.214z M486.76,857.098c-0.713,0.644-1.131,1.487-1.254,2.529h7.82
		c-0.123-1.026-0.541-1.866-1.253-2.519c-0.713-0.651-1.599-0.978-2.657-0.978S487.473,856.453,486.76,857.098z"/>
	<path fill="#444444" d="M502.32,854.821c0.751-0.368,1.664-0.552,2.737-0.552v2.139c-0.123-0.015-0.292-0.023-0.506-0.023
		c-1.196,0-2.135,0.357-2.817,1.07c-0.683,0.713-1.024,1.729-1.024,3.047v6.072h-2.208v-12.19h2.116v2.048
		C501.001,855.726,501.568,855.189,502.32,854.821z"/>
	<path fill="#444444" d="M526.125,864.573v2.001H514.44v-16.1h11.362v2.001h-9.062v4.944h8.073v1.955h-8.073v5.198H526.125z"/>
	<path fill="#444444" d="M548.422,855.603c0.897,0.889,1.346,2.208,1.346,3.956v7.015h-2.208v-6.762c0-1.181-0.272-2.07-0.816-2.668
		c-0.544-0.599-1.323-0.897-2.334-0.897c-1.12,0-2.009,0.349-2.668,1.047c-0.66,0.697-0.989,1.698-0.989,3.001v6.279h-2.208v-6.762
		c0-1.181-0.272-2.07-0.816-2.668c-0.544-0.599-1.322-0.897-2.334-0.897c-1.12,0-2.009,0.349-2.668,1.047
		c-0.66,0.697-0.989,1.698-0.989,3.001v6.279h-2.208v-12.19h2.116v1.817c0.444-0.629,1.027-1.107,1.748-1.438
		c0.721-0.329,1.541-0.494,2.461-0.494c0.951,0,1.794,0.191,2.53,0.574c0.736,0.384,1.303,0.943,1.702,1.68
		c0.46-0.705,1.1-1.257,1.92-1.656c0.82-0.398,1.744-0.598,2.771-0.598C546.31,854.269,547.525,854.713,548.422,855.603z"/>
	<path fill="#444444" d="M563.476,855.05c0.935,0.521,1.667,1.25,2.196,2.186c0.529,0.936,0.794,2.017,0.794,3.243
		s-0.265,2.312-0.794,3.254c-0.529,0.943-1.261,1.676-2.196,2.197c-0.936,0.521-1.994,0.781-3.174,0.781
		c-0.874,0-1.676-0.168-2.404-0.506c-0.729-0.337-1.345-0.828-1.852-1.472v6.302h-2.208v-16.652h2.116v1.933
		c0.491-0.675,1.111-1.185,1.863-1.529c0.751-0.346,1.579-0.518,2.484-0.518C561.482,854.269,562.541,854.53,563.476,855.05z
		 M562.223,864.239c0.621-0.359,1.111-0.865,1.472-1.518c0.36-0.651,0.54-1.399,0.54-2.242c0-0.844-0.18-1.591-0.54-2.243
		c-0.361-0.651-0.851-1.153-1.472-1.506s-1.323-0.529-2.104-0.529c-0.767,0-1.46,0.181-2.082,0.541s-1.112,0.862-1.472,1.506
		c-0.36,0.645-0.541,1.388-0.541,2.231c0,0.843,0.176,1.591,0.529,2.242c0.353,0.652,0.843,1.158,1.472,1.518
		c0.629,0.361,1.326,0.541,2.093,0.541C560.9,864.78,561.602,864.6,562.223,864.239z"/>
	<path fill="#444444" d="M577.725,855.51c0.897,0.828,1.345,2.063,1.345,3.703v7.36h-2.093v-1.61
		c-0.368,0.567-0.894,1.001-1.576,1.3c-0.683,0.299-1.491,0.448-2.426,0.448c-1.365,0-2.458-0.329-3.278-0.988s-1.23-1.526-1.23-2.6
		s0.391-1.936,1.173-2.587c0.782-0.652,2.024-0.978,3.726-0.978h3.496v-0.438c0-0.95-0.276-1.679-0.828-2.185
		c-0.552-0.506-1.365-0.76-2.438-0.76c-0.721,0-1.426,0.119-2.116,0.357c-0.69,0.237-1.273,0.556-1.748,0.954l-0.92-1.656
		c0.628-0.506,1.38-0.893,2.254-1.161s1.802-0.402,2.783-0.402C575.536,854.269,576.828,854.683,577.725,855.51z M575.528,864.446
		c0.613-0.375,1.058-0.908,1.334-1.598v-1.702h-3.404c-1.871,0-2.806,0.629-2.806,1.886c0,0.613,0.238,1.097,0.713,1.449
		s1.135,0.528,1.978,0.528S574.915,864.822,575.528,864.446z"/>
	<path fill="#444444" d="M590.018,865.861c-0.322,0.276-0.721,0.487-1.196,0.633c-0.476,0.146-0.966,0.218-1.472,0.218
		c-1.227,0-2.177-0.329-2.852-0.988s-1.012-1.603-1.012-2.829V856.2h-2.07v-1.817h2.07v-2.668h2.208v2.668h3.496v1.817h-3.496v6.601
		c0,0.66,0.165,1.166,0.495,1.519c0.33,0.353,0.801,0.529,1.415,0.529c0.674,0,1.25-0.192,1.725-0.575L590.018,865.861z"/>
	<path fill="#444444" d="M602.886,855.614c0.912,0.897,1.369,2.213,1.369,3.945v7.015h-2.208v-6.762c0-1.181-0.284-2.07-0.851-2.668
		c-0.567-0.599-1.38-0.897-2.438-0.897c-1.196,0-2.139,0.349-2.829,1.047c-0.69,0.697-1.035,1.698-1.035,3.001v6.279h-2.208v-17.066
		h2.208v6.602c0.46-0.583,1.062-1.035,1.806-1.357c0.744-0.321,1.576-0.482,2.496-0.482
		C600.743,854.269,601.974,854.717,602.886,855.614z"/>
	<path fill="#444444" d="M618.906,854.383l-5.911,13.409c-0.521,1.242-1.131,2.116-1.829,2.622
		c-0.698,0.506-1.538,0.759-2.519,0.759c-0.598,0-1.177-0.096-1.736-0.287c-0.56-0.192-1.024-0.472-1.392-0.84l0.943-1.655
		c0.628,0.598,1.357,0.896,2.185,0.896c0.537,0,0.985-0.142,1.345-0.426c0.36-0.283,0.686-0.771,0.978-1.46l0.391-0.852
		l-5.382-12.167h2.3l4.255,9.752l4.209-9.752H618.906z"/>
</g>
<g>
	<path fill="#444444" d="M436.559,449.818v20.776h-3.36v-1.932c-0.579,0.709-1.293,1.241-2.142,1.596
		c-0.85,0.354-1.788,0.532-2.814,0.532c-1.438,0-2.73-0.317-3.878-0.952s-2.049-1.535-2.702-2.702
		c-0.654-1.166-0.98-2.506-0.98-4.018c0-1.513,0.326-2.847,0.98-4.005c0.653-1.156,1.554-2.053,2.702-2.688s2.44-0.952,3.878-0.952
		c0.989,0,1.895,0.168,2.716,0.504s1.521,0.84,2.1,1.513v-7.673H436.559z M430.931,467.22c0.672-0.383,1.204-0.929,1.596-1.638
		c0.392-0.709,0.588-1.53,0.588-2.464s-0.196-1.755-0.588-2.465c-0.392-0.709-0.924-1.255-1.596-1.638
		c-0.672-0.382-1.428-0.574-2.268-0.574s-1.596,0.192-2.268,0.574c-0.672,0.383-1.204,0.929-1.596,1.638
		c-0.392,0.71-0.588,1.531-0.588,2.465s0.196,1.755,0.588,2.464c0.392,0.709,0.924,1.255,1.596,1.638
		c0.672,0.383,1.428,0.574,2.268,0.574S430.259,467.603,430.931,467.22z"/>
	<path fill="#444444" d="M441.318,452.576c-0.43-0.401-0.644-0.9-0.644-1.498s0.214-1.097,0.644-1.498
		c0.429-0.401,0.961-0.603,1.596-0.603c0.634,0,1.167,0.191,1.596,0.574s0.644,0.863,0.644,1.442c0,0.615-0.21,1.134-0.63,1.554
		s-0.957,0.63-1.61,0.63C442.28,453.178,441.748,452.978,441.318,452.576z M441.15,455.642h3.5v14.952h-3.5V455.642z"/>
	<path fill="#444444" d="M450.306,470.314c-1.158-0.317-2.082-0.718-2.772-1.204l1.344-2.659c0.672,0.447,1.479,0.808,2.422,1.077
		c0.942,0.271,1.871,0.406,2.786,0.406c2.09,0,3.136-0.55,3.136-1.651c0-0.522-0.266-0.887-0.798-1.093
		c-0.532-0.205-1.386-0.401-2.562-0.588c-1.232-0.187-2.236-0.401-3.01-0.644s-1.447-0.667-2.016-1.274
		c-0.57-0.606-0.854-1.451-0.854-2.534c0-1.418,0.592-2.552,1.778-3.401c1.185-0.85,2.786-1.274,4.802-1.274
		c1.026,0,2.053,0.117,3.08,0.351c1.026,0.233,1.867,0.546,2.52,0.938l-1.344,2.66c-1.27-0.746-2.698-1.12-4.284-1.12
		c-1.027,0-1.806,0.154-2.338,0.462s-0.798,0.714-0.798,1.218c0,0.561,0.284,0.957,0.854,1.19c0.569,0.233,1.451,0.453,2.646,0.658
		c1.194,0.187,2.174,0.401,2.94,0.644c0.765,0.243,1.423,0.653,1.974,1.232c0.55,0.578,0.826,1.399,0.826,2.464
		c0,1.399-0.607,2.52-1.82,3.359c-1.214,0.841-2.866,1.261-4.956,1.261C452.648,470.79,451.463,470.631,450.306,470.314z"/>
	<path fill="#444444" d="M466.35,469.81c-1.232-0.653-2.193-1.563-2.884-2.729c-0.691-1.167-1.036-2.487-1.036-3.962
		s0.345-2.791,1.036-3.948c0.69-1.157,1.647-2.063,2.87-2.716c1.222-0.653,2.618-0.98,4.186-0.98c1.475,0,2.768,0.299,3.878,0.896
		c1.11,0.598,1.946,1.456,2.506,2.575l-2.688,1.568c-0.43-0.69-0.966-1.208-1.61-1.554s-1.349-0.519-2.114-0.519
		c-1.307,0-2.39,0.425-3.248,1.274c-0.859,0.85-1.288,1.983-1.288,3.402c0,1.418,0.425,2.553,1.274,3.401
		c0.849,0.85,1.936,1.274,3.262,1.274c0.765,0,1.47-0.173,2.114-0.519c0.644-0.345,1.18-0.863,1.61-1.554l2.688,1.568
		c-0.579,1.12-1.424,1.983-2.534,2.59c-1.111,0.606-2.394,0.91-3.85,0.91C468.973,470.79,467.582,470.463,466.35,469.81z"/>
	<path fill="#444444" d="M482.338,469.81c-1.214-0.653-2.161-1.563-2.842-2.729c-0.682-1.167-1.022-2.487-1.022-3.962
		s0.34-2.791,1.022-3.948c0.681-1.157,1.628-2.063,2.842-2.716c1.213-0.653,2.576-0.98,4.088-0.98c1.53,0,2.902,0.327,4.116,0.98
		s2.161,1.559,2.842,2.716c0.681,1.157,1.022,2.474,1.022,3.948s-0.341,2.795-1.022,3.962c-0.682,1.166-1.629,2.076-2.842,2.729
		s-2.585,0.98-4.116,0.98C484.914,470.79,483.551,470.463,482.338,469.81z M489.618,466.506c0.84-0.858,1.26-1.988,1.26-3.388
		c0-1.4-0.42-2.529-1.26-3.389c-0.84-0.858-1.904-1.288-3.192-1.288s-2.348,0.43-3.178,1.288c-0.831,0.859-1.246,1.988-1.246,3.389
		c0,1.399,0.416,2.529,1.246,3.388s1.89,1.288,3.178,1.288S488.778,467.365,489.618,466.506z"/>
	<path fill="#444444" d="M511.346,455.642l-6.412,14.952h-3.612l-6.412-14.952h3.64l4.648,11.088l4.788-11.088H511.346z"/>
	<path fill="#444444" d="M527.109,464.238h-11.732c0.205,1.103,0.742,1.975,1.61,2.618c0.868,0.645,1.946,0.966,3.234,0.966
		c1.642,0,2.996-0.541,4.06-1.624l1.876,2.156c-0.672,0.803-1.522,1.41-2.548,1.82c-1.027,0.411-2.184,0.616-3.472,0.616
		c-1.643,0-3.09-0.327-4.34-0.98s-2.217-1.563-2.898-2.729c-0.682-1.167-1.022-2.487-1.022-3.962c0-1.456,0.331-2.768,0.994-3.935
		c0.662-1.166,1.582-2.076,2.758-2.729c1.176-0.653,2.501-0.98,3.976-0.98c1.456,0,2.758,0.322,3.906,0.966
		c1.148,0.645,2.044,1.55,2.688,2.716c0.644,1.167,0.966,2.516,0.966,4.047C527.166,463.445,527.146,463.79,527.109,464.238z
		 M516.764,459.268c-0.775,0.663-1.246,1.545-1.414,2.646h8.484c-0.149-1.083-0.607-1.96-1.372-2.632
		c-0.766-0.673-1.718-1.009-2.856-1.009C518.485,458.274,517.538,458.606,516.764,459.268z"/>
	<path fill="#444444" d="M539.178,455.474v3.332c-0.299-0.056-0.57-0.084-0.812-0.084c-1.363,0-2.427,0.396-3.192,1.19
		c-0.766,0.793-1.148,1.937-1.148,3.43v7.252h-3.5v-14.952h3.332v2.185C534.866,456.258,536.639,455.474,539.178,455.474z"/>
</g>
<g>
	<path fill="#444444" d="M74.273,676.13v12.685c0,5.264-2.688,7.896-8.064,7.896c-1.438,0-2.8-0.182-4.088-0.546
		s-2.352-0.892-3.192-1.582l1.568-2.632c0.653,0.541,1.479,0.975,2.478,1.302c0.999,0.326,2.011,0.49,3.038,0.49
		c1.643,0,2.846-0.374,3.612-1.12c0.766-0.747,1.148-1.885,1.148-3.416v-0.784c-0.598,0.653-1.326,1.148-2.184,1.484
		c-0.859,0.336-1.802,0.504-2.828,0.504c-1.419,0-2.702-0.304-3.85-0.91s-2.054-1.46-2.716-2.562
		c-0.663-1.102-0.994-2.361-0.994-3.78s0.331-2.674,0.994-3.767c0.662-1.092,1.568-1.936,2.716-2.533s2.431-0.896,3.85-0.896
		c1.083,0,2.067,0.178,2.954,0.532c0.886,0.354,1.628,0.896,2.226,1.624v-1.988H74.273z M69.555,686.252
		c0.849-0.793,1.274-1.824,1.274-3.094c0-1.251-0.425-2.269-1.274-3.052c-0.85-0.784-1.937-1.177-3.262-1.177
		c-1.344,0-2.44,0.393-3.29,1.177c-0.85,0.783-1.274,1.801-1.274,3.052c0,1.27,0.425,2.301,1.274,3.094
		c0.849,0.794,1.946,1.19,3.29,1.19C67.618,687.443,68.705,687.046,69.555,686.252z"/>
	<path fill="#444444" d="M92.864,684.726H81.132c0.205,1.103,0.742,1.975,1.61,2.618c0.868,0.645,1.946,0.966,3.234,0.966
		c1.642,0,2.996-0.541,4.06-1.624l1.876,2.156c-0.672,0.803-1.522,1.41-2.548,1.82c-1.027,0.411-2.184,0.616-3.472,0.616
		c-1.643,0-3.09-0.327-4.34-0.98s-2.217-1.563-2.898-2.729c-0.682-1.167-1.022-2.487-1.022-3.962c0-1.456,0.331-2.768,0.994-3.935
		c0.662-1.166,1.582-2.076,2.758-2.729c1.176-0.653,2.501-0.98,3.976-0.98c1.456,0,2.758,0.322,3.906,0.966
		c1.148,0.645,2.044,1.55,2.688,2.716c0.644,1.167,0.966,2.516,0.966,4.047C92.92,683.933,92.901,684.279,92.864,684.726z
		 M82.519,679.756c-0.775,0.663-1.246,1.545-1.414,2.646h8.484c-0.149-1.083-0.607-1.96-1.372-2.632
		c-0.766-0.673-1.718-1.009-2.856-1.009C84.24,678.762,83.293,679.094,82.519,679.756z"/>
	<path fill="#444444" d="M109.3,677.615c1.139,1.102,1.708,2.734,1.708,4.899v8.568h-3.5v-8.12c0-1.307-0.308-2.291-0.924-2.954
		c-0.616-0.662-1.494-0.994-2.632-0.994c-1.288,0-2.305,0.388-3.052,1.162c-0.747,0.775-1.12,1.891-1.12,3.347v7.56h-3.5V676.13
		h3.332v1.933c0.579-0.69,1.307-1.214,2.184-1.568c0.877-0.354,1.866-0.532,2.968-0.532
		C106.649,675.962,108.162,676.513,109.3,677.615z"/>
	<path fill="#444444" d="M129.6,684.726h-11.732c0.205,1.103,0.742,1.975,1.61,2.618c0.868,0.645,1.946,0.966,3.234,0.966
		c1.642,0,2.996-0.541,4.06-1.624l1.876,2.156c-0.672,0.803-1.522,1.41-2.548,1.82c-1.027,0.411-2.184,0.616-3.472,0.616
		c-1.643,0-3.09-0.327-4.34-0.98s-2.217-1.563-2.898-2.729c-0.682-1.167-1.022-2.487-1.022-3.962c0-1.456,0.331-2.768,0.994-3.935
		c0.662-1.166,1.582-2.076,2.758-2.729c1.176-0.653,2.501-0.98,3.976-0.98c1.456,0,2.758,0.322,3.906,0.966
		c1.148,0.645,2.044,1.55,2.688,2.716c0.644,1.167,0.966,2.516,0.966,4.047C129.656,683.933,129.637,684.279,129.6,684.726z
		 M119.254,679.756c-0.775,0.663-1.246,1.545-1.414,2.646h8.484c-0.149-1.083-0.607-1.96-1.372-2.632
		c-0.766-0.673-1.718-1.009-2.856-1.009C120.976,678.762,120.028,679.094,119.254,679.756z"/>
	<path fill="#444444" d="M141.668,675.962v3.332c-0.299-0.056-0.57-0.084-0.812-0.084c-1.363,0-2.427,0.396-3.192,1.19
		c-0.766,0.793-1.148,1.937-1.148,3.43v7.252h-3.5V676.13h3.332v2.185C137.356,676.746,139.129,675.962,141.668,675.962z"/>
	<path fill="#444444" d="M155.318,677.544c1.167,1.055,1.75,2.646,1.75,4.774v8.764h-3.304v-1.82
		c-0.429,0.654-1.041,1.153-1.834,1.498c-0.793,0.346-1.75,0.519-2.87,0.519c-1.12,0-2.1-0.192-2.94-0.574
		c-0.84-0.383-1.489-0.914-1.946-1.596c-0.458-0.682-0.686-1.451-0.686-2.311c0-1.344,0.499-2.422,1.498-3.233
		c0.999-0.813,2.571-1.219,4.718-1.219h3.864v-0.224c0-1.045-0.313-1.848-0.938-2.408c-0.625-0.56-1.554-0.84-2.786-0.84
		c-0.84,0-1.666,0.131-2.478,0.392c-0.812,0.262-1.498,0.626-2.058,1.093l-1.372-2.549c0.784-0.597,1.726-1.054,2.828-1.371
		s2.268-0.477,3.5-0.477C152.466,675.962,154.151,676.49,155.318,677.544z M152.126,688.128c0.681-0.401,1.162-0.975,1.442-1.722
		v-1.736h-3.612c-2.016,0-3.024,0.663-3.024,1.988c0,0.635,0.252,1.139,0.756,1.512c0.504,0.374,1.204,0.561,2.1,0.561
		C150.665,688.731,151.444,688.53,152.126,688.128z"/>
	<path fill="#444444" d="M161.547,670.306h3.5v20.776h-3.5V670.306z"/>
	<path fill="#444444" d="M180.055,690.298c-1.232-0.653-2.193-1.563-2.884-2.729c-0.691-1.167-1.036-2.487-1.036-3.962
		s0.345-2.791,1.036-3.948c0.69-1.157,1.647-2.063,2.87-2.716c1.222-0.653,2.618-0.98,4.186-0.98c1.475,0,2.768,0.299,3.878,0.896
		c1.11,0.598,1.946,1.456,2.506,2.575l-2.688,1.568c-0.43-0.69-0.966-1.208-1.61-1.554s-1.349-0.519-2.114-0.519
		c-1.307,0-2.39,0.425-3.248,1.274c-0.859,0.85-1.288,1.983-1.288,3.402c0,1.418,0.425,2.553,1.274,3.401
		c0.849,0.85,1.936,1.274,3.262,1.274c0.765,0,1.47-0.173,2.114-0.519c0.644-0.345,1.18-0.863,1.61-1.554l2.688,1.568
		c-0.579,1.12-1.424,1.983-2.534,2.59c-1.111,0.606-2.394,0.91-3.85,0.91C182.677,691.279,181.287,690.951,180.055,690.298z"/>
	<path fill="#444444" d="M206.515,677.615c1.139,1.102,1.708,2.734,1.708,4.899v8.568h-3.5v-8.12c0-1.307-0.308-2.291-0.924-2.954
		c-0.616-0.662-1.494-0.994-2.632-0.994c-1.288,0-2.305,0.388-3.052,1.162c-0.747,0.775-1.12,1.891-1.12,3.347v7.56h-3.5v-20.776
		h3.5v7.561c0.579-0.616,1.292-1.087,2.142-1.414c0.849-0.326,1.796-0.49,2.842-0.49
		C203.864,675.962,205.376,676.513,206.515,677.615z"/>
	<path fill="#444444" d="M223.441,677.544c1.167,1.055,1.75,2.646,1.75,4.774v8.764h-3.304v-1.82
		c-0.429,0.654-1.041,1.153-1.834,1.498c-0.793,0.346-1.75,0.519-2.87,0.519c-1.12,0-2.1-0.192-2.94-0.574
		c-0.84-0.383-1.489-0.914-1.946-1.596c-0.458-0.682-0.686-1.451-0.686-2.311c0-1.344,0.499-2.422,1.498-3.233
		c0.999-0.813,2.571-1.219,4.718-1.219h3.864v-0.224c0-1.045-0.313-1.848-0.938-2.408c-0.625-0.56-1.554-0.84-2.786-0.84
		c-0.84,0-1.666,0.131-2.478,0.392c-0.812,0.262-1.498,0.626-2.058,1.093l-1.372-2.549c0.784-0.597,1.726-1.054,2.828-1.371
		s2.268-0.477,3.5-0.477C220.589,675.962,222.274,676.49,223.441,677.544z M220.249,688.128c0.681-0.401,1.162-0.975,1.442-1.722
		v-1.736h-3.612c-2.016,0-3.024,0.663-3.024,1.988c0,0.635,0.252,1.139,0.756,1.512c0.504,0.374,1.204,0.561,2.1,0.561
		C218.788,688.731,219.567,688.53,220.249,688.128z"/>
	<path fill="#444444" d="M229.67,670.306h3.5v20.776h-3.5V670.306z"/>
	<path fill="#444444" d="M237.762,670.306h3.5v20.776h-3.5V670.306z"/>
	<path fill="#444444" d="M259.854,684.726h-11.732c0.205,1.103,0.742,1.975,1.61,2.618c0.868,0.645,1.946,0.966,3.234,0.966
		c1.642,0,2.996-0.541,4.06-1.624l1.876,2.156c-0.672,0.803-1.522,1.41-2.548,1.82c-1.027,0.411-2.184,0.616-3.472,0.616
		c-1.643,0-3.09-0.327-4.34-0.98s-2.217-1.563-2.898-2.729c-0.682-1.167-1.022-2.487-1.022-3.962c0-1.456,0.331-2.768,0.994-3.935
		c0.662-1.166,1.582-2.076,2.758-2.729c1.176-0.653,2.501-0.98,3.976-0.98c1.456,0,2.758,0.322,3.906,0.966
		c1.148,0.645,2.044,1.55,2.688,2.716c0.644,1.167,0.966,2.516,0.966,4.047C259.91,683.933,259.891,684.279,259.854,684.726z
		 M249.508,679.756c-0.775,0.663-1.246,1.545-1.414,2.646h8.484c-0.149-1.083-0.607-1.96-1.372-2.632
		c-0.766-0.673-1.718-1.009-2.856-1.009C251.229,678.762,250.282,679.094,249.508,679.756z"/>
	<path fill="#444444" d="M276.29,677.615c1.139,1.102,1.708,2.734,1.708,4.899v8.568h-3.5v-8.12c0-1.307-0.308-2.291-0.924-2.954
		c-0.616-0.662-1.494-0.994-2.632-0.994c-1.288,0-2.305,0.388-3.052,1.162c-0.747,0.775-1.12,1.891-1.12,3.347v7.56h-3.5V676.13
		h3.332v1.933c0.579-0.69,1.307-1.214,2.184-1.568c0.877-0.354,1.866-0.532,2.968-0.532
		C273.639,675.962,275.151,676.513,276.29,677.615z"/>
	<path fill="#444444" d="M297.43,676.13v12.685c0,5.264-2.688,7.896-8.064,7.896c-1.438,0-2.8-0.182-4.088-0.546
		s-2.352-0.892-3.192-1.582l1.568-2.632c0.653,0.541,1.479,0.975,2.478,1.302c0.999,0.326,2.011,0.49,3.038,0.49
		c1.643,0,2.846-0.374,3.612-1.12c0.766-0.747,1.148-1.885,1.148-3.416v-0.784c-0.598,0.653-1.326,1.148-2.184,1.484
		c-0.859,0.336-1.802,0.504-2.828,0.504c-1.419,0-2.702-0.304-3.85-0.91s-2.054-1.46-2.716-2.562
		c-0.663-1.102-0.994-2.361-0.994-3.78s0.331-2.674,0.994-3.767c0.662-1.092,1.568-1.936,2.716-2.533s2.431-0.896,3.85-0.896
		c1.083,0,2.067,0.178,2.954,0.532c0.886,0.354,1.628,0.896,2.226,1.624v-1.988H297.43z M292.711,686.252
		c0.849-0.793,1.274-1.824,1.274-3.094c0-1.251-0.425-2.269-1.274-3.052c-0.85-0.784-1.937-1.177-3.262-1.177
		c-1.344,0-2.44,0.393-3.29,1.177c-0.85,0.783-1.274,1.801-1.274,3.052c0,1.27,0.425,2.301,1.274,3.094
		c0.849,0.794,1.946,1.19,3.29,1.19C290.774,687.443,291.862,687.046,292.711,686.252z"/>
	<path fill="#444444" d="M316.021,684.726h-11.732c0.205,1.103,0.742,1.975,1.61,2.618c0.868,0.645,1.946,0.966,3.234,0.966
		c1.642,0,2.996-0.541,4.06-1.624l1.876,2.156c-0.672,0.803-1.522,1.41-2.548,1.82c-1.027,0.411-2.184,0.616-3.472,0.616
		c-1.643,0-3.09-0.327-4.34-0.98s-2.217-1.563-2.898-2.729c-0.682-1.167-1.022-2.487-1.022-3.962c0-1.456,0.331-2.768,0.994-3.935
		c0.662-1.166,1.582-2.076,2.758-2.729c1.176-0.653,2.501-0.98,3.976-0.98c1.456,0,2.758,0.322,3.906,0.966
		c1.148,0.645,2.044,1.55,2.688,2.716c0.644,1.167,0.966,2.516,0.966,4.047C316.077,683.933,316.058,684.279,316.021,684.726z
		 M305.675,679.756c-0.775,0.663-1.246,1.545-1.414,2.646h8.484c-0.149-1.083-0.607-1.96-1.372-2.632
		c-0.766-0.673-1.718-1.009-2.856-1.009C307.397,678.762,306.45,679.094,305.675,679.756z"/>
</g>
<g>
	<path fill="#444444" d="M838.957,690.802c-1.158-0.317-2.082-0.718-2.772-1.204l1.344-2.659c0.672,0.447,1.479,0.808,2.422,1.077
		c0.942,0.271,1.871,0.406,2.786,0.406c2.09,0,3.136-0.55,3.136-1.651c0-0.522-0.266-0.887-0.798-1.093
		c-0.532-0.205-1.386-0.401-2.562-0.588c-1.232-0.187-2.236-0.401-3.01-0.644s-1.447-0.667-2.016-1.274
		c-0.57-0.606-0.854-1.451-0.854-2.534c0-1.418,0.592-2.552,1.778-3.401c1.185-0.85,2.786-1.274,4.802-1.274
		c1.026,0,2.053,0.117,3.08,0.351c1.026,0.233,1.867,0.546,2.52,0.938l-1.344,2.66c-1.27-0.746-2.698-1.12-4.284-1.12
		c-1.027,0-1.806,0.154-2.338,0.462s-0.798,0.714-0.798,1.218c0,0.561,0.284,0.957,0.854,1.19c0.569,0.233,1.451,0.453,2.646,0.658
		c1.194,0.187,2.174,0.401,2.94,0.644c0.765,0.243,1.423,0.653,1.974,1.232c0.55,0.578,0.826,1.399,0.826,2.464
		c0,1.399-0.607,2.52-1.82,3.359c-1.214,0.841-2.866,1.261-4.956,1.261C841.299,691.279,840.114,691.119,838.957,690.802z"/>
	<path fill="#444444" d="M864.507,676.914c1.148,0.635,2.048,1.531,2.702,2.688c0.653,1.158,0.98,2.492,0.98,4.005
		c0,1.512-0.327,2.852-0.98,4.018c-0.653,1.167-1.554,2.067-2.702,2.702c-1.148,0.635-2.45,0.952-3.906,0.952
		c-2.016,0-3.612-0.672-4.788-2.017v7.252h-3.5V676.13h3.332v1.96c0.579-0.709,1.292-1.241,2.142-1.596
		c0.849-0.354,1.787-0.532,2.814-0.532C862.057,675.962,863.359,676.28,864.507,676.914z M863.387,686.994
		c0.83-0.858,1.246-1.988,1.246-3.388c0-1.4-0.416-2.529-1.246-3.389c-0.831-0.858-1.89-1.288-3.178-1.288
		c-0.84,0-1.596,0.192-2.268,0.574c-0.672,0.383-1.204,0.929-1.596,1.638c-0.392,0.71-0.588,1.531-0.588,2.465
		s0.196,1.755,0.588,2.464s0.924,1.255,1.596,1.638c0.672,0.383,1.428,0.574,2.268,0.574
		C861.497,688.282,862.556,687.853,863.387,686.994z"/>
	<path fill="#444444" d="M885.521,684.726h-11.732c0.205,1.103,0.742,1.975,1.61,2.618c0.868,0.645,1.946,0.966,3.234,0.966
		c1.642,0,2.996-0.541,4.06-1.624l1.876,2.156c-0.672,0.803-1.522,1.41-2.548,1.82c-1.027,0.411-2.184,0.616-3.472,0.616
		c-1.643,0-3.09-0.327-4.34-0.98s-2.217-1.563-2.898-2.729c-0.682-1.167-1.022-2.487-1.022-3.962c0-1.456,0.331-2.768,0.994-3.935
		c0.662-1.166,1.582-2.076,2.758-2.729c1.176-0.653,2.501-0.98,3.976-0.98c1.456,0,2.758,0.322,3.906,0.966
		c1.148,0.645,2.044,1.55,2.688,2.716c0.644,1.167,0.966,2.516,0.966,4.047C885.577,683.933,885.558,684.279,885.521,684.726z
		 M875.175,679.756c-0.775,0.663-1.246,1.545-1.414,2.646h8.484c-0.149-1.083-0.607-1.96-1.372-2.632
		c-0.766-0.673-1.718-1.009-2.856-1.009C876.897,678.762,875.95,679.094,875.175,679.756z"/>
	<path fill="#444444" d="M891.625,690.298c-1.232-0.653-2.193-1.563-2.884-2.729c-0.691-1.167-1.036-2.487-1.036-3.962
		s0.345-2.791,1.036-3.948c0.69-1.157,1.647-2.063,2.87-2.716c1.222-0.653,2.618-0.98,4.186-0.98c1.475,0,2.768,0.299,3.878,0.896
		c1.11,0.598,1.946,1.456,2.506,2.575l-2.688,1.568c-0.43-0.69-0.966-1.208-1.61-1.554s-1.349-0.519-2.114-0.519
		c-1.307,0-2.39,0.425-3.248,1.274c-0.859,0.85-1.288,1.983-1.288,3.402c0,1.418,0.425,2.553,1.274,3.401
		c0.849,0.85,1.936,1.274,3.262,1.274c0.765,0,1.47-0.173,2.114-0.519c0.644-0.345,1.18-0.863,1.61-1.554l2.688,1.568
		c-0.579,1.12-1.424,1.983-2.534,2.59c-1.111,0.606-2.394,0.91-3.85,0.91C894.247,691.279,892.856,690.951,891.625,690.298z"/>
	<path fill="#444444" d="M905.373,673.065c-0.43-0.401-0.644-0.9-0.644-1.498s0.214-1.097,0.644-1.498
		c0.429-0.401,0.961-0.603,1.596-0.603c0.634,0,1.167,0.191,1.596,0.574s0.644,0.863,0.644,1.442c0,0.615-0.21,1.134-0.63,1.554
		s-0.957,0.63-1.61,0.63C906.334,673.666,905.802,673.466,905.373,673.065z M905.205,676.13h3.5v14.952h-3.5V676.13z"/>
	<path fill="#444444" d="M917.16,675.346v0.896h4.116v2.8h-4.004v12.04h-3.5v-12.04h-2.464v-2.8h2.464v-0.952
		c0-1.605,0.466-2.87,1.4-3.794c0.933-0.924,2.25-1.386,3.948-1.386c1.344,0,2.398,0.271,3.164,0.812l-0.98,2.632
		c-0.598-0.41-1.242-0.615-1.932-0.615C917.897,672.939,917.16,673.741,917.16,675.346z M926.036,673.065
		c-0.43-0.401-0.644-0.9-0.644-1.498s0.214-1.097,0.644-1.498c0.429-0.401,0.961-0.603,1.596-0.603s1.167,0.191,1.596,0.574
		c0.429,0.383,0.644,0.863,0.644,1.442c0,0.615-0.21,1.134-0.63,1.554c-0.42,0.42-0.957,0.63-1.61,0.63
		C926.997,673.666,926.465,673.466,926.036,673.065z M925.868,676.13h3.5v14.952h-3.5V676.13z"/>
	<path fill="#444444" d="M936.648,690.298c-1.232-0.653-2.193-1.563-2.884-2.729c-0.691-1.167-1.036-2.487-1.036-3.962
		s0.345-2.791,1.036-3.948c0.69-1.157,1.647-2.063,2.87-2.716c1.222-0.653,2.618-0.98,4.186-0.98c1.475,0,2.768,0.299,3.878,0.896
		c1.11,0.598,1.946,1.456,2.506,2.575l-2.688,1.568c-0.43-0.69-0.966-1.208-1.61-1.554s-1.349-0.519-2.114-0.519
		c-1.307,0-2.39,0.425-3.248,1.274c-0.859,0.85-1.288,1.983-1.288,3.402c0,1.418,0.425,2.553,1.274,3.401
		c0.849,0.85,1.936,1.274,3.262,1.274c0.765,0,1.47-0.173,2.114-0.519c0.644-0.345,1.18-0.863,1.61-1.554l2.688,1.568
		c-0.579,1.12-1.424,1.983-2.534,2.59c-1.111,0.606-2.394,0.91-3.85,0.91C939.271,691.279,937.88,690.951,936.648,690.298z"/>
	<path fill="#444444" d="M960.643,690.298c-1.231-0.653-2.193-1.563-2.883-2.729c-0.691-1.167-1.036-2.487-1.036-3.962
		s0.345-2.791,1.036-3.948c0.69-1.157,1.647-2.063,2.87-2.716s2.618-0.98,4.186-0.98c1.475,0,2.768,0.299,3.879,0.896
		c1.11,0.598,1.945,1.456,2.506,2.575l-2.688,1.568c-0.43-0.69-0.966-1.208-1.609-1.554c-0.645-0.346-1.35-0.519-2.114-0.519
		c-1.307,0-2.39,0.425-3.248,1.274c-0.859,0.85-1.288,1.983-1.288,3.402c0,1.418,0.425,2.553,1.274,3.401
		c0.849,0.85,1.936,1.274,3.262,1.274c0.765,0,1.47-0.173,2.114-0.519c0.644-0.345,1.18-0.863,1.609-1.554l2.688,1.568
		c-0.579,1.12-1.424,1.983-2.534,2.59c-1.111,0.606-2.395,0.91-3.851,0.91C963.266,691.279,961.875,690.951,960.643,690.298z"/>
	<path fill="#444444" d="M987.104,677.615c1.139,1.102,1.708,2.734,1.708,4.899v8.568h-3.5v-8.12c0-1.307-0.309-2.291-0.924-2.954
		c-0.616-0.662-1.494-0.994-2.633-0.994c-1.287,0-2.305,0.388-3.052,1.162c-0.747,0.775-1.12,1.891-1.12,3.347v7.56h-3.5v-20.776
		h3.5v7.561c0.579-0.616,1.293-1.087,2.143-1.414c0.849-0.326,1.796-0.49,2.842-0.49
		C984.452,675.962,985.965,676.513,987.104,677.615z"/>
	<path fill="#444444" d="M1004.029,677.544c1.166,1.055,1.75,2.646,1.75,4.774v8.764h-3.305v-1.82
		c-0.429,0.654-1.04,1.153-1.834,1.498c-0.793,0.346-1.75,0.519-2.869,0.519c-1.12,0-2.101-0.192-2.94-0.574
		c-0.84-0.383-1.489-0.914-1.946-1.596s-0.686-1.451-0.686-2.311c0-1.344,0.499-2.422,1.498-3.233
		c0.998-0.813,2.571-1.219,4.718-1.219h3.864v-0.224c0-1.045-0.313-1.848-0.938-2.408c-0.625-0.56-1.554-0.84-2.786-0.84
		c-0.84,0-1.666,0.131-2.478,0.392c-0.813,0.262-1.498,0.626-2.059,1.093l-1.371-2.549c0.783-0.597,1.726-1.054,2.827-1.371
		s2.269-0.477,3.5-0.477C1001.178,675.962,1002.862,676.49,1004.029,677.544z M1000.837,688.128
		c0.682-0.401,1.162-0.975,1.442-1.722v-1.736h-3.612c-2.016,0-3.024,0.663-3.024,1.988c0,0.635,0.253,1.139,0.757,1.512
		c0.504,0.374,1.204,0.561,2.1,0.561C999.376,688.731,1000.155,688.53,1000.837,688.128z"/>
	<path fill="#444444" d="M1010.259,670.306h3.5v20.776h-3.5V670.306z"/>
	<path fill="#444444" d="M1018.351,670.306h3.5v20.776h-3.5V670.306z"/>
	<path fill="#444444" d="M1040.442,684.726h-11.732c0.205,1.103,0.742,1.975,1.61,2.618c0.868,0.645,1.946,0.966,3.234,0.966
		c1.642,0,2.995-0.541,4.06-1.624l1.876,2.156c-0.672,0.803-1.521,1.41-2.548,1.82c-1.027,0.411-2.185,0.616-3.472,0.616
		c-1.644,0-3.09-0.327-4.341-0.98c-1.25-0.653-2.217-1.563-2.897-2.729c-0.682-1.167-1.022-2.487-1.022-3.962
		c0-1.456,0.331-2.768,0.994-3.935c0.662-1.166,1.582-2.076,2.758-2.729c1.177-0.653,2.502-0.98,3.977-0.98
		c1.456,0,2.758,0.322,3.906,0.966c1.147,0.645,2.044,1.55,2.688,2.716c0.644,1.167,0.966,2.516,0.966,4.047
		C1040.498,683.933,1040.479,684.279,1040.442,684.726z M1030.097,679.756c-0.775,0.663-1.246,1.545-1.414,2.646h8.483
		c-0.149-1.083-0.606-1.96-1.372-2.632c-0.766-0.673-1.718-1.009-2.855-1.009C1031.818,678.762,1030.871,679.094,1030.097,679.756z"
		/>
	<path fill="#444444" d="M1056.878,677.615c1.139,1.102,1.708,2.734,1.708,4.899v8.568h-3.5v-8.12c0-1.307-0.309-2.291-0.924-2.954
		c-0.616-0.662-1.494-0.994-2.633-0.994c-1.287,0-2.305,0.388-3.052,1.162c-0.747,0.775-1.12,1.891-1.12,3.347v7.56h-3.5V676.13
		h3.332v1.933c0.579-0.69,1.307-1.214,2.185-1.568c0.877-0.354,1.866-0.532,2.968-0.532
		C1054.227,675.962,1055.739,676.513,1056.878,677.615z"/>
	<path fill="#444444" d="M1078.018,676.13v12.685c0,5.264-2.688,7.896-8.064,7.896c-1.438,0-2.8-0.182-4.088-0.546
		s-2.352-0.892-3.191-1.582l1.567-2.632c0.653,0.541,1.479,0.975,2.479,1.302c0.998,0.326,2.011,0.49,3.038,0.49
		c1.643,0,2.846-0.374,3.611-1.12c0.766-0.747,1.148-1.885,1.148-3.416v-0.784c-0.598,0.653-1.325,1.148-2.184,1.484
		c-0.859,0.336-1.802,0.504-2.828,0.504c-1.419,0-2.702-0.304-3.851-0.91c-1.147-0.606-2.054-1.46-2.716-2.562
		c-0.663-1.102-0.994-2.361-0.994-3.78s0.331-2.674,0.994-3.767c0.662-1.092,1.568-1.936,2.716-2.533
		c1.148-0.598,2.432-0.896,3.851-0.896c1.082,0,2.067,0.178,2.954,0.532c0.886,0.354,1.628,0.896,2.226,1.624v-1.988H1078.018z
		 M1073.3,686.252c0.849-0.793,1.273-1.824,1.273-3.094c0-1.251-0.425-2.269-1.273-3.052c-0.85-0.784-1.938-1.177-3.263-1.177
		c-1.344,0-2.44,0.393-3.289,1.177c-0.85,0.783-1.274,1.801-1.274,3.052c0,1.27,0.425,2.301,1.274,3.094
		c0.849,0.794,1.945,1.19,3.289,1.19C1071.362,687.443,1072.45,687.046,1073.3,686.252z"/>
	<path fill="#444444" d="M1096.609,684.726h-11.732c0.205,1.103,0.742,1.975,1.61,2.618c0.868,0.645,1.946,0.966,3.234,0.966
		c1.642,0,2.995-0.541,4.06-1.624l1.876,2.156c-0.672,0.803-1.521,1.41-2.548,1.82c-1.027,0.411-2.185,0.616-3.472,0.616
		c-1.644,0-3.09-0.327-4.341-0.98c-1.25-0.653-2.217-1.563-2.897-2.729c-0.682-1.167-1.022-2.487-1.022-3.962
		c0-1.456,0.331-2.768,0.994-3.935c0.662-1.166,1.582-2.076,2.758-2.729c1.177-0.653,2.502-0.98,3.977-0.98
		c1.456,0,2.758,0.322,3.906,0.966c1.147,0.645,2.044,1.55,2.688,2.716c0.644,1.167,0.966,2.516,0.966,4.047
		C1096.665,683.933,1096.646,684.279,1096.609,684.726z M1086.264,679.756c-0.775,0.663-1.246,1.545-1.414,2.646h8.483
		c-0.149-1.083-0.606-1.96-1.372-2.632c-0.766-0.673-1.718-1.009-2.855-1.009C1087.985,678.762,1087.038,679.094,1086.264,679.756z"
		/>
</g>
<g>
	<path fill="#444444" d="M1626.418,690.802c-1.157-0.317-2.081-0.718-2.771-1.204l1.344-2.659c0.672,0.447,1.479,0.808,2.422,1.077
		c0.942,0.271,1.871,0.406,2.786,0.406c2.091,0,3.136-0.55,3.136-1.651c0-0.522-0.266-0.887-0.798-1.093
		c-0.532-0.205-1.386-0.401-2.562-0.588c-1.232-0.187-2.236-0.401-3.011-0.644s-1.446-0.667-2.016-1.274
		c-0.569-0.606-0.854-1.451-0.854-2.534c0-1.418,0.592-2.552,1.777-3.401s2.786-1.274,4.803-1.274c1.026,0,2.053,0.117,3.079,0.351
		s1.867,0.546,2.521,0.938l-1.344,2.66c-1.27-0.746-2.698-1.12-4.284-1.12c-1.027,0-1.806,0.154-2.338,0.462
		s-0.798,0.714-0.798,1.218c0,0.561,0.284,0.957,0.854,1.19s1.451,0.453,2.646,0.658c1.194,0.187,2.174,0.401,2.939,0.644
		c0.766,0.243,1.424,0.653,1.975,1.232c0.55,0.578,0.825,1.399,0.825,2.464c0,1.399-0.606,2.52-1.819,3.359
		c-1.214,0.841-2.866,1.261-4.956,1.261C1628.761,691.279,1627.575,691.119,1626.418,690.802z"/>
	<path fill="#444444" d="M1651.969,676.914c1.147,0.635,2.048,1.531,2.701,2.688c0.653,1.158,0.98,2.492,0.98,4.005
		c0,1.512-0.327,2.852-0.98,4.018c-0.653,1.167-1.554,2.067-2.701,2.702c-1.148,0.635-2.45,0.952-3.906,0.952
		c-2.017,0-3.612-0.672-4.788-2.017v7.252h-3.5V676.13h3.332v1.96c0.578-0.709,1.292-1.241,2.142-1.596s1.787-0.532,2.814-0.532
		C1649.519,675.962,1650.82,676.28,1651.969,676.914z M1650.849,686.994c0.83-0.858,1.246-1.988,1.246-3.388
		c0-1.4-0.416-2.529-1.246-3.389c-0.831-0.858-1.891-1.288-3.179-1.288c-0.84,0-1.596,0.192-2.268,0.574
		c-0.672,0.383-1.204,0.929-1.596,1.638c-0.393,0.71-0.588,1.531-0.588,2.465s0.195,1.755,0.588,2.464
		c0.392,0.709,0.924,1.255,1.596,1.638s1.428,0.574,2.268,0.574C1648.958,688.282,1650.018,687.853,1650.849,686.994z"/>
	<path fill="#444444" d="M1672.982,684.726h-11.732c0.205,1.103,0.742,1.975,1.61,2.618c0.868,0.645,1.946,0.966,3.234,0.966
		c1.642,0,2.995-0.541,4.06-1.624l1.876,2.156c-0.672,0.803-1.521,1.41-2.548,1.82c-1.027,0.411-2.185,0.616-3.472,0.616
		c-1.644,0-3.09-0.327-4.341-0.98c-1.25-0.653-2.217-1.563-2.897-2.729c-0.682-1.167-1.022-2.487-1.022-3.962
		c0-1.456,0.331-2.768,0.994-3.935c0.662-1.166,1.582-2.076,2.758-2.729c1.177-0.653,2.502-0.98,3.977-0.98
		c1.456,0,2.758,0.322,3.906,0.966c1.147,0.645,2.044,1.55,2.688,2.716c0.644,1.167,0.966,2.516,0.966,4.047
		C1673.038,683.933,1673.02,684.279,1672.982,684.726z M1662.637,679.756c-0.775,0.663-1.246,1.545-1.414,2.646h8.483
		c-0.149-1.083-0.606-1.96-1.372-2.632c-0.766-0.673-1.718-1.009-2.855-1.009C1664.358,678.762,1663.411,679.094,1662.637,679.756z"
		/>
	<path fill="#444444" d="M1679.086,690.298c-1.232-0.653-2.193-1.563-2.884-2.729c-0.691-1.167-1.036-2.487-1.036-3.962
		s0.345-2.791,1.036-3.948c0.69-1.157,1.646-2.063,2.87-2.716c1.222-0.653,2.617-0.98,4.186-0.98c1.475,0,2.768,0.299,3.878,0.896
		s1.946,1.456,2.506,2.575l-2.688,1.568c-0.43-0.69-0.966-1.208-1.61-1.554c-0.644-0.346-1.349-0.519-2.114-0.519
		c-1.307,0-2.39,0.425-3.248,1.274s-1.288,1.983-1.288,3.402c0,1.418,0.425,2.553,1.274,3.401c0.85,0.85,1.937,1.274,3.262,1.274
		c0.766,0,1.471-0.173,2.114-0.519c0.645-0.345,1.181-0.863,1.61-1.554l2.688,1.568c-0.578,1.12-1.424,1.983-2.534,2.59
		s-2.394,0.91-3.85,0.91C1681.708,691.279,1680.317,690.951,1679.086,690.298z"/>
	<path fill="#444444" d="M1692.834,673.065c-0.43-0.401-0.645-0.9-0.645-1.498s0.215-1.097,0.645-1.498
		c0.429-0.401,0.961-0.603,1.596-0.603s1.167,0.191,1.596,0.574c0.43,0.383,0.645,0.863,0.645,1.442c0,0.615-0.21,1.134-0.63,1.554
		s-0.957,0.63-1.61,0.63C1693.795,673.666,1693.263,673.466,1692.834,673.065z M1692.666,676.13h3.5v14.952h-3.5V676.13z"/>
	<path fill="#444444" d="M1704.621,675.346v0.896h4.116v2.8h-4.004v12.04h-3.5v-12.04h-2.464v-2.8h2.464v-0.952
		c0-1.605,0.466-2.87,1.399-3.794s2.25-1.386,3.948-1.386c1.344,0,2.398,0.271,3.164,0.812l-0.979,2.632
		c-0.598-0.41-1.242-0.615-1.933-0.615C1705.358,672.939,1704.621,673.741,1704.621,675.346z M1713.497,673.065
		c-0.43-0.401-0.644-0.9-0.644-1.498s0.214-1.097,0.644-1.498s0.961-0.603,1.596-0.603s1.167,0.191,1.597,0.574
		c0.429,0.383,0.644,0.863,0.644,1.442c0,0.615-0.21,1.134-0.63,1.554s-0.957,0.63-1.61,0.63
		C1714.458,673.666,1713.927,673.466,1713.497,673.065z M1713.329,676.13h3.5v14.952h-3.5V676.13z"/>
	<path fill="#444444" d="M1724.109,690.298c-1.232-0.653-2.193-1.563-2.884-2.729c-0.691-1.167-1.036-2.487-1.036-3.962
		s0.345-2.791,1.036-3.948c0.69-1.157,1.646-2.063,2.87-2.716c1.222-0.653,2.617-0.98,4.186-0.98c1.475,0,2.768,0.299,3.878,0.896
		s1.946,1.456,2.506,2.575l-2.688,1.568c-0.43-0.69-0.966-1.208-1.61-1.554c-0.644-0.346-1.349-0.519-2.114-0.519
		c-1.307,0-2.39,0.425-3.248,1.274s-1.288,1.983-1.288,3.402c0,1.418,0.425,2.553,1.274,3.401c0.85,0.85,1.937,1.274,3.262,1.274
		c0.766,0,1.471-0.173,2.114-0.519c0.645-0.345,1.181-0.863,1.61-1.554l2.688,1.568c-0.578,1.12-1.424,1.983-2.534,2.59
		s-2.394,0.91-3.85,0.91C1726.731,691.279,1725.341,690.951,1724.109,690.298z"/>
	<path fill="#444444" d="M1746.48,690.802c-1.158-0.317-2.082-0.718-2.772-1.204l1.345-2.659c0.672,0.447,1.479,0.808,2.422,1.077
		c0.942,0.271,1.871,0.406,2.786,0.406c2.09,0,3.136-0.55,3.136-1.651c0-0.522-0.267-0.887-0.798-1.093
		c-0.532-0.205-1.387-0.401-2.563-0.588c-1.231-0.187-2.235-0.401-3.01-0.644s-1.447-0.667-2.016-1.274
		c-0.57-0.606-0.854-1.451-0.854-2.534c0-1.418,0.593-2.552,1.778-3.401c1.185-0.85,2.786-1.274,4.802-1.274
		c1.026,0,2.053,0.117,3.08,0.351c1.026,0.233,1.866,0.546,2.52,0.938l-1.344,2.66c-1.27-0.746-2.697-1.12-4.284-1.12
		c-1.026,0-1.806,0.154-2.338,0.462s-0.798,0.714-0.798,1.218c0,0.561,0.284,0.957,0.854,1.19c0.568,0.233,1.451,0.453,2.646,0.658
		c1.194,0.187,2.175,0.401,2.94,0.644c0.765,0.243,1.423,0.653,1.974,1.232c0.551,0.578,0.826,1.399,0.826,2.464
		c0,1.399-0.607,2.52-1.82,3.359c-1.214,0.841-2.865,1.261-4.956,1.261C1748.822,691.279,1747.638,691.119,1746.48,690.802z"/>
	<path fill="#444444" d="M1762.469,690.298c-1.214-0.653-2.161-1.563-2.843-2.729c-0.682-1.167-1.021-2.487-1.021-3.962
		s0.34-2.791,1.021-3.948s1.629-2.063,2.843-2.716c1.213-0.653,2.575-0.98,4.088-0.98c1.53,0,2.902,0.327,4.115,0.98
		c1.214,0.653,2.161,1.559,2.843,2.716c0.681,1.157,1.021,2.474,1.021,3.948s-0.341,2.795-1.021,3.962
		c-0.682,1.166-1.629,2.076-2.843,2.729c-1.213,0.653-2.585,0.98-4.115,0.98C1765.044,691.279,1763.682,690.951,1762.469,690.298z
		 M1769.748,686.994c0.84-0.858,1.26-1.988,1.26-3.388c0-1.4-0.42-2.529-1.26-3.389c-0.84-0.858-1.903-1.288-3.191-1.288
		s-2.348,0.43-3.179,1.288c-0.83,0.859-1.246,1.988-1.246,3.389c0,1.399,0.416,2.529,1.246,3.388
		c0.831,0.858,1.891,1.288,3.179,1.288S1768.908,687.853,1769.748,686.994z"/>
	<path fill="#444444" d="M1777.896,670.306h3.5v20.776h-3.5V670.306z"/>
	<path fill="#444444" d="M1800.464,676.13v14.952h-3.332v-1.904c-0.561,0.672-1.26,1.19-2.101,1.555
		c-0.84,0.363-1.745,0.546-2.716,0.546c-1.997,0-3.569-0.556-4.718-1.666s-1.722-2.758-1.722-4.942v-8.54h3.5v8.064
		c0,1.344,0.303,2.348,0.91,3.01c0.605,0.663,1.47,0.994,2.59,0.994c1.25,0,2.244-0.388,2.981-1.162s1.106-1.89,1.106-3.346v-7.561
		H1800.464z"/>
	<path fill="#444444" d="M1814.044,690.271c-0.411,0.336-0.91,0.588-1.498,0.756s-1.209,0.252-1.862,0.252
		c-1.643,0-2.912-0.43-3.808-1.288c-0.896-0.858-1.345-2.109-1.345-3.752v-7.196h-2.464v-2.8h2.464v-3.416h3.5v3.416h4.004v2.8
		h-4.004v7.112c0,0.728,0.178,1.283,0.532,1.666s0.868,0.573,1.54,0.573c0.784,0,1.438-0.205,1.96-0.615L1814.044,690.271z"/>
	<path fill="#444444" d="M1817.096,673.065c-0.43-0.401-0.645-0.9-0.645-1.498s0.215-1.097,0.645-1.498
		c0.429-0.401,0.961-0.603,1.596-0.603s1.167,0.191,1.596,0.574c0.43,0.383,0.645,0.863,0.645,1.442c0,0.615-0.21,1.134-0.63,1.554
		s-0.957,0.63-1.61,0.63C1818.057,673.666,1817.524,673.466,1817.096,673.065z M1816.928,676.13h3.5v14.952h-3.5V676.13z"/>
	<path fill="#444444" d="M1827.651,690.298c-1.214-0.653-2.161-1.563-2.842-2.729c-0.682-1.167-1.022-2.487-1.022-3.962
		s0.341-2.791,1.022-3.948c0.681-1.157,1.628-2.063,2.842-2.716c1.213-0.653,2.576-0.98,4.088-0.98c1.53,0,2.902,0.327,4.116,0.98
		c1.213,0.653,2.16,1.559,2.842,2.716s1.022,2.474,1.022,3.948s-0.341,2.795-1.022,3.962c-0.682,1.166-1.629,2.076-2.842,2.729
		c-1.214,0.653-2.586,0.98-4.116,0.98C1830.228,691.279,1828.864,690.951,1827.651,690.298z M1834.932,686.994
		c0.84-0.858,1.26-1.988,1.26-3.388c0-1.4-0.42-2.529-1.26-3.389c-0.84-0.858-1.904-1.288-3.192-1.288s-2.348,0.43-3.178,1.288
		c-0.831,0.859-1.246,1.988-1.246,3.389c0,1.399,0.415,2.529,1.246,3.388c0.83,0.858,1.89,1.288,3.178,1.288
		S1834.092,687.853,1834.932,686.994z"/>
	<path fill="#444444" d="M1856.099,677.615c1.139,1.102,1.708,2.734,1.708,4.899v8.568h-3.5v-8.12c0-1.307-0.308-2.291-0.924-2.954
		c-0.616-0.662-1.493-0.994-2.632-0.994c-1.288,0-2.306,0.388-3.052,1.162c-0.747,0.775-1.12,1.891-1.12,3.347v7.56h-3.5V676.13
		h3.332v1.933c0.578-0.69,1.307-1.214,2.184-1.568s1.866-0.532,2.968-0.532C1853.448,675.962,1854.96,676.513,1856.099,677.615z"/>
</g>
<g>
	<path fill="#444444" d="M720.044,449.818v20.776h-3.36v-1.932c-0.579,0.709-1.293,1.241-2.142,1.596
		c-0.85,0.354-1.788,0.532-2.814,0.532c-1.438,0-2.73-0.317-3.878-0.952s-2.049-1.535-2.702-2.702
		c-0.654-1.166-0.98-2.506-0.98-4.018c0-1.513,0.326-2.847,0.98-4.005c0.653-1.156,1.554-2.053,2.702-2.688s2.44-0.952,3.878-0.952
		c0.989,0,1.895,0.168,2.716,0.504s1.521,0.84,2.1,1.513v-7.673H720.044z M714.417,467.22c0.672-0.383,1.204-0.929,1.596-1.638
		c0.392-0.709,0.588-1.53,0.588-2.464s-0.196-1.755-0.588-2.465c-0.392-0.709-0.924-1.255-1.596-1.638
		c-0.672-0.382-1.428-0.574-2.268-0.574s-1.596,0.192-2.268,0.574c-0.672,0.383-1.204,0.929-1.596,1.638
		c-0.392,0.71-0.588,1.531-0.588,2.465s0.196,1.755,0.588,2.464c0.392,0.709,0.924,1.255,1.596,1.638
		c0.672,0.383,1.428,0.574,2.268,0.574S713.745,467.603,714.417,467.22z"/>
	<path fill="#444444" d="M738.636,464.238h-11.732c0.205,1.103,0.742,1.975,1.61,2.618c0.868,0.645,1.946,0.966,3.234,0.966
		c1.642,0,2.996-0.541,4.06-1.624l1.876,2.156c-0.672,0.803-1.522,1.41-2.548,1.82c-1.027,0.411-2.184,0.616-3.472,0.616
		c-1.643,0-3.09-0.327-4.34-0.98s-2.217-1.563-2.898-2.729c-0.682-1.167-1.022-2.487-1.022-3.962c0-1.456,0.331-2.768,0.994-3.935
		c0.662-1.166,1.582-2.076,2.758-2.729c1.176-0.653,2.501-0.98,3.976-0.98c1.456,0,2.758,0.322,3.906,0.966
		c1.148,0.645,2.044,1.55,2.688,2.716c0.644,1.167,0.966,2.516,0.966,4.047C738.692,463.445,738.673,463.79,738.636,464.238z
		 M728.291,459.268c-0.775,0.663-1.246,1.545-1.414,2.646h8.484c-0.149-1.083-0.607-1.96-1.372-2.632
		c-0.766-0.673-1.718-1.009-2.856-1.009C730.012,458.274,729.065,458.606,728.291,459.268z"/>
	<path fill="#444444" d="M745.917,454.858v0.896h4.116v2.8h-4.004v12.04h-3.5v-12.04h-2.464v-2.8h2.464v-0.952
		c0-1.605,0.466-2.87,1.4-3.794c0.933-0.924,2.25-1.386,3.948-1.386c1.344,0,2.398,0.271,3.164,0.812l-0.98,2.632
		c-0.598-0.41-1.242-0.615-1.932-0.615C746.653,452.45,745.917,453.253,745.917,454.858z M754.792,452.576
		c-0.43-0.401-0.644-0.9-0.644-1.498s0.214-1.097,0.644-1.498c0.429-0.401,0.961-0.603,1.596-0.603s1.167,0.191,1.596,0.574
		c0.429,0.383,0.644,0.863,0.644,1.442c0,0.615-0.21,1.134-0.63,1.554c-0.42,0.42-0.957,0.63-1.61,0.63
		C755.753,453.178,755.222,452.978,754.792,452.576z M754.625,455.642h3.5v14.952h-3.5V455.642z"/>
	<path fill="#444444" d="M775.736,457.126c1.139,1.102,1.708,2.734,1.708,4.899v8.568h-3.5v-8.12c0-1.307-0.308-2.291-0.924-2.954
		c-0.616-0.662-1.494-0.994-2.632-0.994c-1.288,0-2.305,0.388-3.052,1.162c-0.747,0.775-1.12,1.891-1.12,3.347v7.56h-3.5v-14.952
		h3.332v1.933c0.579-0.69,1.307-1.214,2.184-1.568c0.877-0.354,1.866-0.532,2.968-0.532
		C773.085,455.474,774.597,456.025,775.736,457.126z"/>
	<path fill="#444444" d="M796.036,464.238h-11.732c0.205,1.103,0.742,1.975,1.61,2.618c0.868,0.645,1.946,0.966,3.234,0.966
		c1.642,0,2.996-0.541,4.06-1.624l1.876,2.156c-0.672,0.803-1.522,1.41-2.548,1.82c-1.027,0.411-2.184,0.616-3.472,0.616
		c-1.643,0-3.09-0.327-4.34-0.98s-2.217-1.563-2.898-2.729c-0.682-1.167-1.022-2.487-1.022-3.962c0-1.456,0.331-2.768,0.994-3.935
		c0.662-1.166,1.582-2.076,2.758-2.729c1.176-0.653,2.501-0.98,3.976-0.98c1.456,0,2.758,0.322,3.906,0.966
		c1.148,0.645,2.044,1.55,2.688,2.716c0.644,1.167,0.966,2.516,0.966,4.047C796.092,463.445,796.073,463.79,796.036,464.238z
		 M785.69,459.268c-0.775,0.663-1.246,1.545-1.414,2.646h8.484c-0.149-1.083-0.607-1.96-1.372-2.632
		c-0.766-0.673-1.718-1.009-2.856-1.009C787.412,458.274,786.464,458.606,785.69,459.268z"/>
</g>
<g>
	<path fill="#444444" d="M1098.025,449.818v20.776h-3.359v-1.932c-0.579,0.709-1.293,1.241-2.143,1.596s-1.787,0.532-2.813,0.532
		c-1.438,0-2.73-0.317-3.878-0.952c-1.148-0.635-2.049-1.535-2.702-2.702c-0.654-1.166-0.98-2.506-0.98-4.018
		c0-1.513,0.326-2.847,0.98-4.005c0.653-1.156,1.554-2.053,2.702-2.688c1.147-0.635,2.44-0.952,3.878-0.952
		c0.989,0,1.895,0.168,2.716,0.504s1.521,0.84,2.1,1.513v-7.673H1098.025z M1092.397,467.22c0.672-0.383,1.204-0.929,1.597-1.638
		c0.392-0.709,0.588-1.53,0.588-2.464s-0.196-1.755-0.588-2.465c-0.393-0.709-0.925-1.255-1.597-1.638
		c-0.672-0.382-1.428-0.574-2.268-0.574s-1.596,0.192-2.269,0.574c-0.672,0.383-1.204,0.929-1.596,1.638
		c-0.392,0.71-0.588,1.531-0.588,2.465s0.196,1.755,0.588,2.464s0.924,1.255,1.596,1.638c0.673,0.383,1.429,0.574,2.269,0.574
		S1091.726,467.603,1092.397,467.22z"/>
	<path fill="#444444" d="M1116.617,464.238h-11.731c0.205,1.103,0.742,1.975,1.609,2.618c0.868,0.645,1.946,0.966,3.234,0.966
		c1.643,0,2.996-0.541,4.06-1.624l1.877,2.156c-0.673,0.803-1.522,1.41-2.549,1.82c-1.026,0.411-2.184,0.616-3.472,0.616
		c-1.643,0-3.09-0.327-4.34-0.98c-1.251-0.653-2.217-1.563-2.898-2.729c-0.682-1.167-1.021-2.487-1.021-3.962
		c0-1.456,0.331-2.768,0.994-3.935c0.662-1.166,1.582-2.076,2.758-2.729s2.501-0.98,3.976-0.98c1.456,0,2.758,0.322,3.906,0.966
		c1.148,0.645,2.044,1.55,2.688,2.716c0.644,1.167,0.966,2.516,0.966,4.047C1116.674,463.445,1116.654,463.79,1116.617,464.238z
		 M1106.271,459.268c-0.774,0.663-1.246,1.545-1.414,2.646h8.484c-0.149-1.083-0.607-1.96-1.372-2.632
		c-0.766-0.673-1.718-1.009-2.856-1.009C1107.993,458.274,1107.046,458.606,1106.271,459.268z"/>
	<path fill="#444444" d="M1133.754,455.642l-6.412,14.952h-3.612l-6.412-14.952h3.641l4.647,11.088l4.788-11.088H1133.754z"/>
	<path fill="#444444" d="M1149.518,464.238h-11.732c0.205,1.103,0.742,1.975,1.61,2.618c0.868,0.645,1.946,0.966,3.234,0.966
		c1.642,0,2.995-0.541,4.06-1.624l1.876,2.156c-0.672,0.803-1.521,1.41-2.548,1.82c-1.027,0.411-2.185,0.616-3.472,0.616
		c-1.644,0-3.09-0.327-4.341-0.98c-1.25-0.653-2.217-1.563-2.897-2.729c-0.682-1.167-1.022-2.487-1.022-3.962
		c0-1.456,0.331-2.768,0.994-3.935c0.662-1.166,1.582-2.076,2.758-2.729c1.177-0.653,2.502-0.98,3.977-0.98
		c1.456,0,2.758,0.322,3.906,0.966c1.147,0.645,2.044,1.55,2.688,2.716c0.644,1.167,0.966,2.516,0.966,4.047
		C1149.573,463.445,1149.555,463.79,1149.518,464.238z M1139.172,459.268c-0.775,0.663-1.246,1.545-1.414,2.646h8.483
		c-0.149-1.083-0.606-1.96-1.372-2.632c-0.766-0.673-1.718-1.009-2.855-1.009C1140.894,458.274,1139.946,458.606,1139.172,459.268z"
		/>
	<path fill="#444444" d="M1152.933,449.818h3.5v20.776h-3.5V449.818z"/>
	<path fill="#444444" d="M1163.657,469.81c-1.214-0.653-2.161-1.563-2.843-2.729c-0.682-1.167-1.021-2.487-1.021-3.962
		s0.34-2.791,1.021-3.948s1.629-2.063,2.843-2.716c1.213-0.653,2.575-0.98,4.088-0.98c1.53,0,2.902,0.327,4.115,0.98
		c1.214,0.653,2.161,1.559,2.843,2.716c0.681,1.157,1.021,2.474,1.021,3.948s-0.341,2.795-1.021,3.962
		c-0.682,1.166-1.629,2.076-2.843,2.729c-1.213,0.653-2.585,0.98-4.115,0.98C1166.232,470.79,1164.87,470.463,1163.657,469.81z
		 M1170.937,466.506c0.84-0.858,1.26-1.988,1.26-3.388c0-1.4-0.42-2.529-1.26-3.389c-0.84-0.858-1.903-1.288-3.191-1.288
		s-2.348,0.43-3.179,1.288c-0.83,0.859-1.246,1.988-1.246,3.389c0,1.399,0.416,2.529,1.246,3.388
		c0.831,0.858,1.891,1.288,3.179,1.288S1170.097,467.365,1170.937,466.506z"/>
	<path fill="#444444" d="M1191.278,456.426c1.148,0.635,2.049,1.531,2.702,2.688c0.653,1.158,0.979,2.492,0.979,4.005
		c0,1.512-0.326,2.852-0.979,4.018c-0.653,1.167-1.554,2.067-2.702,2.702s-2.45,0.952-3.906,0.952c-2.016,0-3.611-0.672-4.788-2.017
		v7.252h-3.5v-20.384h3.332v1.96c0.579-0.709,1.293-1.241,2.143-1.596c0.849-0.354,1.787-0.532,2.813-0.532
		C1188.828,455.474,1190.13,455.791,1191.278,456.426z M1190.158,466.506c0.83-0.858,1.246-1.988,1.246-3.388
		c0-1.4-0.416-2.529-1.246-3.389c-0.831-0.858-1.89-1.288-3.178-1.288c-0.84,0-1.596,0.192-2.269,0.574
		c-0.672,0.383-1.203,0.929-1.596,1.638c-0.392,0.71-0.588,1.531-0.588,2.465s0.196,1.755,0.588,2.464
		c0.393,0.709,0.924,1.255,1.596,1.638c0.673,0.383,1.429,0.574,2.269,0.574C1188.269,467.794,1189.327,467.365,1190.158,466.506z"
		/>
</g>
<g>
	<path fill="#444444" d="M1007.883,168.649c0.912,0.897,1.369,2.213,1.369,3.945v7.015h-2.208v-6.762
		c0-1.181-0.284-2.07-0.852-2.668c-0.567-0.599-1.38-0.897-2.438-0.897c-1.196,0-2.14,0.349-2.829,1.047
		c-0.69,0.697-1.035,1.698-1.035,3.001v6.279h-2.208v-12.19h2.116v1.841c0.444-0.629,1.046-1.112,1.806-1.449
		c0.759-0.337,1.621-0.506,2.587-0.506C1005.74,167.304,1006.971,167.752,1007.883,168.649z"/>
	<path fill="#444444" d="M1015.369,178.942c-0.966-0.536-1.721-1.276-2.265-2.22c-0.545-0.942-0.817-2.013-0.817-3.208
		c0-1.196,0.272-2.266,0.817-3.209c0.544-0.942,1.299-1.679,2.265-2.208c0.967-0.528,2.055-0.793,3.267-0.793
		c1.211,0,2.296,0.265,3.254,0.793c0.958,0.529,1.71,1.266,2.254,2.208c0.545,0.943,0.817,2.013,0.817,3.209
		c0,1.195-0.272,2.266-0.817,3.208c-0.544,0.943-1.296,1.684-2.254,2.22c-0.958,0.537-2.043,0.805-3.254,0.805
		C1017.424,179.746,1016.336,179.479,1015.369,178.942z M1020.74,177.274c0.621-0.359,1.107-0.865,1.46-1.518
		c0.353-0.651,0.529-1.399,0.529-2.242c0-0.844-0.177-1.591-0.529-2.243c-0.353-0.651-0.839-1.153-1.46-1.506
		s-1.322-0.529-2.104-0.529s-1.483,0.177-2.104,0.529s-1.112,0.854-1.473,1.506c-0.36,0.652-0.54,1.399-0.54,2.243
		c0,0.843,0.18,1.591,0.54,2.242c0.36,0.652,0.852,1.158,1.473,1.518c0.621,0.361,1.322,0.541,2.104,0.541
		S1020.119,177.635,1020.74,177.274z"/>
	<path fill="#444444" d="M1046.12,167.418l-4.554,12.19h-2.116l-3.519-9.246l-3.565,9.246h-2.116l-4.53-12.19h2.093l3.542,9.706
		l3.68-9.706h1.863l3.61,9.752l3.635-9.752H1046.12z"/>
</g>
<g>
	<path fill="#444444" d="M1360.513,449.818v20.776h-3.359v-1.932c-0.579,0.709-1.293,1.241-2.143,1.596s-1.787,0.532-2.813,0.532
		c-1.438,0-2.73-0.317-3.878-0.952c-1.148-0.635-2.049-1.535-2.702-2.702c-0.654-1.166-0.98-2.506-0.98-4.018
		c0-1.513,0.326-2.847,0.98-4.005c0.653-1.156,1.554-2.053,2.702-2.688c1.147-0.635,2.44-0.952,3.878-0.952
		c0.989,0,1.895,0.168,2.716,0.504s1.521,0.84,2.1,1.513v-7.673H1360.513z M1354.885,467.22c0.672-0.383,1.204-0.929,1.597-1.638
		c0.392-0.709,0.588-1.53,0.588-2.464s-0.196-1.755-0.588-2.465c-0.393-0.709-0.925-1.255-1.597-1.638
		c-0.672-0.382-1.428-0.574-2.268-0.574s-1.596,0.192-2.269,0.574c-0.672,0.383-1.204,0.929-1.596,1.638
		c-0.392,0.71-0.588,1.531-0.588,2.465s0.196,1.755,0.588,2.464s0.924,1.255,1.596,1.638c0.673,0.383,1.429,0.574,2.269,0.574
		S1354.213,467.603,1354.885,467.22z"/>
	<path fill="#444444" d="M1379.104,464.238h-11.731c0.205,1.103,0.742,1.975,1.609,2.618c0.868,0.645,1.946,0.966,3.234,0.966
		c1.643,0,2.996-0.541,4.06-1.624l1.877,2.156c-0.673,0.803-1.522,1.41-2.549,1.82c-1.026,0.411-2.184,0.616-3.472,0.616
		c-1.643,0-3.09-0.327-4.34-0.98c-1.251-0.653-2.217-1.563-2.898-2.729c-0.682-1.167-1.021-2.487-1.021-3.962
		c0-1.456,0.331-2.768,0.994-3.935c0.662-1.166,1.582-2.076,2.758-2.729s2.501-0.98,3.976-0.98c1.456,0,2.758,0.322,3.906,0.966
		c1.148,0.645,2.044,1.55,2.688,2.716c0.644,1.167,0.966,2.516,0.966,4.047C1379.161,463.445,1379.142,463.79,1379.104,464.238z
		 M1368.759,459.268c-0.774,0.663-1.246,1.545-1.414,2.646h8.484c-0.149-1.083-0.607-1.96-1.372-2.632
		c-0.766-0.673-1.718-1.009-2.856-1.009C1370.48,458.274,1369.533,458.606,1368.759,459.268z"/>
	<path fill="#444444" d="M1382.521,449.818h3.5v20.776h-3.5V449.818z"/>
	<path fill="#444444" d="M1390.78,452.576c-0.43-0.401-0.645-0.9-0.645-1.498s0.215-1.097,0.645-1.498
		c0.429-0.401,0.961-0.603,1.596-0.603s1.167,0.191,1.596,0.574c0.43,0.383,0.645,0.863,0.645,1.442c0,0.615-0.21,1.134-0.63,1.554
		s-0.957,0.63-1.61,0.63C1391.741,453.178,1391.209,452.978,1390.78,452.576z M1390.612,455.642h3.5v14.952h-3.5V455.642z"/>
	<path fill="#444444" d="M1412.704,455.642l-6.412,14.952h-3.612l-6.412-14.952h3.641l4.647,11.088l4.788-11.088H1412.704z"/>
	<path fill="#444444" d="M1428.468,464.238h-11.732c0.205,1.103,0.742,1.975,1.61,2.618c0.868,0.645,1.946,0.966,3.234,0.966
		c1.642,0,2.995-0.541,4.06-1.624l1.876,2.156c-0.672,0.803-1.521,1.41-2.548,1.82c-1.027,0.411-2.185,0.616-3.472,0.616
		c-1.644,0-3.09-0.327-4.341-0.98c-1.25-0.653-2.217-1.563-2.897-2.729c-0.682-1.167-1.022-2.487-1.022-3.962
		c0-1.456,0.331-2.768,0.994-3.935c0.662-1.166,1.582-2.076,2.758-2.729c1.177-0.653,2.502-0.98,3.977-0.98
		c1.456,0,2.758,0.322,3.906,0.966c1.147,0.645,2.044,1.55,2.688,2.716c0.644,1.167,0.966,2.516,0.966,4.047
		C1428.523,463.445,1428.505,463.79,1428.468,464.238z M1418.122,459.268c-0.775,0.663-1.246,1.545-1.414,2.646h8.483
		c-0.149-1.083-0.606-1.96-1.372-2.632c-0.766-0.673-1.718-1.009-2.855-1.009C1419.844,458.274,1418.896,458.606,1418.122,459.268z"
		/>
	<path fill="#444444" d="M1440.536,455.474v3.332c-0.299-0.056-0.57-0.084-0.813-0.084c-1.363,0-2.427,0.396-3.192,1.19
		c-0.766,0.793-1.147,1.937-1.147,3.43v7.252h-3.5v-14.952h3.332v2.185C1436.224,456.258,1437.997,455.474,1440.536,455.474z"/>
</g>
<g>
	<path fill="#444444" d="M657.86,865.688c-1.296-0.713-2.312-1.694-3.047-2.943c-0.736-1.25-1.104-2.657-1.104-4.221
		c0-1.564,0.368-2.971,1.104-4.221s1.755-2.231,3.059-2.944c1.303-0.713,2.76-1.069,4.37-1.069c1.257,0,2.407,0.211,3.45,0.633
		c1.042,0.422,1.932,1.046,2.668,1.874l-1.495,1.449c-1.211-1.272-2.722-1.909-4.531-1.909c-1.196,0-2.277,0.269-3.243,0.806
		c-0.966,0.536-1.721,1.276-2.265,2.219c-0.544,0.943-0.817,1.998-0.817,3.163s0.272,2.22,0.817,3.162
		c0.544,0.943,1.299,1.684,2.265,2.22c0.966,0.537,2.047,0.805,3.243,0.805c1.794,0,3.304-0.644,4.531-1.932l1.495,1.449
		c-0.736,0.828-1.629,1.457-2.679,1.886c-1.051,0.43-2.205,0.644-3.462,0.644C660.608,866.757,659.156,866.401,657.86,865.688z"/>
	<path fill="#444444" d="M681.527,855.614c0.912,0.897,1.369,2.213,1.369,3.945v7.015h-2.208v-6.762c0-1.181-0.284-2.07-0.851-2.668
		c-0.567-0.599-1.38-0.897-2.438-0.897c-1.196,0-2.139,0.349-2.829,1.047c-0.69,0.697-1.035,1.698-1.035,3.001v6.279h-2.208v-17.066
		h2.208v6.602c0.46-0.583,1.062-1.035,1.806-1.357c0.744-0.321,1.576-0.482,2.496-0.482
		C679.384,854.269,680.614,854.717,681.527,855.614z"/>
	<path fill="#444444" d="M695.304,855.51c0.897,0.828,1.345,2.063,1.345,3.703v7.36h-2.093v-1.61
		c-0.368,0.567-0.894,1.001-1.576,1.3c-0.683,0.299-1.491,0.448-2.426,0.448c-1.365,0-2.458-0.329-3.278-0.988s-1.23-1.526-1.23-2.6
		s0.391-1.936,1.173-2.587c0.782-0.652,2.024-0.978,3.726-0.978h3.496v-0.438c0-0.95-0.276-1.679-0.828-2.185
		c-0.552-0.506-1.365-0.76-2.438-0.76c-0.721,0-1.426,0.119-2.116,0.357c-0.69,0.237-1.273,0.556-1.748,0.954l-0.92-1.656
		c0.628-0.506,1.38-0.893,2.254-1.161s1.802-0.402,2.783-0.402C693.115,854.269,694.407,854.683,695.304,855.51z M693.107,864.446
		c0.613-0.375,1.058-0.908,1.334-1.598v-1.702h-3.404c-1.871,0-2.806,0.629-2.806,1.886c0,0.613,0.238,1.097,0.713,1.449
		s1.135,0.528,1.978,0.528S692.494,864.822,693.107,864.446z"/>
	<path fill="#444444" d="M700.743,849.507h2.208v17.066h-2.208V849.507z"/>
	<path fill="#444444" d="M707.16,849.507h2.208v17.066h-2.208V849.507z"/>
	<path fill="#444444" d="M724.548,861.214h-9.89c0.138,1.074,0.61,1.937,1.415,2.588c0.805,0.652,1.806,0.978,3.001,0.978
		c1.457,0,2.63-0.49,3.519-1.472l1.219,1.426c-0.552,0.644-1.239,1.135-2.059,1.472c-0.82,0.338-1.736,0.506-2.749,0.506
		c-1.288,0-2.431-0.265-3.427-0.793c-0.997-0.529-1.768-1.269-2.312-2.22c-0.544-0.95-0.817-2.024-0.817-3.22
		c0-1.181,0.265-2.246,0.793-3.197c0.529-0.95,1.257-1.69,2.185-2.22c0.928-0.528,1.974-0.793,3.14-0.793
		c1.165,0,2.204,0.265,3.117,0.793c0.912,0.529,1.625,1.27,2.139,2.22c0.514,0.951,0.771,2.039,0.771,3.266
		C724.594,860.716,724.579,860.939,724.548,861.214z M715.912,857.098c-0.713,0.644-1.131,1.487-1.254,2.529h7.82
		c-0.123-1.026-0.541-1.866-1.253-2.519c-0.713-0.651-1.599-0.978-2.657-0.978S716.625,856.453,715.912,857.098z"/>
	<path fill="#444444" d="M737.853,855.614c0.912,0.897,1.369,2.213,1.369,3.945v7.015h-2.208v-6.762c0-1.181-0.284-2.07-0.851-2.668
		c-0.567-0.599-1.38-0.897-2.438-0.897c-1.196,0-2.139,0.349-2.829,1.047c-0.69,0.697-1.035,1.698-1.035,3.001v6.279h-2.208v-12.19
		h2.116v1.841c0.444-0.629,1.046-1.112,1.806-1.449c0.759-0.337,1.622-0.506,2.587-0.506
		C735.71,854.269,736.94,854.717,737.853,855.614z"/>
	<path fill="#444444" d="M755.045,854.383v10.534c0,2.131-0.529,3.707-1.587,4.727s-2.637,1.529-4.738,1.529
		c-1.15,0-2.247-0.157-3.289-0.471c-1.043-0.314-1.886-0.764-2.53-1.346l1.058-1.702c0.567,0.49,1.269,0.878,2.104,1.161
		c0.835,0.284,1.698,0.426,2.587,0.426c1.426,0,2.48-0.338,3.163-1.012c0.682-0.675,1.023-1.702,1.023-3.082v-0.966
		c-0.521,0.629-1.162,1.1-1.92,1.414s-1.583,0.472-2.473,0.472c-1.166,0-2.219-0.249-3.162-0.748
		c-0.943-0.498-1.683-1.195-2.22-2.093c-0.537-0.896-0.805-1.92-0.805-3.07s0.268-2.174,0.805-3.07
		c0.537-0.897,1.276-1.591,2.22-2.082c0.943-0.49,1.997-0.735,3.162-0.735c0.92,0,1.775,0.169,2.564,0.506s1.438,0.836,1.944,1.495
		v-1.887H755.045z M750.848,863.629c0.636-0.337,1.134-0.809,1.495-1.414s0.541-1.292,0.541-2.059c0-1.181-0.391-2.135-1.173-2.863
		c-0.782-0.729-1.787-1.093-3.013-1.093c-1.242,0-2.254,0.364-3.036,1.093c-0.782,0.729-1.173,1.683-1.173,2.863
		c0,0.767,0.18,1.453,0.541,2.059s0.859,1.077,1.495,1.414c0.636,0.338,1.361,0.506,2.173,0.506
		C749.495,864.135,750.211,863.967,750.848,863.629z"/>
	<path fill="#444444" d="M770.225,861.214h-9.89c0.138,1.074,0.61,1.937,1.415,2.588c0.805,0.652,1.806,0.978,3.001,0.978
		c1.457,0,2.63-0.49,3.519-1.472l1.219,1.426c-0.552,0.644-1.239,1.135-2.059,1.472c-0.82,0.338-1.736,0.506-2.749,0.506
		c-1.288,0-2.431-0.265-3.427-0.793c-0.997-0.529-1.768-1.269-2.312-2.22c-0.544-0.95-0.817-2.024-0.817-3.22
		c0-1.181,0.265-2.246,0.793-3.197c0.529-0.95,1.257-1.69,2.185-2.22c0.928-0.528,1.974-0.793,3.14-0.793
		c1.165,0,2.204,0.265,3.117,0.793c0.912,0.529,1.625,1.27,2.139,2.22c0.514,0.951,0.771,2.039,0.771,3.266
		C770.271,860.716,770.256,860.939,770.225,861.214z M761.589,857.098c-0.713,0.644-1.131,1.487-1.254,2.529h7.82
		c-0.123-1.026-0.541-1.866-1.253-2.519c-0.713-0.651-1.599-0.978-2.657-0.978S762.302,856.453,761.589,857.098z"/>
	<path fill="#444444" d="M779.839,850.474h6.785c1.702,0,3.212,0.337,4.531,1.012c1.318,0.675,2.342,1.621,3.07,2.841
		c0.729,1.219,1.093,2.618,1.093,4.197s-0.364,2.979-1.093,4.197c-0.728,1.219-1.752,2.166-3.07,2.841
		c-1.319,0.675-2.829,1.012-4.531,1.012h-6.785V850.474z M786.486,864.573c1.303,0,2.45-0.253,3.438-0.759s1.751-1.215,2.289-2.128
		c0.537-0.912,0.805-1.966,0.805-3.162s-0.269-2.25-0.805-3.163c-0.537-0.912-1.3-1.621-2.289-2.127s-2.135-0.759-3.438-0.759
		h-4.347v12.098H786.486z"/>
	<path fill="#444444" d="M809.486,861.214h-9.89c0.138,1.074,0.61,1.937,1.415,2.588c0.805,0.652,1.806,0.978,3.001,0.978
		c1.457,0,2.63-0.49,3.519-1.472l1.219,1.426c-0.552,0.644-1.239,1.135-2.059,1.472c-0.82,0.338-1.736,0.506-2.749,0.506
		c-1.288,0-2.431-0.265-3.427-0.793c-0.997-0.529-1.768-1.269-2.312-2.22c-0.544-0.95-0.817-2.024-0.817-3.22
		c0-1.181,0.265-2.246,0.793-3.197c0.529-0.95,1.257-1.69,2.185-2.22c0.928-0.528,1.974-0.793,3.14-0.793
		c1.165,0,2.204,0.265,3.117,0.793c0.912,0.529,1.625,1.27,2.139,2.22c0.514,0.951,0.771,2.039,0.771,3.266
		C809.532,860.716,809.517,860.939,809.486,861.214z M800.85,857.098c-0.713,0.644-1.131,1.487-1.254,2.529h7.82
		c-0.123-1.026-0.541-1.866-1.253-2.519c-0.713-0.651-1.599-0.978-2.657-0.978S801.563,856.453,800.85,857.098z"/>
	<path fill="#444444" d="M815.075,853.325v1.058h3.542v1.817h-3.496v10.373h-2.208V856.2h-2.07v-1.817h2.07v-1.081
		c0-1.211,0.353-2.169,1.058-2.875c0.705-0.705,1.694-1.058,2.967-1.058c0.491,0,0.951,0.062,1.38,0.185
		c0.429,0.122,0.797,0.299,1.104,0.528l-0.667,1.68c-0.506-0.384-1.073-0.575-1.702-0.575
		C815.734,851.187,815.075,851.9,815.075,853.325z M822.584,851.623c-0.284-0.275-0.425-0.613-0.425-1.012s0.142-0.739,0.425-1.023
		s0.64-0.426,1.069-0.426s0.786,0.135,1.07,0.402c0.284,0.269,0.425,0.603,0.425,1.001c0,0.414-0.142,0.763-0.425,1.046
		c-0.284,0.284-0.641,0.426-1.07,0.426S822.868,851.9,822.584,851.623z M822.55,854.383h2.208v12.19h-2.208V854.383z"/>
	<path fill="#444444" d="M839.167,855.614c0.912,0.897,1.369,2.213,1.369,3.945v7.015h-2.208v-6.762c0-1.181-0.284-2.07-0.851-2.668
		c-0.567-0.599-1.38-0.897-2.438-0.897c-1.196,0-2.139,0.349-2.829,1.047c-0.69,0.697-1.035,1.698-1.035,3.001v6.279h-2.208v-12.19
		h2.116v1.841c0.444-0.629,1.046-1.112,1.806-1.449c0.759-0.337,1.622-0.506,2.587-0.506
		C837.024,854.269,838.254,854.717,839.167,855.614z"/>
	<path fill="#444444" d="M844.664,851.623c-0.284-0.275-0.425-0.613-0.425-1.012s0.142-0.739,0.425-1.023s0.64-0.426,1.069-0.426
		s0.786,0.135,1.07,0.402c0.283,0.269,0.425,0.603,0.425,1.001c0,0.414-0.142,0.763-0.425,1.046
		c-0.284,0.284-0.641,0.426-1.07,0.426S844.948,851.9,844.664,851.623z M844.629,854.383h2.208v12.19h-2.208V854.383z"/>
	<path fill="#444444" d="M857.9,865.861c-0.322,0.276-0.721,0.487-1.196,0.633c-0.476,0.146-0.966,0.218-1.472,0.218
		c-1.227,0-2.177-0.329-2.852-0.988s-1.012-1.603-1.012-2.829V856.2h-2.07v-1.817h2.07v-2.668h2.208v2.668h3.496v1.817h-3.496v6.601
		c0,0.66,0.165,1.166,0.495,1.519c0.33,0.353,0.801,0.529,1.415,0.529c0.674,0,1.25-0.192,1.725-0.575L857.9,865.861z"/>
	<path fill="#444444" d="M860.603,851.623c-0.284-0.275-0.425-0.613-0.425-1.012s0.142-0.739,0.425-1.023s0.64-0.426,1.069-0.426
		s0.786,0.135,1.07,0.402c0.283,0.269,0.425,0.603,0.425,1.001c0,0.414-0.142,0.763-0.425,1.046
		c-0.284,0.284-0.641,0.426-1.07,0.426S860.886,851.9,860.603,851.623z M860.568,854.383h2.208v12.19h-2.208V854.383z"/>
	<path fill="#444444" d="M868.94,865.906c-0.966-0.536-1.721-1.276-2.265-2.22c-0.544-0.942-0.817-2.013-0.817-3.208
		c0-1.196,0.272-2.266,0.817-3.209c0.544-0.942,1.299-1.679,2.265-2.208c0.966-0.528,2.055-0.793,3.266-0.793
		c1.211,0,2.296,0.265,3.254,0.793c0.958,0.529,1.709,1.266,2.254,2.208c0.544,0.943,0.817,2.013,0.817,3.209
		c0,1.195-0.272,2.266-0.817,3.208c-0.544,0.943-1.296,1.684-2.254,2.22c-0.958,0.537-2.043,0.805-3.254,0.805
		C870.995,866.711,869.906,866.444,868.94,865.906z M874.311,864.239c0.621-0.359,1.107-0.865,1.46-1.518
		c0.353-0.651,0.529-1.399,0.529-2.242c0-0.844-0.177-1.591-0.529-2.243c-0.353-0.651-0.839-1.153-1.46-1.506
		s-1.322-0.529-2.104-0.529c-0.782,0-1.483,0.177-2.104,0.529s-1.112,0.854-1.472,1.506c-0.36,0.652-0.541,1.399-0.541,2.243
		c0,0.843,0.18,1.591,0.541,2.242c0.36,0.652,0.851,1.158,1.472,1.518c0.621,0.361,1.323,0.541,2.104,0.541
		C872.988,864.78,873.689,864.6,874.311,864.239z"/>
	<path fill="#444444" d="M891.79,855.614c0.912,0.897,1.369,2.213,1.369,3.945v7.015h-2.208v-6.762c0-1.181-0.284-2.07-0.851-2.668
		c-0.567-0.599-1.38-0.897-2.438-0.897c-1.196,0-2.139,0.349-2.829,1.047c-0.69,0.697-1.035,1.698-1.035,3.001v6.279h-2.208v-12.19
		h2.116v1.841c0.444-0.629,1.046-1.112,1.806-1.449c0.759-0.337,1.622-0.506,2.587-0.506
		C889.647,854.269,890.877,854.717,891.79,855.614z"/>
</g>
<g>
	<path fill="#444444" d="M930.504,850.474h2.3v16.1h-2.3V850.474z"/>
	<path fill="#444444" d="M948.812,849.507v17.066h-2.116v-1.932c-0.491,0.675-1.112,1.188-1.863,1.541s-1.579,0.528-2.484,0.528
		c-1.181,0-2.239-0.26-3.174-0.781c-0.936-0.521-1.667-1.254-2.197-2.197c-0.529-0.942-0.793-2.027-0.793-3.254
		s0.265-2.308,0.793-3.243c0.529-0.936,1.261-1.664,2.197-2.186c0.935-0.521,1.993-0.781,3.174-0.781
		c0.874,0,1.679,0.165,2.415,0.494c0.736,0.33,1.349,0.816,1.84,1.461v-6.717H948.812z M944.626,864.239
		c0.628-0.359,1.119-0.865,1.472-1.518c0.353-0.651,0.529-1.399,0.529-2.242c0-0.844-0.177-1.591-0.529-2.243
		c-0.353-0.651-0.843-1.153-1.472-1.506c-0.629-0.353-1.327-0.529-2.093-0.529c-0.782,0-1.483,0.177-2.104,0.529
		s-1.112,0.854-1.472,1.506c-0.36,0.652-0.541,1.399-0.541,2.243c0,0.843,0.18,1.591,0.541,2.242
		c0.36,0.652,0.851,1.158,1.472,1.518c0.621,0.361,1.323,0.541,2.104,0.541C943.3,864.78,943.998,864.6,944.626,864.239z"/>
	<path fill="#444444" d="M963.97,861.214h-9.891c0.138,1.074,0.61,1.937,1.415,2.588c0.805,0.652,1.806,0.978,3.001,0.978
		c1.457,0,2.63-0.49,3.52-1.472l1.219,1.426c-0.552,0.644-1.238,1.135-2.059,1.472c-0.82,0.338-1.736,0.506-2.749,0.506
		c-1.288,0-2.431-0.265-3.427-0.793c-0.997-0.529-1.768-1.269-2.312-2.22c-0.544-0.95-0.817-2.024-0.817-3.22
		c0-1.181,0.265-2.246,0.793-3.197c0.529-0.95,1.257-1.69,2.185-2.22c0.928-0.528,1.974-0.793,3.14-0.793
		c1.165,0,2.204,0.265,3.117,0.793c0.912,0.529,1.625,1.27,2.139,2.22c0.514,0.951,0.771,2.039,0.771,3.266
		C964.016,860.716,964,860.939,963.97,861.214z M955.333,857.098c-0.713,0.644-1.131,1.487-1.254,2.529h7.82
		c-0.123-1.026-0.54-1.866-1.253-2.519c-0.714-0.651-1.599-0.978-2.657-0.978S956.046,856.453,955.333,857.098z"/>
	<path fill="#444444" d="M975.044,855.51c0.897,0.828,1.346,2.063,1.346,3.703v7.36h-2.093v-1.61
		c-0.368,0.567-0.894,1.001-1.576,1.3s-1.491,0.448-2.426,0.448c-1.365,0-2.458-0.329-3.278-0.988s-1.23-1.526-1.23-2.6
		s0.392-1.936,1.174-2.587c0.781-0.652,2.023-0.978,3.726-0.978h3.496v-0.438c0-0.95-0.276-1.679-0.828-2.185
		s-1.365-0.76-2.438-0.76c-0.721,0-1.426,0.119-2.115,0.357c-0.69,0.237-1.273,0.556-1.748,0.954l-0.92-1.656
		c0.628-0.506,1.38-0.893,2.254-1.161s1.802-0.402,2.783-0.402C972.855,854.269,974.147,854.683,975.044,855.51z M972.848,864.446
		c0.613-0.375,1.058-0.908,1.334-1.598v-1.702h-3.404c-1.871,0-2.806,0.629-2.806,1.886c0,0.613,0.237,1.097,0.713,1.449
		c0.475,0.353,1.135,0.528,1.978,0.528C971.506,865.009,972.234,864.822,972.848,864.446z"/>
	<path fill="#444444" d="M998.146,858.432h2.208v6.278c-0.797,0.66-1.725,1.166-2.782,1.519c-1.059,0.353-2.162,0.528-3.313,0.528
		c-1.625,0-3.09-0.356-4.393-1.069c-1.304-0.713-2.327-1.694-3.07-2.943c-0.744-1.25-1.116-2.657-1.116-4.221
		c0-1.564,0.372-2.975,1.116-4.232c0.743-1.257,1.771-2.238,3.081-2.943c1.312-0.705,2.787-1.059,4.428-1.059
		c1.288,0,2.457,0.211,3.508,0.633c1.05,0.422,1.943,1.039,2.68,1.852l-1.426,1.426c-1.288-1.242-2.845-1.863-4.67-1.863
		c-1.227,0-2.326,0.265-3.3,0.794c-0.975,0.529-1.736,1.265-2.289,2.208c-0.552,0.942-0.828,2.005-0.828,3.186
		c0,1.165,0.276,2.22,0.828,3.162c0.553,0.943,1.314,1.684,2.289,2.22c0.974,0.537,2.065,0.805,3.277,0.805
		c1.441,0,2.698-0.345,3.771-1.035V858.432z"/>
	<path fill="#444444" d="M1015.396,861.214h-9.89c0.138,1.074,0.609,1.937,1.414,2.588c0.806,0.652,1.806,0.978,3.002,0.978
		c1.456,0,2.63-0.49,3.519-1.472l1.22,1.426c-0.553,0.644-1.239,1.135-2.059,1.472c-0.82,0.338-1.736,0.506-2.749,0.506
		c-1.288,0-2.431-0.265-3.427-0.793c-0.997-0.529-1.768-1.269-2.312-2.22c-0.544-0.95-0.816-2.024-0.816-3.22
		c0-1.181,0.265-2.246,0.793-3.197c0.529-0.95,1.258-1.69,2.186-2.22c0.928-0.528,1.974-0.793,3.14-0.793
		c1.165,0,2.204,0.265,3.116,0.793c0.912,0.529,1.625,1.27,2.139,2.22c0.514,0.951,0.771,2.039,0.771,3.266
		C1015.442,860.716,1015.428,860.939,1015.396,861.214z M1006.761,857.098c-0.714,0.644-1.132,1.487-1.254,2.529h7.82
		c-0.123-1.026-0.541-1.866-1.254-2.519c-0.713-0.651-1.599-0.978-2.656-0.978C1008.358,856.131,1007.474,856.453,1006.761,857.098z
		"/>
	<path fill="#444444" d="M1028.702,855.614c0.912,0.897,1.369,2.213,1.369,3.945v7.015h-2.208v-6.762
		c0-1.181-0.284-2.07-0.852-2.668c-0.567-0.599-1.38-0.897-2.438-0.897c-1.196,0-2.14,0.349-2.829,1.047
		c-0.69,0.697-1.035,1.698-1.035,3.001v6.279h-2.208v-12.19h2.116v1.841c0.444-0.629,1.046-1.112,1.806-1.449
		c0.759-0.337,1.621-0.506,2.587-0.506C1026.56,854.269,1027.79,854.717,1028.702,855.614z"/>
	<path fill="#444444" d="M1045.204,861.214h-9.89c0.138,1.074,0.609,1.937,1.414,2.588c0.806,0.652,1.806,0.978,3.002,0.978
		c1.456,0,2.63-0.49,3.519-1.472l1.22,1.426c-0.553,0.644-1.239,1.135-2.059,1.472c-0.82,0.338-1.736,0.506-2.749,0.506
		c-1.288,0-2.431-0.265-3.427-0.793c-0.997-0.529-1.768-1.269-2.312-2.22c-0.544-0.95-0.816-2.024-0.816-3.22
		c0-1.181,0.265-2.246,0.793-3.197c0.529-0.95,1.258-1.69,2.186-2.22c0.928-0.528,1.974-0.793,3.14-0.793
		c1.165,0,2.204,0.265,3.116,0.793c0.912,0.529,1.625,1.27,2.139,2.22c0.514,0.951,0.771,2.039,0.771,3.266
		C1045.25,860.716,1045.235,860.939,1045.204,861.214z M1036.568,857.098c-0.714,0.644-1.132,1.487-1.254,2.529h7.82
		c-0.123-1.026-0.541-1.866-1.254-2.519c-0.713-0.651-1.599-0.978-2.656-0.978C1038.166,856.131,1037.281,856.453,1036.568,857.098z
		"/>
	<path fill="#444444" d="M1052.128,854.821c0.751-0.368,1.663-0.552,2.736-0.552v2.139c-0.123-0.015-0.291-0.023-0.506-0.023
		c-1.196,0-2.135,0.357-2.817,1.07s-1.023,1.729-1.023,3.047v6.072h-2.208v-12.19h2.116v2.048
		C1050.809,855.726,1051.376,855.189,1052.128,854.821z"/>
	<path fill="#444444" d="M1065.87,855.51c0.897,0.828,1.346,2.063,1.346,3.703v7.36h-2.093v-1.61
		c-0.368,0.567-0.894,1.001-1.576,1.3s-1.491,0.448-2.426,0.448c-1.365,0-2.458-0.329-3.278-0.988s-1.23-1.526-1.23-2.6
		s0.392-1.936,1.174-2.587c0.781-0.652,2.023-0.978,3.726-0.978h3.496v-0.438c0-0.95-0.276-1.679-0.828-2.185
		s-1.365-0.76-2.438-0.76c-0.721,0-1.426,0.119-2.115,0.357c-0.69,0.237-1.273,0.556-1.748,0.954l-0.92-1.656
		c0.628-0.506,1.38-0.893,2.254-1.161s1.802-0.402,2.783-0.402C1063.682,854.269,1064.974,854.683,1065.87,855.51z
		 M1063.674,864.446c0.613-0.375,1.058-0.908,1.334-1.598v-1.702h-3.404c-1.871,0-2.806,0.629-2.806,1.886
		c0,0.613,0.237,1.097,0.713,1.449c0.475,0.353,1.135,0.528,1.978,0.528C1062.332,865.009,1063.061,864.822,1063.674,864.446z"/>
	<path fill="#444444" d="M1078.163,865.861c-0.322,0.276-0.721,0.487-1.196,0.633s-0.966,0.218-1.472,0.218
		c-1.227,0-2.178-0.329-2.853-0.988s-1.012-1.603-1.012-2.829V856.2h-2.069v-1.817h2.069v-2.668h2.208v2.668h3.496v1.817h-3.496
		v6.601c0,0.66,0.165,1.166,0.495,1.519c0.329,0.353,0.801,0.529,1.414,0.529c0.675,0,1.25-0.192,1.725-0.575L1078.163,865.861z"/>
	<path fill="#444444" d="M1080.865,851.623c-0.283-0.275-0.425-0.613-0.425-1.012s0.142-0.739,0.425-1.023
		c0.284-0.284,0.641-0.426,1.069-0.426c0.43,0,0.786,0.135,1.07,0.402c0.283,0.269,0.425,0.603,0.425,1.001
		c0,0.414-0.142,0.763-0.425,1.046c-0.284,0.284-0.641,0.426-1.07,0.426C1081.506,852.037,1081.149,851.9,1080.865,851.623z
		 M1080.831,854.383h2.208v12.19h-2.208V854.383z"/>
	<path fill="#444444" d="M1089.202,865.906c-0.966-0.536-1.721-1.276-2.265-2.22c-0.545-0.942-0.817-2.013-0.817-3.208
		c0-1.196,0.272-2.266,0.817-3.209c0.544-0.942,1.299-1.679,2.265-2.208c0.967-0.528,2.055-0.793,3.267-0.793
		c1.211,0,2.296,0.265,3.254,0.793c0.958,0.529,1.71,1.266,2.254,2.208c0.545,0.943,0.817,2.013,0.817,3.209
		c0,1.195-0.272,2.266-0.817,3.208c-0.544,0.943-1.296,1.684-2.254,2.22c-0.958,0.537-2.043,0.805-3.254,0.805
		C1091.257,866.711,1090.169,866.444,1089.202,865.906z M1094.573,864.239c0.621-0.359,1.107-0.865,1.46-1.518
		c0.353-0.651,0.529-1.399,0.529-2.242c0-0.844-0.177-1.591-0.529-2.243c-0.353-0.651-0.839-1.153-1.46-1.506
		s-1.322-0.529-2.104-0.529s-1.483,0.177-2.104,0.529s-1.112,0.854-1.473,1.506c-0.36,0.652-0.54,1.399-0.54,2.243
		c0,0.843,0.18,1.591,0.54,2.242c0.36,0.652,0.852,1.158,1.473,1.518c0.621,0.361,1.322,0.541,2.104,0.541
		S1093.952,864.6,1094.573,864.239z"/>
	<path fill="#444444" d="M1112.053,855.614c0.912,0.897,1.369,2.213,1.369,3.945v7.015h-2.208v-6.762
		c0-1.181-0.284-2.07-0.852-2.668c-0.567-0.599-1.38-0.897-2.438-0.897c-1.196,0-2.14,0.349-2.829,1.047
		c-0.69,0.697-1.035,1.698-1.035,3.001v6.279h-2.208v-12.19h2.116v1.841c0.444-0.629,1.046-1.112,1.806-1.449
		c0.759-0.337,1.621-0.506,2.587-0.506C1109.91,854.269,1111.141,854.717,1112.053,855.614z"/>
</g>
<g>
	<path fill="#444444" d="M1158.695,851.968c1.195,0.997,1.794,2.369,1.794,4.117s-0.599,3.121-1.794,4.117
		c-1.196,0.997-2.837,1.495-4.923,1.495h-3.979v4.876h-2.3v-16.1h6.278C1155.858,850.474,1157.499,850.972,1158.695,851.968z
		 M1157.039,858.765c0.767-0.621,1.149-1.514,1.149-2.68c0-1.165-0.383-2.059-1.149-2.68c-0.768-0.62-1.879-0.931-3.335-0.931h-3.91
		v7.222h3.91C1155.16,859.697,1156.271,859.386,1157.039,858.765z"/>
	<path fill="#444444" d="M1167.159,854.821c0.751-0.368,1.663-0.552,2.736-0.552v2.139c-0.123-0.015-0.291-0.023-0.506-0.023
		c-1.196,0-2.135,0.357-2.817,1.07s-1.023,1.729-1.023,3.047v6.072h-2.208v-12.19h2.116v2.048
		C1165.84,855.726,1166.407,855.189,1167.159,854.821z"/>
	<path fill="#444444" d="M1174.449,865.906c-0.966-0.536-1.721-1.276-2.265-2.22c-0.545-0.942-0.817-2.013-0.817-3.208
		c0-1.196,0.272-2.266,0.817-3.209c0.544-0.942,1.299-1.679,2.265-2.208c0.967-0.528,2.055-0.793,3.267-0.793
		c1.211,0,2.296,0.265,3.254,0.793c0.958,0.529,1.71,1.266,2.254,2.208c0.545,0.943,0.817,2.013,0.817,3.209
		c0,1.195-0.272,2.266-0.817,3.208c-0.544,0.943-1.296,1.684-2.254,2.22c-0.958,0.537-2.043,0.805-3.254,0.805
		C1176.504,866.711,1175.416,866.444,1174.449,865.906z M1179.82,864.239c0.621-0.359,1.107-0.865,1.46-1.518
		c0.353-0.651,0.529-1.399,0.529-2.242c0-0.844-0.177-1.591-0.529-2.243c-0.353-0.651-0.839-1.153-1.46-1.506
		s-1.322-0.529-2.104-0.529s-1.483,0.177-2.104,0.529s-1.112,0.854-1.473,1.506c-0.36,0.652-0.54,1.399-0.54,2.243
		c0,0.843,0.18,1.591,0.54,2.242c0.36,0.652,0.852,1.158,1.473,1.518c0.621,0.361,1.322,0.541,2.104,0.541
		S1179.199,864.6,1179.82,864.239z"/>
	<path fill="#444444" d="M1193.953,865.861c-0.322,0.276-0.721,0.487-1.196,0.633s-0.966,0.218-1.472,0.218
		c-1.227,0-2.178-0.329-2.853-0.988s-1.012-1.603-1.012-2.829V856.2h-2.069v-1.817h2.069v-2.668h2.208v2.668h3.496v1.817h-3.496
		v6.601c0,0.66,0.165,1.166,0.495,1.519c0.329,0.353,0.801,0.529,1.414,0.529c0.675,0,1.25-0.192,1.725-0.575L1193.953,865.861z"/>
	<path fill="#444444" d="M1198.162,865.906c-0.966-0.536-1.722-1.276-2.266-2.22c-0.544-0.942-0.816-2.013-0.816-3.208
		c0-1.196,0.272-2.266,0.816-3.209c0.544-0.942,1.3-1.679,2.266-2.208c0.966-0.528,2.055-0.793,3.266-0.793s2.296,0.265,3.255,0.793
		c0.958,0.529,1.709,1.266,2.254,2.208c0.544,0.943,0.816,2.013,0.816,3.209c0,1.195-0.272,2.266-0.816,3.208
		c-0.545,0.943-1.296,1.684-2.254,2.22c-0.959,0.537-2.044,0.805-3.255,0.805S1199.128,866.444,1198.162,865.906z M1203.532,864.239
		c0.621-0.359,1.107-0.865,1.461-1.518c0.353-0.651,0.529-1.399,0.529-2.242c0-0.844-0.177-1.591-0.529-2.243
		c-0.354-0.651-0.84-1.153-1.461-1.506s-1.322-0.529-2.104-0.529c-0.781,0-1.483,0.177-2.104,0.529s-1.111,0.854-1.472,1.506
		c-0.36,0.652-0.541,1.399-0.541,2.243c0,0.843,0.181,1.591,0.541,2.242c0.36,0.652,0.851,1.158,1.472,1.518
		c0.621,0.361,1.323,0.541,2.104,0.541C1202.21,864.78,1202.911,864.6,1203.532,864.239z"/>
	<path fill="#444444" d="M1217.666,865.861c-0.322,0.276-0.721,0.487-1.196,0.633s-0.966,0.218-1.472,0.218
		c-1.227,0-2.178-0.329-2.853-0.988s-1.012-1.603-1.012-2.829V856.2h-2.069v-1.817h2.069v-2.668h2.208v2.668h3.496v1.817h-3.496
		v6.601c0,0.66,0.165,1.166,0.495,1.519c0.329,0.353,0.801,0.529,1.414,0.529c0.675,0,1.25-0.192,1.725-0.575L1217.666,865.861z"/>
	<path fill="#444444" d="M1230.891,854.383l-5.91,13.409c-0.521,1.242-1.132,2.116-1.829,2.622
		c-0.698,0.506-1.537,0.759-2.519,0.759c-0.598,0-1.177-0.096-1.736-0.287c-0.56-0.192-1.023-0.472-1.392-0.84l0.943-1.655
		c0.628,0.598,1.356,0.896,2.185,0.896c0.537,0,0.985-0.142,1.346-0.426c0.36-0.283,0.686-0.771,0.978-1.46l0.391-0.852
		l-5.382-12.167h2.3l4.255,9.752l4.209-9.752H1230.891z"/>
	<path fill="#444444" d="M1242.598,855.05c0.936,0.521,1.668,1.25,2.196,2.186c0.529,0.936,0.794,2.017,0.794,3.243
		s-0.265,2.312-0.794,3.254c-0.528,0.943-1.261,1.676-2.196,2.197s-1.993,0.781-3.174,0.781c-0.874,0-1.676-0.168-2.403-0.506
		c-0.729-0.337-1.346-0.828-1.852-1.472v6.302h-2.208v-16.652h2.116v1.933c0.49-0.675,1.111-1.185,1.862-1.529
		c0.752-0.346,1.579-0.518,2.484-0.518C1240.604,854.269,1241.662,854.53,1242.598,855.05z M1241.345,864.239
		c0.621-0.359,1.111-0.865,1.472-1.518c0.36-0.651,0.54-1.399,0.54-2.242c0-0.844-0.18-1.591-0.54-2.243
		c-0.36-0.651-0.851-1.153-1.472-1.506s-1.323-0.529-2.104-0.529c-0.768,0-1.461,0.181-2.082,0.541s-1.111,0.862-1.472,1.506
		c-0.36,0.645-0.541,1.388-0.541,2.231c0,0.843,0.177,1.591,0.529,2.242c0.353,0.652,0.843,1.158,1.472,1.518
		c0.629,0.361,1.326,0.541,2.094,0.541C1240.021,864.78,1240.724,864.6,1241.345,864.239z"/>
	<path fill="#444444" d="M1248.681,851.623c-0.283-0.275-0.425-0.613-0.425-1.012s0.142-0.739,0.425-1.023
		c0.284-0.284,0.641-0.426,1.069-0.426c0.43,0,0.786,0.135,1.07,0.402c0.283,0.269,0.425,0.603,0.425,1.001
		c0,0.414-0.142,0.763-0.425,1.046c-0.284,0.284-0.641,0.426-1.07,0.426C1249.321,852.037,1248.965,851.9,1248.681,851.623z
		 M1248.646,854.383h2.208v12.19h-2.208V854.383z"/>
	<path fill="#444444" d="M1265.264,855.614c0.912,0.897,1.369,2.213,1.369,3.945v7.015h-2.208v-6.762
		c0-1.181-0.284-2.07-0.852-2.668c-0.567-0.599-1.38-0.897-2.438-0.897c-1.196,0-2.14,0.349-2.829,1.047
		c-0.69,0.697-1.035,1.698-1.035,3.001v6.279h-2.208v-12.19h2.116v1.841c0.444-0.629,1.046-1.112,1.806-1.449
		c0.759-0.337,1.621-0.506,2.587-0.506C1263.121,854.269,1264.352,854.717,1265.264,855.614z"/>
	<path fill="#444444" d="M1282.456,854.383v10.534c0,2.131-0.529,3.707-1.587,4.727c-1.059,1.02-2.638,1.529-4.738,1.529
		c-1.15,0-2.246-0.157-3.289-0.471c-1.043-0.314-1.886-0.764-2.53-1.346l1.059-1.702c0.566,0.49,1.269,0.878,2.104,1.161
		c0.835,0.284,1.698,0.426,2.587,0.426c1.427,0,2.48-0.338,3.163-1.012c0.682-0.675,1.023-1.702,1.023-3.082v-0.966
		c-0.521,0.629-1.162,1.1-1.921,1.414s-1.583,0.472-2.473,0.472c-1.165,0-2.219-0.249-3.162-0.748
		c-0.943-0.498-1.683-1.195-2.22-2.093c-0.537-0.896-0.805-1.92-0.805-3.07s0.268-2.174,0.805-3.07
		c0.537-0.897,1.276-1.591,2.22-2.082c0.943-0.49,1.997-0.735,3.162-0.735c0.921,0,1.775,0.169,2.564,0.506
		c0.79,0.337,1.438,0.836,1.944,1.495v-1.887H1282.456z M1278.259,863.629c0.636-0.337,1.134-0.809,1.494-1.414
		s0.541-1.292,0.541-2.059c0-1.181-0.391-2.135-1.173-2.863s-1.787-1.093-3.014-1.093c-1.241,0-2.254,0.364-3.035,1.093
		c-0.782,0.729-1.174,1.683-1.174,2.863c0,0.767,0.181,1.453,0.541,2.059s0.858,1.077,1.495,1.414
		c0.636,0.338,1.36,0.506,2.173,0.506C1276.905,864.135,1277.622,863.967,1278.259,863.629z"/>
</g>
<g>
	<path fill="#444444" d="M1331.684,852.475h-5.521v-2.001h13.317v2.001h-5.52v14.099h-2.277V852.475z"/>
	<path fill="#444444" d="M1351.371,861.214h-9.89c0.138,1.074,0.609,1.937,1.414,2.588c0.806,0.652,1.806,0.978,3.002,0.978
		c1.456,0,2.63-0.49,3.519-1.472l1.22,1.426c-0.553,0.644-1.239,1.135-2.059,1.472c-0.82,0.338-1.736,0.506-2.749,0.506
		c-1.288,0-2.431-0.265-3.427-0.793c-0.997-0.529-1.768-1.269-2.312-2.22c-0.544-0.95-0.816-2.024-0.816-3.22
		c0-1.181,0.265-2.246,0.793-3.197c0.529-0.95,1.258-1.69,2.186-2.22c0.928-0.528,1.974-0.793,3.14-0.793
		c1.165,0,2.204,0.265,3.116,0.793c0.912,0.529,1.625,1.27,2.139,2.22c0.514,0.951,0.771,2.039,0.771,3.266
		C1351.417,860.716,1351.402,860.939,1351.371,861.214z M1342.735,857.098c-0.714,0.644-1.132,1.487-1.254,2.529h7.82
		c-0.123-1.026-0.541-1.866-1.254-2.519c-0.713-0.651-1.599-0.978-2.656-0.978C1344.333,856.131,1343.448,856.453,1342.735,857.098z
		"/>
	<path fill="#444444" d="M1355.098,866.309c-0.92-0.268-1.641-0.609-2.162-1.023l0.92-1.748c0.537,0.384,1.188,0.69,1.955,0.92
		c0.767,0.23,1.541,0.345,2.323,0.345c1.932,0,2.897-0.552,2.897-1.655c0-0.368-0.13-0.659-0.391-0.874s-0.587-0.372-0.978-0.472
		s-0.947-0.211-1.668-0.334c-0.981-0.152-1.782-0.329-2.403-0.528s-1.153-0.537-1.599-1.013c-0.444-0.475-0.667-1.142-0.667-2.001
		c0-1.104,0.46-1.989,1.381-2.656c0.92-0.667,2.153-1,3.702-1c0.813,0,1.625,0.1,2.438,0.299c0.813,0.199,1.479,0.468,2.001,0.805
		l-0.943,1.748c-0.997-0.644-2.17-0.966-3.519-0.966c-0.936,0-1.648,0.153-2.14,0.46c-0.49,0.307-0.735,0.713-0.735,1.219
		c0,0.399,0.138,0.713,0.414,0.943c0.275,0.229,0.617,0.398,1.023,0.506s0.978,0.23,1.713,0.368c0.981,0.169,1.775,0.349,2.381,0.54
		c0.605,0.192,1.123,0.518,1.553,0.978c0.429,0.46,0.644,1.104,0.644,1.933c0,1.104-0.472,1.981-1.414,2.633
		c-0.943,0.652-2.228,0.978-3.853,0.978C1356.976,866.711,1356.018,866.577,1355.098,866.309z"/>
	<path fill="#444444" d="M1372.854,865.861c-0.322,0.276-0.721,0.487-1.196,0.633s-0.966,0.218-1.472,0.218
		c-1.227,0-2.178-0.329-2.853-0.988s-1.012-1.603-1.012-2.829V856.2h-2.069v-1.817h2.069v-2.668h2.208v2.668h3.496v1.817h-3.496
		v6.601c0,0.66,0.165,1.166,0.495,1.519c0.329,0.353,0.801,0.529,1.414,0.529c0.675,0,1.25-0.192,1.725-0.575L1372.854,865.861z"/>
	<path fill="#444444" d="M1375.556,851.623c-0.284-0.275-0.426-0.613-0.426-1.012s0.142-0.739,0.426-1.023
		c0.283-0.284,0.64-0.426,1.069-0.426c0.429,0,0.785,0.135,1.069,0.402c0.283,0.269,0.426,0.603,0.426,1.001
		c0,0.414-0.143,0.763-0.426,1.046c-0.284,0.284-0.641,0.426-1.069,0.426C1376.195,852.037,1375.839,851.9,1375.556,851.623z
		 M1375.521,854.383h2.208v12.19h-2.208V854.383z"/>
	<path fill="#444444" d="M1392.139,855.614c0.912,0.897,1.368,2.213,1.368,3.945v7.015h-2.208v-6.762
		c0-1.181-0.284-2.07-0.851-2.668c-0.567-0.599-1.38-0.897-2.438-0.897c-1.195,0-2.139,0.349-2.829,1.047
		c-0.689,0.697-1.035,1.698-1.035,3.001v6.279h-2.208v-12.19h2.116v1.841c0.444-0.629,1.047-1.112,1.806-1.449
		s1.622-0.506,2.588-0.506C1389.995,854.269,1391.226,854.717,1392.139,855.614z"/>
	<path fill="#444444" d="M1409.33,854.383v10.534c0,2.131-0.528,3.707-1.587,4.727c-1.058,1.02-2.637,1.529-4.737,1.529
		c-1.15,0-2.247-0.157-3.289-0.471c-1.043-0.314-1.887-0.764-2.53-1.346l1.058-1.702c0.567,0.49,1.269,0.878,2.104,1.161
		c0.836,0.284,1.698,0.426,2.588,0.426c1.426,0,2.479-0.338,3.162-1.012c0.683-0.675,1.023-1.702,1.023-3.082v-0.966
		c-0.521,0.629-1.161,1.1-1.92,1.414s-1.584,0.472-2.473,0.472c-1.166,0-2.22-0.249-3.162-0.748
		c-0.943-0.498-1.684-1.195-2.22-2.093c-0.537-0.896-0.806-1.92-0.806-3.07s0.269-2.174,0.806-3.07
		c0.536-0.897,1.276-1.591,2.22-2.082c0.942-0.49,1.996-0.735,3.162-0.735c0.92,0,1.774,0.169,2.564,0.506
		c0.789,0.337,1.438,0.836,1.943,1.495v-1.887H1409.33z M1405.133,863.629c0.636-0.337,1.135-0.809,1.495-1.414
		s0.54-1.292,0.54-2.059c0-1.181-0.391-2.135-1.173-2.863c-0.781-0.729-1.786-1.093-3.013-1.093c-1.242,0-2.254,0.364-3.036,1.093
		s-1.173,1.683-1.173,2.863c0,0.767,0.18,1.453,0.54,2.059s0.859,1.077,1.495,1.414c0.637,0.338,1.361,0.506,2.174,0.506
		C1403.779,864.135,1404.496,863.967,1405.133,863.629z"/>
</g>
<g>
	<path fill="#444444" d="M1449.48,850.474h2.3v16.1h-2.3V850.474z"/>
	<path fill="#444444" d="M1475.183,855.603c0.897,0.889,1.346,2.208,1.346,3.956v7.015h-2.208v-6.762
		c0-1.181-0.272-2.07-0.816-2.668c-0.544-0.599-1.322-0.897-2.334-0.897c-1.12,0-2.009,0.349-2.668,1.047
		c-0.66,0.697-0.989,1.698-0.989,3.001v6.279h-2.208v-6.762c0-1.181-0.272-2.07-0.816-2.668c-0.545-0.599-1.322-0.897-2.335-0.897
		c-1.119,0-2.009,0.349-2.668,1.047c-0.659,0.697-0.989,1.698-0.989,3.001v6.279h-2.208v-12.19h2.116v1.817
		c0.444-0.629,1.027-1.107,1.748-1.438c0.721-0.329,1.541-0.494,2.461-0.494c0.951,0,1.794,0.191,2.53,0.574
		c0.736,0.384,1.303,0.943,1.702,1.68c0.46-0.705,1.1-1.257,1.92-1.656c0.82-0.398,1.744-0.598,2.771-0.598
		C1473.07,854.269,1474.286,854.713,1475.183,855.603z"/>
	<path fill="#444444" d="M1490.236,855.05c0.936,0.521,1.668,1.25,2.196,2.186c0.529,0.936,0.794,2.017,0.794,3.243
		s-0.265,2.312-0.794,3.254c-0.528,0.943-1.261,1.676-2.196,2.197s-1.993,0.781-3.174,0.781c-0.874,0-1.676-0.168-2.403-0.506
		c-0.729-0.337-1.346-0.828-1.852-1.472v6.302h-2.208v-16.652h2.116v1.933c0.49-0.675,1.111-1.185,1.862-1.529
		c0.752-0.346,1.579-0.518,2.484-0.518C1488.243,854.269,1489.301,854.53,1490.236,855.05z M1488.983,864.239
		c0.621-0.359,1.111-0.865,1.472-1.518c0.36-0.651,0.54-1.399,0.54-2.242c0-0.844-0.18-1.591-0.54-2.243
		c-0.36-0.651-0.851-1.153-1.472-1.506s-1.323-0.529-2.104-0.529c-0.768,0-1.461,0.181-2.082,0.541s-1.111,0.862-1.472,1.506
		c-0.36,0.645-0.541,1.388-0.541,2.231c0,0.843,0.177,1.591,0.529,2.242c0.353,0.652,0.843,1.158,1.472,1.518
		c0.629,0.361,1.326,0.541,2.094,0.541C1487.66,864.78,1488.362,864.6,1488.983,864.239z"/>
	<path fill="#444444" d="M1496.285,849.507h2.208v17.066h-2.208V849.507z"/>
	<path fill="#444444" d="M1513.673,861.214h-9.89c0.138,1.074,0.609,1.937,1.414,2.588c0.806,0.652,1.806,0.978,3.002,0.978
		c1.456,0,2.63-0.49,3.519-1.472l1.22,1.426c-0.553,0.644-1.239,1.135-2.059,1.472c-0.82,0.338-1.736,0.506-2.749,0.506
		c-1.288,0-2.431-0.265-3.427-0.793c-0.997-0.529-1.768-1.269-2.312-2.22c-0.544-0.95-0.816-2.024-0.816-3.22
		c0-1.181,0.265-2.246,0.793-3.197c0.529-0.95,1.258-1.69,2.186-2.22c0.928-0.528,1.974-0.793,3.14-0.793
		c1.165,0,2.204,0.265,3.116,0.793c0.912,0.529,1.625,1.27,2.139,2.22c0.514,0.951,0.771,2.039,0.771,3.266
		C1513.719,860.716,1513.704,860.939,1513.673,861.214z M1505.037,857.098c-0.714,0.644-1.132,1.487-1.254,2.529h7.82
		c-0.123-1.026-0.541-1.866-1.254-2.519c-0.713-0.651-1.599-0.978-2.656-0.978C1506.635,856.131,1505.75,856.453,1505.037,857.098z"
		/>
	<path fill="#444444" d="M1535.672,855.603c0.897,0.889,1.346,2.208,1.346,3.956v7.015h-2.208v-6.762
		c0-1.181-0.272-2.07-0.816-2.668c-0.544-0.599-1.322-0.897-2.334-0.897c-1.12,0-2.009,0.349-2.668,1.047
		c-0.66,0.697-0.989,1.698-0.989,3.001v6.279h-2.208v-6.762c0-1.181-0.272-2.07-0.816-2.668c-0.545-0.599-1.322-0.897-2.335-0.897
		c-1.119,0-2.009,0.349-2.668,1.047c-0.659,0.697-0.989,1.698-0.989,3.001v6.279h-2.208v-12.19h2.116v1.817
		c0.444-0.629,1.027-1.107,1.748-1.438c0.721-0.329,1.541-0.494,2.461-0.494c0.951,0,1.794,0.191,2.53,0.574
		c0.736,0.384,1.303,0.943,1.702,1.68c0.46-0.705,1.1-1.257,1.92-1.656c0.82-0.398,1.744-0.598,2.771-0.598
		C1533.56,854.269,1534.775,854.713,1535.672,855.603z"/>
	<path fill="#444444" d="M1552.129,861.214h-9.891c0.139,1.074,0.61,1.937,1.415,2.588c0.805,0.652,1.806,0.978,3.001,0.978
		c1.457,0,2.63-0.49,3.52-1.472l1.219,1.426c-0.552,0.644-1.238,1.135-2.059,1.472c-0.82,0.338-1.736,0.506-2.748,0.506
		c-1.288,0-2.431-0.265-3.427-0.793c-0.997-0.529-1.768-1.269-2.312-2.22c-0.545-0.95-0.817-2.024-0.817-3.22
		c0-1.181,0.265-2.246,0.794-3.197c0.529-0.95,1.257-1.69,2.185-2.22c0.928-0.528,1.975-0.793,3.14-0.793s2.204,0.265,3.117,0.793
		c0.912,0.529,1.625,1.27,2.139,2.22c0.514,0.951,0.771,2.039,0.771,3.266C1552.175,860.716,1552.159,860.939,1552.129,861.214z
		 M1543.492,857.098c-0.713,0.644-1.131,1.487-1.254,2.529h7.82c-0.123-1.026-0.54-1.866-1.253-2.519
		c-0.714-0.651-1.599-0.978-2.657-0.978C1545.091,856.131,1544.205,856.453,1543.492,857.098z"/>
	<path fill="#444444" d="M1565.434,855.614c0.912,0.897,1.369,2.213,1.369,3.945v7.015h-2.208v-6.762
		c0-1.181-0.284-2.07-0.852-2.668c-0.567-0.599-1.38-0.897-2.438-0.897c-1.196,0-2.14,0.349-2.829,1.047
		c-0.69,0.697-1.035,1.698-1.035,3.001v6.279h-2.208v-12.19h2.116v1.841c0.444-0.629,1.046-1.112,1.806-1.449
		c0.759-0.337,1.621-0.506,2.587-0.506C1563.291,854.269,1564.521,854.717,1565.434,855.614z"/>
	<path fill="#444444" d="M1577.75,865.861c-0.321,0.276-0.721,0.487-1.195,0.633c-0.476,0.146-0.966,0.218-1.473,0.218
		c-1.227,0-2.177-0.329-2.852-0.988s-1.012-1.603-1.012-2.829V856.2h-2.07v-1.817h2.07v-2.668h2.208v2.668h3.496v1.817h-3.496v6.601
		c0,0.66,0.164,1.166,0.494,1.519s0.801,0.529,1.415,0.529c0.674,0,1.249-0.192,1.725-0.575L1577.75,865.861z"/>
</g>
<g>
	<g opacity="0.48">
		<g>
			<defs>
				<rect id="SVGID_65_" x="912.782" y="353.928" width="233.798" height="227.912"/>
			</defs>
			<clipPath id="SVGID_66_">
				<use xlink:href="#SVGID_65_"  overflow="visible"/>
			</clipPath>
			<path clip-path="url(#SVGID_66_)" fill="#FFC907" d="M1029.681,581.231c61.596,0,111.623-49.926,111.623-111.622
				s-49.926-111.622-111.623-111.622c-61.595,0-111.621,49.926-111.621,111.622S967.984,581.231,1029.681,581.231"/>
		</g>
	</g>
</g>
</svg>
