<?xml version="1.0" encoding="utf-8"?>
<!-- Generator: Adobe Illustrator 16.0.0, SVG Export Plug-In . SVG Version: 6.00 Build 0)  -->
<!DOCTYPE svg PUBLIC "-//W3C//DTD SVG 1.1//EN" "http://www.w3.org/Graphics/SVG/1.1/DTD/svg11.dtd">
<svg version="1.1" id="Layer_1" xmlns="http://www.w3.org/2000/svg" xmlns:xlink="http://www.w3.org/1999/xlink" x="0px" y="0px"
	 width="1920px" height="1728px" viewBox="0 0 1920 1728" enable-background="new 0 0 1920 1728" xml:space="preserve">
<path fill-rule="evenodd" clip-rule="evenodd" d="M470.253,0C557.337,0,801.169,0,836,0c0,48.667,0,210.891,0,243.336
	c-16.221,49.164,0.5,65.385,50.163,48.664c83.612,0,579.503,0,743.837,0c140.022,0,106,27.178,106,163.5
	c0,166.575,0.324,659.796,0.688,739.829c0.277,60.964-35.802,43.671-86.354,43.671c-163.778,0-327.556,0-491.334,0
	c0,71.602,37.414,162,103,162c0,25.144-343.78,11-376.669,11c-75.278,0-49.331,26.026-49.331,90.283c0,75.239,0,150.478,0,225.717
	c-174.168,0-801.169,0-836,0C0,1675.64,0,349.094,0,0"/>
</svg>
