<?xml version="1.0" encoding="utf-8"?>
<!-- Generator: Adobe Illustrator 22.0.1, SVG Export Plug-In . SVG Version: 6.00 Build 0)  -->
<svg version="1.1" id="Ebene_1" xmlns="http://www.w3.org/2000/svg" xmlns:xlink="http://www.w3.org/1999/xlink" x="0px" y="0px"
	 viewBox="0 0 1920 1920" style="enable-background:new 0 0 1920 1920;" xml:space="preserve">
<style type="text/css">
	.st0{fill-rule:evenodd;clip-rule:evenodd;fill:#010202;}
</style>
<path class="st0" d="M0,0c139.3,0,836,0,836,0v404c0,0,778.7,18.7,828,20c45.5,1.2,165.8-16.3,198,12c39.4,34.7-15.3,109.2-30,138
	c-54.1,105.6-217.4,428-241,479c5.4,0.2,22,1,22,1l111,287c0,0-198.9,57.6-223,65c-64.4,19.7-146.6,40.3-217,58
	c-76.4,19.2-149.5,46.5-225,56c-73.4,9.2-149.9-18.4-223-20c0,62.2,0,420,0,420H0C0,1920,0,530.7,0,0z"/>
</svg>
