<?xml version="1.0" encoding="utf-8"?>
<!-- Generator: Adobe Illustrator 16.0.0, SVG Export Plug-In . SVG Version: 6.00 Build 0)  -->
<!DOCTYPE svg PUBLIC "-//W3C//DTD SVG 1.1//EN" "http://www.w3.org/Graphics/SVG/1.1/DTD/svg11.dtd">
<svg version="1.1" id="Layer_1" xmlns="http://www.w3.org/2000/svg" xmlns:xlink="http://www.w3.org/1999/xlink" x="0px" y="0px"
	 width="1920px" height="1920px" viewBox="0 0 1920 1920" enable-background="new 0 0 1920 1920" xml:space="preserve">
<path fill-rule="evenodd" clip-rule="evenodd" d="M480.005,0C560.003,0,640.002,0,720,0c0,89.834,0,179.669,0,269.503
	c0,38.499,0,76.998,0,115.497c40.704,0,81.407,0,122.111,0c117.215,0,606.719,0,787.889,0c22.543,0,110.777-17.177,120,11
	c0,83.142,0,166.284,0,249.425c0,170.858,0,341.716,0,512.575c0,65.5,0,131,0,196.5c0,57.817-78.602,33.5-122.334,33.5
	c-162.889,0-325.777,0-488.666,0c7.802,52.663,13.882,92.792,33,131c3.947,1.316,25,11.797,25,14c9.675,0,50,21.341,50,32
	c-46.401,15.467-108.166,7-159.667,7c-73.556,0-147.111,0-220.667,0c-36.667,0-73.334,0-110.001,0c-58.369,0-36.664,0.5-36.664,0.5
	s0,231.5,0,308.836c0,61.195,0,38.664,0,38.664s-159.994,0-199.994,0C360.003,1920,0,1920,0,1920s0-28.088,0-81.695
	c0-40.849,0-81.697,0-122.546c0-81.701,0-163.402,0-245.103c0-163.41,0-326.82,0-490.23V0H480.005z"/>
</svg>
