<?xml version="1.0" encoding="utf-8"?>
<!-- Generator: Adobe Illustrator 22.0.1, SVG Export Plug-In . SVG Version: 6.00 Build 0)  -->
<svg version="1.1" id="Ebene_1" xmlns="http://www.w3.org/2000/svg" xmlns:xlink="http://www.w3.org/1999/xlink" x="0px" y="0px"
	 viewBox="0 0 460.8 460.8" style="enable-background:new 0 0 460.8 460.8;" xml:space="preserve">
<style type="text/css">
	.st0{fill:#010202;}
</style>
<path class="st0" d="M280.7,460.8l-0.2-99.1c0,0-50.1,0.1-55.4,0.4c-20.6,1.2-196.6-0.6-196.6-0.6s1.4-186.5,1.9-212.9
	c0.2-8.7,0.7-17.3,0.9-26c0.3-16.5-1-24.1,0.6-24.4c7.1-1.3,59.3,0.3,81.9-0.1c15.4-0.2,29.5-1,44.6-1.6c17.3-0.7,36-1.9,53.3-2.4
	c5.5-0.2,7.8-0.7,12.2-0.7c1.1,0,1.6,4.3,3.4,4.3c-2.1-5.6,50.2-0.2,53.3-3.4c2.8-2.9,0-74.8,0-94.3h180.2v460.8H280.7z"/>
</svg>
