<?xml version="1.0" encoding="utf-8"?>
<!-- Generator: Adobe Illustrator 22.0.1, SVG Export Plug-In . SVG Version: 6.00 Build 0)  -->
<svg version="1.1" id="Layer_1" xmlns="http://www.w3.org/2000/svg" xmlns:xlink="http://www.w3.org/1999/xlink" x="0px" y="0px"
	 viewBox="0 0 20 20" style="enable-background:new 0 0 20 20;" xml:space="preserve">
<path d="M2.7,6.4h14.6c0.7,0,1.2-0.5,1.2-1.2c0-0.7-0.5-1.2-1.2-1.2H2.7C2,3.9,1.5,4.5,1.5,5.1S2,6.4,2.7,6.4z M17.3,8.8H2.7
	C2,8.8,1.5,9.3,1.5,10c0,0.7,0.5,1.2,1.2,1.2h14.6c0.7,0,1.2-0.5,1.2-1.2C18.5,9.3,18,8.8,17.3,8.8z M17.3,13.6H2.7
	c-0.7,0-1.2,0.5-1.2,1.2c0,0.7,0.5,1.2,1.2,1.2h14.6c0.7,0,1.2-0.5,1.2-1.2C18.5,14.2,18,13.6,17.3,13.6z"/>
</svg>
