<?xml version="1.0" encoding="utf-8"?>
<!-- Generator: Adobe Illustrator 16.0.0, SVG Export Plug-In . SVG Version: 6.00 Build 0)  -->
<!DOCTYPE svg PUBLIC "-//W3C//DTD SVG 1.1//EN" "http://www.w3.org/Graphics/SVG/1.1/DTD/svg11.dtd">
<svg version="1.1" id="Layer_1" xmlns="http://www.w3.org/2000/svg" xmlns:xlink="http://www.w3.org/1999/xlink" x="0px" y="0px"
	 width="20px" height="20px" viewBox="0 0 20 20" enable-background="new 0 0 20 20" xml:space="preserve">
<path d="M4,9.001h12c0.552,0,1-0.449,1-1c0-0.552-0.448-1-1-1H4c-0.553,0-1,0.449-1,1C3,8.552,3.448,9.001,4,9.001z M16,11H4
	c-0.553,0-1,0.449-1,1.001c0,0.553,0.448,1,1,1h12c0.552,0,1-0.447,1-1C17,11.449,16.552,11,16,11z M16,15.001H4
	c-0.553,0-1,0.449-1,0.999c0,0.553,0.448,1,1,1h12c0.552,0,1-0.447,1-1C17,15.45,16.552,15.001,16,15.001z"/>
</svg>
