<?xml version="1.0" encoding="utf-8"?>
<!-- Generator: Adobe Illustrator 16.0.0, SVG Export Plug-In . SVG Version: 6.00 Build 0)  -->
<!DOCTYPE svg PUBLIC "-//W3C//DTD SVG 1.1//EN" "http://www.w3.org/Graphics/SVG/1.1/DTD/svg11.dtd">
<svg version="1.1" id="Layer_1" xmlns="http://www.w3.org/2000/svg" xmlns:xlink="http://www.w3.org/1999/xlink" x="0px" y="0px"
	 width="20px" height="20px" viewBox="0 0 20 20" enable-background="new 0 0 20 20" xml:space="preserve">
<g id="Layer_1_1_">
	<path fill="#FFFFFF" d="M16.609,14.722L5.28,3.391c-0.522-0.521-1.368-0.521-1.889,0c-0.521,0.522-0.521,1.366,0,1.889
		l11.331,11.33c0.521,0.521,1.367,0.521,1.888,0C17.131,16.09,17.13,15.241,16.609,14.722z"/>
	<path fill="#FFFFFF" d="M14.722,3.391L3.391,14.722c-0.521,0.521-0.521,1.366,0,1.888c0.52,0.521,1.366,0.521,1.889,0l11.33-11.33
		c0.521-0.521,0.521-1.367,0-1.889C16.089,2.87,15.242,2.87,14.722,3.391z"/>
</g>
<g id="Layer_2">
</g>
</svg>
