<?xml version="1.0" encoding="utf-8"?>
<!-- Generator: Adobe Illustrator 16.0.0, SVG Export Plug-In . SVG Version: 6.00 Build 0)  -->
<!DOCTYPE svg PUBLIC "-//W3C//DTD SVG 1.1//EN" "http://www.w3.org/Graphics/SVG/1.1/DTD/svg11.dtd">
<svg version="1.1" id="Layer_1" xmlns="http://www.w3.org/2000/svg" xmlns:xlink="http://www.w3.org/1999/xlink" x="0px" y="0px"
	 width="1200.001px" height="1080px" viewBox="0 0 1200.001 1080" enable-background="new 0 0 1200.001 1080" xml:space="preserve">
<path fill-rule="evenodd" clip-rule="evenodd" d="M711.961,0c93.189,0,186.376,0,279.566,0c46.594,0,93.191,0,139.786,0
	c75.708,0,69.887-0.901,69.887,74.514c0,198.722,0,397.444,0,596.166c0,99.359,0,198.72,0,298.079c0,24.839,0,49.676,0,74.516
	c12.418,36.484,0.772,48.903-34.943,37.256c-46.595,0-93.187,0-139.782,0c-93.191,0-186.381,0-279.57,0
	c-35.51,11.647-47.157-0.566-34.944-36.641c0-24.429,0-48.857,0-73.287c0-61.07,0-122.144,0-183.215
	c-31.979,0-321.157,69.499-321.157,76.037c-66.481,0-188.905,32.781-260.126,61.03c0-14.163-9.427-141.069-11.006-141.069
	c0-53.574,4.219-128.953-11.006-183.091c-2.5-98.537-8.004-199.137-8.004-296.146c-2.162,0-2.123-90.021-3.002-100.049
	c-7.886-39.499,53.448-20.668,76.038-27.013c74.282,0,238.956,16.118,283.139-32.014c-6.864-6.449-9.866-14.452-9.005-24.013
	c17.258,0,25.012-3.644,25.012,15.007c-5.614,18.287,10.479,42.583,31.017,27.013c-0.672-31.121-7.128-30.968-8.005-62.03
	c6.138,1.398,7.522,4.002,14.008,4.002c-7.037-28.106,31.047-2.98,37.018-1.001c-1.005,13.437-9.321,38.99-12.006,39.021
	c11.159,42.497,23.239-2.001,33.016-2.001c0-3.929-9.087-15.178-9.005-24.013c55.65-11.895-7.841,54.639,57.029,33.016
	c5.099-21.818,11.006-74.23,11.006-78.037c-10.141,0-3.593-53.027,13.005-53.027c0-0.587,3.963,15.024,6.003,11.005
	c2.318,0,1.689,54.301,3.002,70.034c2.62,0,2.675,46.24,2.001,49.025c26.364,5.44,28.126,6.059,61.03,4.001
	C711.961,102.05,711.961,51.026,711.961,0C875.023,0,711.961,0,711.961,0z"/>
</svg>
